<svg xmlns="http://www.w3.org/2000/svg" xmlns:xlink="http://www.w3.org/1999/xlink" width="1000" zoomAndPan="magnify" viewBox="0 0 750 749.999995" height="1000" preserveAspectRatio="xMidYMid meet" version="1.0"><defs><clipPath id="47ceb047c8"><path d="M 415.925781 238.875 L 605.359375 238.875 L 605.359375 522.289062 L 415.925781 522.289062 Z M 415.925781 238.875 " clip-rule="nonzero"/></clipPath><clipPath id="b3bab1dca7"><path d="M 451.175781 238.875 L 570.109375 238.875 C 589.578125 238.875 605.359375 254.65625 605.359375 274.125 L 605.359375 486.859375 C 605.359375 506.328125 589.578125 522.109375 570.109375 522.109375 L 451.175781 522.109375 C 431.707031 522.109375 415.925781 506.328125 415.925781 486.859375 L 415.925781 274.125 C 415.925781 254.65625 431.707031 238.875 451.175781 238.875 Z M 451.175781 238.875 " clip-rule="nonzero"/></clipPath><clipPath id="391089d52d"><path d="M 415.925781 429.746094 L 633.367188 429.746094 L 633.367188 565.847656 L 415.925781 565.847656 Z M 415.925781 429.746094 " clip-rule="nonzero"/></clipPath><clipPath id="77778a39f5"><path d="M 451.175781 429.746094 L 597.992188 429.746094 C 617.457031 429.746094 633.242188 445.527344 633.242188 464.996094 L 633.242188 530.597656 C 633.242188 550.066406 617.457031 565.847656 597.992188 565.847656 L 451.175781 565.847656 C 431.707031 565.847656 415.925781 550.066406 415.925781 530.597656 L 415.925781 464.996094 C 415.925781 445.527344 431.707031 429.746094 451.175781 429.746094 Z M 451.175781 429.746094 " clip-rule="nonzero"/></clipPath><clipPath id="9aab87a270"><path d="M 122.027344 375 L 425.6875 375 L 425.6875 539.695312 L 122.027344 539.695312 Z M 122.027344 375 " clip-rule="nonzero"/></clipPath><clipPath id="bf6448b281"><path d="M 157.921875 375 L 390.089844 375 C 409.558594 375 425.339844 390.78125 425.339844 410.25 L 425.339844 504.445312 C 425.339844 523.914062 409.558594 539.695312 390.089844 539.695312 L 157.921875 539.695312 C 138.453125 539.695312 122.671875 523.914062 122.671875 504.445312 L 122.671875 410.25 C 122.671875 390.78125 138.453125 375 157.921875 375 Z M 157.921875 375 " clip-rule="nonzero"/></clipPath><clipPath id="b6658952b6"><path d="M 157.191406 158.328125 L 425.339844 158.328125 L 425.339844 442 L 157.191406 442 Z M 157.191406 158.328125 " clip-rule="nonzero"/></clipPath><clipPath id="793596e1f8"><path d="M 192.441406 158.328125 L 390.089844 158.328125 C 409.558594 158.328125 425.339844 174.109375 425.339844 193.578125 L 425.339844 406.316406 C 425.339844 425.78125 409.558594 441.566406 390.089844 441.566406 L 192.441406 441.566406 C 172.972656 441.566406 157.191406 425.78125 157.191406 406.316406 L 157.191406 193.578125 C 157.191406 174.109375 172.972656 158.328125 192.441406 158.328125 Z M 192.441406 158.328125 " clip-rule="nonzero"/></clipPath></defs><g clip-path="url(#47ceb047c8)"><g clip-path="url(#b3bab1dca7)"><path fill="#545454" d="M 415.925781 238.875 L 605.359375 238.875 L 605.359375 522.289062 L 415.925781 522.289062 Z M 415.925781 238.875 " fill-opacity="1" fill-rule="nonzero"/></g></g><g clip-path="url(#391089d52d)"><g clip-path="url(#77778a39f5)"><path fill="#f87423" d="M 415.925781 429.746094 L 633.367188 429.746094 L 633.367188 565.847656 L 415.925781 565.847656 Z M 415.925781 429.746094 " fill-opacity="1" fill-rule="nonzero"/></g></g><g clip-path="url(#9aab87a270)"><g clip-path="url(#bf6448b281)"><path fill="#a6a6a6" d="M 122.671875 375 L 425.042969 375 L 425.042969 539.695312 L 122.671875 539.695312 Z M 122.671875 375 " fill-opacity="1" fill-rule="nonzero"/></g></g><g clip-path="url(#b6658952b6)"><g clip-path="url(#793596e1f8)"><path fill="#f87423" d="M 157.191406 158.328125 L 425.339844 158.328125 L 425.339844 441.140625 L 157.191406 441.140625 Z M 157.191406 158.328125 " fill-opacity="1" fill-rule="nonzero"/></g></g><path fill="#000000" d="M 405.40625 454.925781 L 361.816406 466.785156 C 360.808594 467.058594 359.816406 467.257812 358.828125 467.378906 C 359.140625 466.9375 359.433594 466.476562 359.714844 465.996094 C 363.929688 458.6875 361.476562 449.230469 354.121094 444.460938 C 353.941406 444.34375 353.75 444.238281 353.554688 444.144531 C 343.34375 439.335938 333.738281 432.640625 326.019531 427.257812 C 323.3125 425.371094 320.753906 423.589844 318.546875 422.160156 C 309.28125 416.148438 299.160156 417.726562 290.480469 420.066406 L 259.40625 428.433594 L 258.355469 424.382812 C 256.894531 418.738281 251.113281 415.332031 245.472656 416.792969 L 233.289062 419.949219 C 230.558594 420.652344 228.265625 422.386719 226.832031 424.824219 C 225.394531 427.261719 224.992188 430.105469 225.699219 432.832031 L 242.078125 496.125 C 243.308594 500.882812 247.613281 504.050781 252.316406 504.050781 C 253.191406 504.050781 254.078125 503.941406 254.964844 503.710938 L 267.148438 500.558594 C 272.792969 499.097656 276.195312 493.320312 274.734375 487.671875 L 273.386719 482.457031 L 278.917969 480.972656 L 323.253906 506.570312 C 328.285156 509.476562 333.644531 510.941406 339.085938 510.941406 C 342.089844 510.941406 345.125 510.496094 348.136719 509.597656 L 427.851562 485.796875 C 435.796875 483.425781 440.804688 473.476562 438.367188 464.921875 C 437.1875 460.792969 431.332031 447.875 405.40625 454.925781 Z M 264.726562 491.214844 L 252.542969 494.367188 C 252.0625 494.488281 251.546875 494.1875 251.421875 493.707031 L 235.046875 430.414062 C 234.96875 430.117188 235.058594 429.875 235.148438 429.722656 C 235.238281 429.570312 235.410156 429.371094 235.707031 429.292969 L 247.890625 426.140625 C 247.960938 426.121094 248.039062 426.113281 248.109375 426.113281 C 248.519531 426.113281 248.90625 426.394531 249.011719 426.800781 L 265.386719 490.09375 C 265.511719 490.574219 265.210938 491.089844 264.726562 491.214844 Z M 425.089844 476.546875 L 345.375 500.347656 C 339.425781 502.121094 333.609375 501.402344 328.082031 498.210938 L 282.011719 471.613281 C 280.902344 470.972656 279.585938 470.800781 278.347656 471.132812 L 270.964844 473.109375 L 261.824219 437.777344 L 292.988281 429.386719 C 302.503906 426.824219 308.386719 427.078125 313.292969 430.257812 C 315.367188 431.601562 317.742188 433.261719 320.496094 435.179688 C 328.433594 440.710938 338.289062 447.578125 349.105469 452.71875 C 352.011719 454.757812 352.984375 458.339844 351.351562 461.167969 C 349.617188 464.167969 346.804688 464.929688 342.988281 463.441406 C 337.808594 460.839844 332.972656 457.945312 327.855469 454.878906 C 325.40625 453.410156 322.875 451.890625 320.25 450.378906 C 317.941406 449.046875 314.988281 449.835938 313.65625 452.144531 C 312.324219 454.453125 313.117188 457.40625 315.425781 458.738281 C 317.976562 460.210938 320.476562 461.710938 322.894531 463.160156 C 328.230469 466.359375 333.273438 469.382812 338.851562 472.171875 C 338.878906 472.183594 338.996094 472.238281 339.03125 472.253906 L 343.515625 474.273438 C 350.527344 477.410156 357.34375 478.007812 364.347656 476.101562 L 407.9375 464.242188 C 419.496094 461.097656 427.597656 462.375 429.082031 467.570312 C 430.078125 471.058594 428.023438 475.671875 425.089844 476.546875 Z M 247.773438 436.257812 C 247.523438 438.402344 245.578125 439.9375 243.433594 439.6875 C 241.289062 439.433594 239.753906 437.492188 240.003906 435.347656 C 240.257812 433.203125 242.199219 431.667969 244.34375 431.917969 C 246.488281 432.171875 248.023438 434.113281 247.773438 436.257812 Z M 524.300781 318.3125 L 507.921875 255.023438 C 506.464844 249.378906 500.679688 245.972656 495.039062 247.433594 L 482.855469 250.585938 C 477.210938 252.046875 473.804688 257.828125 475.265625 263.472656 L 476.617188 268.691406 L 471.082031 270.171875 L 426.746094 244.574219 C 418.941406 240.066406 410.335938 239.023438 401.863281 241.550781 L 322.148438 265.347656 C 314.207031 267.71875 309.195312 277.667969 311.632812 286.222656 C 312.566406 289.496094 316.433594 298.289062 330.90625 298.285156 C 334.695312 298.285156 339.214844 297.683594 344.59375 296.21875 L 388.183594 284.363281 C 389.191406 284.089844 390.183594 283.890625 391.171875 283.765625 C 390.859375 284.207031 390.566406 284.671875 390.285156 285.152344 C 386.070312 292.457031 388.523438 301.917969 395.878906 306.6875 C 396.058594 306.804688 396.25 306.910156 396.445312 307.003906 C 406.65625 311.8125 416.261719 318.507812 423.980469 323.886719 C 426.6875 325.773438 429.246094 327.554688 431.453125 328.988281 C 436.230469 332.085938 441.234375 333.167969 446.152344 333.167969 C 450.773438 333.167969 455.316406 332.214844 459.519531 331.082031 L 490.59375 322.714844 L 491.640625 326.765625 C 492.875 331.523438 497.175781 334.691406 501.882812 334.691406 C 502.753906 334.691406 503.644531 334.582031 504.527344 334.351562 L 516.710938 331.199219 C 519.441406 330.492188 521.734375 328.761719 523.167969 326.324219 C 524.605469 323.886719 525.007812 321.042969 524.300781 318.3125 Z M 457.011719 321.757812 C 447.492188 324.320312 441.609375 324.070312 436.707031 320.890625 C 434.632812 319.542969 432.257812 317.886719 429.503906 315.96875 C 421.566406 310.4375 411.710938 303.566406 400.894531 298.425781 C 397.984375 296.390625 397.015625 292.804688 398.648438 289.980469 C 400.378906 286.976562 403.195312 286.214844 407.011719 287.707031 C 412.1875 290.304688 417.023438 293.199219 422.140625 296.265625 C 424.589844 297.734375 427.125 299.253906 429.75 300.769531 C 430.507812 301.207031 431.339844 301.414062 432.15625 301.414062 C 433.824219 301.414062 435.449219 300.550781 436.34375 299 C 437.675781 296.691406 436.882812 293.738281 434.574219 292.40625 C 432.019531 290.933594 429.519531 289.433594 427.101562 287.984375 C 421.765625 284.785156 416.722656 281.761719 411.144531 278.976562 C 411.117188 278.960938 411 278.90625 410.96875 278.890625 L 406.480469 276.871094 C 399.46875 273.738281 392.65625 273.140625 385.652344 275.042969 L 342.058594 286.902344 C 330.5 290.046875 322.398438 288.773438 320.917969 283.574219 C 319.921875 280.089844 321.972656 275.476562 324.910156 274.597656 L 404.625 250.800781 C 410.574219 249.027344 416.390625 249.742188 421.917969 252.933594 L 467.988281 279.53125 C 469.097656 280.171875 470.414062 280.34375 471.652344 280.015625 L 479.035156 278.035156 L 488.175781 313.367188 Z M 514.851562 321.425781 C 514.761719 321.578125 514.589844 321.777344 514.292969 321.851562 L 502.109375 325.003906 C 501.632812 325.128906 501.113281 324.828125 500.988281 324.34375 L 484.613281 261.054688 C 484.488281 260.570312 484.789062 260.058594 485.273438 259.933594 L 497.457031 256.78125 C 497.9375 256.65625 498.453125 256.957031 498.578125 257.441406 L 514.953125 320.730469 C 515.03125 321.027344 514.941406 321.273438 514.851562 321.425781 Z M 509.996094 315.800781 C 509.742188 317.945312 507.800781 319.480469 505.65625 319.226562 C 503.511719 318.976562 501.976562 317.035156 502.226562 314.890625 C 502.476562 312.742188 504.421875 311.207031 506.566406 311.460938 C 508.710938 311.710938 510.246094 313.652344 509.996094 315.800781 Z M 312.925781 362.902344 C 311.0625 363.617188 309.832031 365.410156 309.832031 367.40625 L 309.832031 383.738281 C 309.832031 385.738281 311.0625 387.527344 312.925781 388.246094 L 320.617188 391.203125 C 321.792969 395.300781 323.425781 399.242188 325.496094 402.972656 L 322.148438 410.507812 C 321.335938 412.332031 321.734375 414.46875 323.144531 415.878906 L 334.695312 427.425781 C 336.105469 428.839844 338.242188 429.238281 340.066406 428.425781 L 347.605469 425.078125 C 351.335938 427.144531 355.277344 428.78125 359.367188 429.953125 L 362.332031 437.648438 C 363.046875 439.511719 364.839844 440.738281 366.835938 440.738281 L 383.167969 440.738281 C 385.164062 440.738281 386.953125 439.511719 387.671875 437.648438 L 390.632812 429.957031 C 394.726562 428.78125 398.667969 427.148438 402.398438 425.078125 L 409.933594 428.425781 C 411.761719 429.238281 413.894531 428.839844 415.308594 427.425781 L 426.855469 415.878906 C 428.265625 414.46875 428.664062 412.332031 427.855469 410.507812 L 424.503906 402.96875 C 426.574219 399.238281 428.207031 395.296875 429.382812 391.203125 L 437.074219 388.242188 C 438.9375 387.527344 440.167969 385.734375 440.167969 383.738281 L 440.167969 367.40625 C 440.167969 365.410156 438.9375 363.617188 437.074219 362.902344 L 429.386719 359.941406 C 428.210938 355.847656 426.578125 351.90625 424.507812 348.175781 L 427.855469 340.640625 C 428.664062 338.8125 428.269531 336.679688 426.855469 335.265625 L 415.308594 323.71875 C 413.894531 322.304688 411.757812 321.910156 409.933594 322.71875 L 402.394531 326.066406 C 398.664062 324 394.726562 322.367188 390.632812 321.191406 L 387.671875 313.5 C 386.953125 311.636719 385.164062 310.40625 383.167969 310.40625 L 366.835938 310.40625 C 364.835938 310.40625 363.046875 311.636719 362.328125 313.5 L 359.367188 321.191406 C 355.277344 322.367188 351.335938 324 347.605469 326.070312 L 340.066406 322.71875 C 338.242188 321.910156 336.105469 322.304688 334.695312 323.71875 L 323.144531 335.265625 C 321.734375 336.679688 321.335938 338.816406 322.148438 340.640625 L 325.496094 348.179688 C 323.425781 351.910156 321.792969 355.847656 320.617188 359.941406 Z M 326.390625 368.0625 C 327.878906 367.492188 328.984375 366.226562 329.355469 364.675781 C 330.503906 359.847656 332.410156 355.25 335.019531 351.007812 C 335.855469 349.652344 335.96875 347.972656 335.320312 346.519531 L 332.316406 339.75 L 339.175781 332.890625 L 345.945312 335.894531 C 347.402344 336.542969 349.082031 336.429688 350.4375 335.59375 C 354.675781 332.984375 359.273438 331.078125 364.101562 329.929688 C 365.652344 329.558594 366.917969 328.453125 367.488281 326.964844 L 370.148438 320.058594 L 379.851562 320.058594 L 382.511719 326.964844 C 383.082031 328.453125 384.347656 329.558594 385.898438 329.929688 C 390.726562 331.078125 395.324219 332.984375 399.5625 335.59375 C 400.917969 336.429688 402.597656 336.539062 404.054688 335.894531 L 410.824219 332.890625 L 417.683594 339.75 L 414.679688 346.515625 C 414.035156 347.972656 414.148438 349.652344 414.980469 351.007812 C 417.59375 355.246094 419.5 359.84375 420.648438 364.675781 C 421.015625 366.222656 422.125 367.492188 423.609375 368.0625 L 430.511719 370.722656 L 430.511719 380.425781 L 423.605469 383.082031 C 422.121094 383.65625 421.011719 384.921875 420.644531 386.472656 C 419.496094 391.296875 417.589844 395.894531 414.980469 400.136719 C 414.144531 401.492188 414.03125 403.171875 414.679688 404.625 L 417.683594 411.394531 L 410.824219 418.257812 L 404.058594 415.253906 C 402.601562 414.605469 400.921875 414.71875 399.566406 415.554688 C 395.328125 418.164062 390.730469 420.070312 385.898438 421.21875 C 384.347656 421.589844 383.082031 422.695312 382.511719 424.183594 L 379.851562 431.085938 L 370.148438 431.085938 L 367.492188 424.179688 C 366.917969 422.695312 365.652344 421.585938 364.105469 421.21875 C 359.273438 420.070312 354.675781 418.164062 350.4375 415.550781 C 349.082031 414.71875 347.402344 414.605469 345.949219 415.25 L 339.179688 418.257812 L 332.316406 411.394531 L 335.320312 404.628906 C 335.96875 403.175781 335.855469 401.496094 335.019531 400.136719 C 332.410156 395.902344 330.503906 391.300781 329.355469 386.46875 C 328.984375 384.921875 327.878906 383.652344 326.390625 383.082031 L 319.488281 380.425781 L 319.488281 370.722656 Z M 375 408.882812 C 393.367188 408.882812 408.308594 393.941406 408.308594 375.574219 C 408.308594 357.207031 393.367188 342.261719 375 342.261719 C 356.632812 342.261719 341.691406 357.207031 341.691406 375.574219 C 341.691406 393.941406 356.632812 408.882812 375 408.882812 Z M 375 351.917969 C 388.042969 351.917969 398.65625 362.53125 398.65625 375.574219 C 398.65625 388.617188 388.042969 399.230469 375 399.230469 C 361.957031 399.230469 351.34375 388.617188 351.34375 375.574219 C 351.34375 362.53125 361.957031 351.917969 375 351.917969 Z M 451.617188 429.492188 L 457.242188 428.5 C 459.863281 428.035156 462.371094 429.789062 462.835938 432.414062 C 463.296875 435.039062 461.546875 437.542969 458.917969 438.007812 L 435.917969 442.0625 C 435.636719 442.113281 435.355469 442.136719 435.078125 442.136719 C 433.777344 442.136719 432.519531 441.613281 431.601562 440.660156 C 430.488281 439.5 430.019531 437.867188 430.359375 436.292969 L 434.808594 415.632812 C 435.371094 413.027344 437.9375 411.371094 440.542969 411.929688 C 443.148438 412.492188 444.808594 415.058594 444.246094 417.664062 L 442.726562 424.726562 C 460.996094 407.210938 468.773438 380.839844 462.207031 355.777344 C 461.53125 353.195312 463.074219 350.558594 465.652344 349.882812 C 468.230469 349.203125 470.867188 350.75 471.546875 353.328125 C 478.738281 380.78125 470.789062 409.617188 451.617188 429.492188 Z M 298.382812 321.65625 L 292.757812 322.648438 C 290.132812 323.113281 287.628906 321.359375 287.164062 318.734375 C 286.699219 316.105469 288.453125 313.605469 291.078125 313.140625 L 314.082031 309.082031 C 315.664062 308.804688 317.28125 309.328125 318.398438 310.488281 C 319.511719 311.644531 319.976562 313.28125 319.640625 314.851562 L 315.191406 335.515625 C 314.703125 337.777344 312.703125 339.324219 310.476562 339.324219 C 310.140625 339.324219 309.800781 339.289062 309.457031 339.214844 C 306.851562 338.65625 305.191406 336.085938 305.753906 333.480469 L 307.273438 326.417969 C 289.003906 343.933594 281.226562 370.304688 287.792969 395.371094 C 288.46875 397.949219 286.925781 400.585938 284.347656 401.261719 C 283.9375 401.371094 283.523438 401.421875 283.121094 401.421875 C 280.980469 401.421875 279.023438 399.984375 278.453125 397.816406 C 271.261719 370.363281 279.210938 341.53125 298.382812 321.65625 Z M 298.382812 321.65625 " fill-opacity="1" fill-rule="nonzero"/></svg>