<svg xmlns="http://www.w3.org/2000/svg" xmlns:xlink="http://www.w3.org/1999/xlink" width="1000" zoomAndPan="magnify" viewBox="0 0 750 749.999995" height="1000" preserveAspectRatio="xMidYMid meet" version="1.0"><defs><clipPath id="f39d58e955"><path d="M 335 463 L 405 463 L 405 500.8125 L 335 500.8125 Z M 335 463 " clip-rule="nonzero"/></clipPath><clipPath id="123887ea12"><path d="M 321 249.5625 L 429 249.5625 L 429 354 L 321 354 Z M 321 249.5625 " clip-rule="nonzero"/></clipPath></defs><path fill="#fd6916" d="M 268.496094 443.035156 C 267.566406 443.035156 266.628906 442.914062 265.6875 442.648438 L 233.117188 433.578125 C 230.382812 432.816406 228.117188 431.035156 226.738281 428.5625 C 225.359375 426.085938 225.03125 423.222656 225.8125 420.503906 L 250.988281 333.195312 C 252.589844 327.660156 258.394531 324.417969 263.949219 325.960938 L 296.523438 335.03125 C 299.253906 335.792969 301.519531 337.574219 302.898438 340.046875 C 304.277344 342.523438 304.613281 345.382812 303.824219 348.109375 L 278.648438 435.421875 C 277.316406 440.011719 273.074219 443.035156 268.496094 443.035156 Z M 267.511719 436.101562 C 269.484375 436.652344 271.542969 435.496094 272.113281 433.53125 L 297.289062 346.222656 C 297.570312 345.253906 297.453125 344.234375 296.964844 343.359375 C 296.472656 342.480469 295.671875 341.847656 294.699219 341.578125 L 262.121094 332.507812 C 260.148438 331.957031 258.089844 333.113281 257.515625 335.078125 L 232.339844 422.386719 C 232.0625 423.351562 232.179688 424.371094 232.667969 425.25 C 233.15625 426.125 233.960938 426.757812 234.929688 427.03125 Z M 267.511719 436.101562 " fill-opacity="1" fill-rule="nonzero"/><path fill="#fd6916" d="M 272.8125 367.929688 C 271.789062 367.929688 270.753906 367.785156 269.742188 367.507812 C 266.804688 366.691406 264.363281 364.78125 262.867188 362.128906 C 261.371094 359.476562 260.996094 356.398438 261.8125 353.46875 C 263.5 347.410156 269.800781 343.855469 275.859375 345.539062 C 281.917969 347.226562 285.472656 353.53125 283.789062 359.585938 C 282.972656 362.523438 281.0625 364.964844 278.410156 366.460938 C 276.667969 367.433594 274.753906 367.929688 272.8125 367.929688 Z M 272.789062 351.917969 C 272.003906 351.917969 271.230469 352.121094 270.53125 352.515625 C 269.457031 353.121094 268.6875 354.105469 268.355469 355.289062 C 267.675781 357.738281 269.109375 360.28125 271.554688 360.960938 C 272.738281 361.292969 273.984375 361.136719 275.058594 360.53125 C 276.132812 359.925781 276.898438 358.941406 277.234375 357.757812 C 277.914062 355.3125 276.480469 352.769531 274.03125 352.089844 C 273.617188 351.972656 273.203125 351.917969 272.789062 351.917969 Z M 280.503906 358.667969 Z M 280.503906 358.667969 " fill-opacity="1" fill-rule="nonzero"/><path fill="#fd6916" d="M 481.441406 443.035156 C 476.859375 443.035156 472.617188 440.015625 471.292969 435.414062 L 446.113281 348.105469 C 445.332031 345.378906 445.660156 342.515625 447.039062 340.039062 C 448.421875 337.566406 450.683594 335.785156 453.417969 335.023438 L 485.996094 325.953125 C 491.542969 324.410156 497.359375 327.652344 498.957031 333.1875 L 524.132812 420.496094 C 524.914062 423.222656 524.585938 426.085938 523.207031 428.554688 C 521.828125 431.027344 519.5625 432.808594 516.828125 433.570312 L 484.25 442.640625 C 483.3125 442.90625 482.367188 443.035156 481.441406 443.035156 Z M 488.8125 332.371094 C 488.476562 332.371094 488.144531 332.414062 487.8125 332.507812 L 455.230469 341.578125 C 454.261719 341.847656 453.457031 342.480469 452.96875 343.359375 C 452.480469 344.234375 452.363281 345.253906 452.640625 346.222656 L 477.816406 433.53125 C 478.382812 435.496094 480.449219 436.652344 482.421875 436.101562 L 514.992188 427.03125 C 515.964844 426.757812 516.769531 426.125 517.257812 425.25 C 517.746094 424.371094 517.863281 423.351562 517.585938 422.386719 L 492.40625 335.078125 C 491.945312 333.4375 490.4375 332.371094 488.8125 332.371094 Z M 486.902344 329.230469 Z M 486.902344 329.230469 " fill-opacity="1" fill-rule="nonzero"/><path fill="#fd6916" d="M 476.886719 367.929688 C 471.894531 367.929688 467.300781 364.625 465.898438 359.582031 C 465.082031 356.644531 465.457031 353.570312 466.953125 350.917969 C 468.449219 348.265625 470.890625 346.355469 473.828125 345.539062 C 479.882812 343.855469 486.1875 347.410156 487.875 353.46875 C 489.558594 359.527344 486.003906 365.828125 479.945312 367.515625 C 478.917969 367.792969 477.894531 367.929688 476.886719 367.929688 Z M 476.878906 351.917969 C 476.472656 351.917969 476.058594 351.972656 475.648438 352.089844 C 474.464844 352.421875 473.480469 353.191406 472.875 354.265625 C 472.269531 355.339844 472.121094 356.574219 472.445312 357.765625 C 472.78125 358.949219 473.546875 359.933594 474.621094 360.539062 C 475.691406 361.144531 476.933594 361.292969 478.125 360.96875 C 480.570312 360.289062 482.007812 357.746094 481.324219 355.296875 C 480.75 353.257812 478.898438 351.917969 476.878906 351.917969 Z M 476.878906 351.917969 " fill-opacity="1" fill-rule="nonzero"/><path fill="#fd6916" d="M 441.261719 443.476562 C 439.4375 443.476562 437.929688 442.035156 437.867188 440.199219 C 437.800781 438.324219 439.261719 436.753906 441.136719 436.679688 C 441.308594 436.671875 458.109375 435.929688 471.230469 426.847656 C 472.773438 425.78125 474.894531 426.167969 475.960938 427.710938 C 477.027344 429.253906 476.640625 431.367188 475.097656 432.441406 C 460.304688 442.683594 442.152344 443.449219 441.390625 443.476562 C 441.34375 443.476562 441.300781 443.476562 441.261719 443.476562 Z M 441.261719 443.476562 " fill-opacity="1" fill-rule="nonzero"/><path fill="#fd6916" d="M 287.878906 439.527344 C 287.011719 439.527344 286.140625 439.195312 285.472656 438.535156 L 275.398438 428.457031 C 274.070312 427.132812 274.070312 424.976562 275.398438 423.652344 C 276.722656 422.328125 278.878906 422.328125 280.203125 423.652344 L 290.28125 433.726562 C 291.605469 435.054688 291.605469 437.207031 290.28125 438.535156 C 289.621094 439.199219 288.75 439.527344 287.878906 439.527344 Z M 287.878906 439.527344 " fill-opacity="1" fill-rule="nonzero"/><g clip-path="url(#f39d58e955)"><path fill="#fd6916" d="M 354.605469 500.472656 C 350.164062 500.472656 345.730469 498.785156 342.351562 495.40625 L 336.554688 489.605469 C 335.226562 488.28125 335.226562 486.125 336.554688 484.800781 C 337.878906 483.472656 340.035156 483.472656 341.359375 484.800781 L 347.160156 490.601562 C 351.265625 494.707031 357.941406 494.707031 362.046875 490.601562 C 364.039062 488.621094 365.136719 485.976562 365.136719 483.160156 C 365.136719 481.796875 364.875 480.460938 364.367188 479.199219 C 363.84375 477.898438 363.066406 476.730469 362.054688 475.71875 C 360.730469 474.390625 360.730469 472.234375 362.054688 470.910156 C 363.378906 469.585938 365.535156 469.585938 366.863281 470.910156 L 379.773438 483.816406 C 383.878906 487.921875 390.554688 487.921875 394.660156 483.816406 C 396.648438 481.828125 397.75 479.175781 397.75 476.371094 C 397.75 473.5625 396.652344 470.917969 394.660156 468.925781 C 393.335938 467.597656 393.335938 465.445312 394.660156 464.117188 C 395.988281 462.792969 398.144531 462.792969 399.46875 464.117188 C 402.738281 467.386719 404.539062 471.738281 404.539062 476.371094 C 404.539062 481 402.738281 485.351562 399.46875 488.621094 C 392.710938 495.378906 381.71875 495.378906 374.964844 488.621094 L 371.789062 485.445312 C 371.300781 489.21875 369.589844 492.699219 366.855469 495.421875 C 363.46875 498.785156 359.035156 500.472656 354.605469 500.472656 Z M 354.605469 500.472656 " fill-opacity="1" fill-rule="nonzero"/></g><path fill="#fd6916" d="M 412.578125 479.652344 C 408.136719 479.652344 403.703125 477.96875 400.324219 474.589844 L 368.609375 442.878906 C 367.285156 441.554688 367.285156 439.398438 368.609375 438.074219 C 369.933594 436.746094 372.089844 436.746094 373.414062 438.074219 L 405.125 469.78125 C 409.230469 473.886719 415.910156 473.886719 420.015625 469.78125 C 424.121094 465.675781 424.121094 459 420.015625 454.890625 L 388.296875 423.183594 C 386.972656 421.855469 386.972656 419.703125 388.296875 418.375 C 389.625 417.050781 391.78125 417.050781 393.105469 418.375 L 424.820312 450.085938 C 431.578125 456.84375 431.578125 467.835938 424.820312 474.589844 C 421.449219 477.96875 417.007812 479.652344 412.578125 479.652344 Z M 412.578125 479.652344 " fill-opacity="1" fill-rule="nonzero"/><path fill="#fd6916" d="M 427.515625 455.207031 C 422.882812 455.207031 418.53125 453.402344 415.261719 450.125 C 413.9375 448.800781 413.9375 446.644531 415.261719 445.320312 C 416.589844 443.992188 418.742188 443.992188 420.070312 445.320312 C 422.0625 447.3125 424.699219 448.40625 427.515625 448.40625 C 430.328125 448.40625 432.964844 447.3125 434.957031 445.320312 C 436.535156 443.734375 437.554688 441.738281 437.902344 439.546875 C 437.996094 438.984375 438.046875 438.433594 438.046875 437.875 C 438.046875 435.066406 436.949219 432.421875 434.957031 430.421875 L 384.605469 380.070312 C 380.941406 376.40625 375.5625 375.007812 370.582031 376.40625 C 368.023438 377.128906 365.71875 378.542969 363.917969 380.5 L 348.226562 397.539062 C 348.191406 397.570312 348.164062 397.605469 348.132812 397.640625 C 340.746094 405.023438 328.742188 405.023438 321.359375 397.640625 C 315.429688 391.710938 314.089844 382.765625 318.019531 375.375 C 323.0625 365.894531 331.78125 352.902344 344.671875 344.78125 C 344.71875 344.753906 344.765625 344.71875 344.8125 344.691406 C 355.414062 338.054688 367.03125 335.824219 379.335938 338.054688 C 381.1875 338.328125 406.804688 342.265625 426.902344 356.039062 L 448.679688 346.628906 C 450.40625 345.886719 452.402344 346.675781 453.144531 348.402344 C 453.894531 350.125 453.097656 352.128906 451.371094 352.871094 L 427.847656 363.035156 C 426.746094 363.511719 425.472656 363.367188 424.507812 362.667969 C 405.289062 348.769531 378.574219 344.8125 378.3125 344.78125 C 378.269531 344.773438 378.222656 344.765625 378.183594 344.757812 C 367.519531 342.816406 357.464844 344.753906 348.300781 350.53125 C 348.253906 350.558594 348.210938 350.585938 348.164062 350.613281 C 336.605469 357.949219 328.660156 369.851562 324.023438 378.570312 C 321.507812 383.300781 322.363281 389.03125 326.164062 392.832031 C 330.875 397.542969 338.539062 397.566406 343.277344 392.878906 L 358.921875 375.898438 C 361.574219 373.015625 364.972656 370.925781 368.746094 369.867188 C 376.09375 367.800781 384.023438 369.867188 389.421875 375.265625 L 439.773438 425.617188 C 443.042969 428.894531 444.84375 433.246094 444.84375 437.867188 C 444.84375 438.804688 444.769531 439.738281 444.621094 440.636719 C 444.054688 444.21875 442.382812 447.507812 439.777344 450.121094 C 436.496094 453.402344 432.144531 455.207031 427.515625 455.207031 Z M 427.515625 455.207031 " fill-opacity="1" fill-rule="nonzero"/><path fill="#fd6916" d="M 299.289062 355.339844 C 297.738281 355.339844 296.339844 354.269531 295.976562 352.691406 C 295.5625 350.863281 296.707031 349.042969 298.535156 348.621094 C 320.636719 343.589844 345.488281 344.230469 346.566406 344.257812 C 348.402344 344.304688 349.886719 345.804688 349.886719 347.65625 C 349.886719 349.566406 348.300781 351.121094 346.382812 351.054688 C 345.363281 351.027344 321.332031 350.402344 300.042969 355.25 C 299.792969 355.3125 299.539062 355.339844 299.289062 355.339844 Z M 299.289062 355.339844 " fill-opacity="1" fill-rule="nonzero"/><path fill="#fd6916" d="M 295.789062 453.042969 C 292.457031 453.042969 289.320312 451.746094 286.96875 449.390625 C 284.617188 447.039062 283.320312 443.90625 283.320312 440.574219 C 283.320312 437.242188 284.617188 434.117188 286.96875 431.757812 L 297.699219 421.027344 C 302.558594 416.167969 310.472656 416.167969 315.332031 421.027344 C 317.6875 423.378906 318.984375 426.515625 318.984375 429.847656 C 318.984375 433.175781 317.6875 436.3125 315.332031 438.664062 C 314.007812 439.988281 311.851562 439.988281 310.527344 438.664062 C 309.203125 437.339844 309.203125 435.183594 310.527344 433.855469 C 311.601562 432.78125 312.1875 431.363281 312.1875 429.847656 C 312.1875 428.328125 311.59375 426.910156 310.527344 425.835938 C 308.316406 423.625 304.722656 423.625 302.503906 425.835938 L 291.777344 436.5625 C 290.703125 437.636719 290.117188 439.058594 290.117188 440.574219 C 290.117188 442.089844 290.707031 443.511719 291.777344 444.585938 C 292.851562 445.660156 294.269531 446.246094 295.789062 446.246094 C 297.304688 446.246094 298.722656 445.652344 299.796875 444.585938 C 301.125 443.257812 303.28125 443.257812 304.605469 444.585938 C 305.929688 445.910156 305.929688 448.066406 304.605469 449.390625 C 302.246094 451.746094 299.117188 453.042969 295.789062 453.042969 Z M 295.789062 453.042969 " fill-opacity="1" fill-rule="nonzero"/><path fill="#fd6916" d="M 304.789062 469.695312 C 301.59375 469.695312 298.40625 468.476562 295.972656 466.050781 C 293.617188 463.695312 292.320312 460.5625 292.320312 457.230469 C 292.320312 453.898438 293.617188 450.765625 295.972656 448.414062 L 310.519531 433.863281 C 315.382812 429.003906 323.296875 429.003906 328.15625 433.863281 C 330.507812 436.222656 331.808594 439.351562 331.808594 442.683594 C 331.808594 446.011719 330.507812 449.148438 328.15625 451.5 C 326.832031 452.824219 324.675781 452.824219 323.351562 451.5 C 322.023438 450.175781 322.023438 448.019531 323.351562 446.691406 C 324.425781 445.617188 325.007812 444.199219 325.007812 442.683594 C 325.007812 441.164062 324.417969 439.746094 323.351562 438.671875 C 321.140625 436.460938 317.535156 436.460938 315.328125 438.671875 L 300.777344 453.21875 C 299.703125 454.292969 299.117188 455.714844 299.117188 457.230469 C 299.117188 458.746094 299.710938 460.167969 300.777344 461.242188 C 302.988281 463.453125 306.582031 463.453125 308.800781 461.242188 C 310.125 459.917969 312.28125 459.917969 313.605469 461.242188 C 314.933594 462.566406 314.933594 464.722656 313.605469 466.050781 C 311.179688 468.476562 307.984375 469.695312 304.789062 469.695312 Z M 304.789062 469.695312 " fill-opacity="1" fill-rule="nonzero"/><path fill="#fd6916" d="M 313.394531 486.75 C 310.066406 486.75 306.929688 485.453125 304.578125 483.101562 C 302.226562 480.75 300.925781 477.613281 300.925781 474.28125 C 300.925781 470.953125 302.226562 467.824219 304.578125 465.464844 L 323.355469 446.6875 C 328.21875 441.824219 336.132812 441.824219 340.992188 446.6875 C 343.34375 449.046875 344.644531 452.171875 344.644531 455.503906 C 344.644531 458.835938 343.34375 461.96875 340.992188 464.324219 L 322.214844 483.101562 C 319.855469 485.453125 316.726562 486.75 313.394531 486.75 Z M 332.167969 449.835938 C 330.710938 449.835938 329.265625 450.386719 328.15625 451.492188 L 309.378906 470.269531 C 308.304688 471.34375 307.71875 472.765625 307.71875 474.28125 C 307.71875 475.796875 308.3125 477.21875 309.378906 478.292969 C 310.453125 479.367188 311.875 479.953125 313.390625 479.953125 C 314.90625 479.953125 316.328125 479.359375 317.402344 478.292969 L 336.179688 459.515625 C 337.253906 458.441406 337.835938 457.019531 337.835938 455.503906 C 337.835938 453.988281 337.246094 452.566406 336.179688 451.492188 C 335.078125 450.386719 333.621094 449.835938 332.167969 449.835938 Z M 332.167969 449.835938 " fill-opacity="1" fill-rule="nonzero"/><path fill="#fd6916" d="M 331.671875 494.128906 C 328.339844 494.128906 325.207031 492.828125 322.851562 490.476562 C 320.5 488.125 319.203125 484.992188 319.203125 481.660156 C 319.203125 478.328125 320.5 475.195312 322.851562 472.839844 C 324.179688 471.515625 326.335938 471.515625 327.660156 472.839844 C 328.984375 474.167969 328.984375 476.320312 327.660156 477.648438 C 326.585938 478.722656 326 480.144531 326 481.660156 C 326 483.175781 326.59375 484.597656 327.660156 485.671875 C 328.734375 486.746094 330.15625 487.328125 331.671875 487.328125 C 333.1875 487.328125 334.609375 486.738281 335.683594 485.671875 L 349.007812 472.34375 C 351.21875 470.136719 351.21875 466.53125 349.007812 464.324219 C 346.796875 462.113281 343.203125 462.113281 340.984375 464.324219 C 339.660156 465.648438 337.503906 465.648438 336.179688 464.324219 C 334.851562 462.996094 334.851562 460.839844 336.179688 459.515625 C 341.039062 454.65625 348.953125 454.65625 353.816406 459.515625 C 358.675781 464.375 358.675781 472.289062 353.816406 477.152344 L 340.488281 490.476562 C 338.136719 492.828125 335.003906 494.128906 331.671875 494.128906 Z M 331.671875 494.128906 " fill-opacity="1" fill-rule="nonzero"/><g clip-path="url(#123887ea12)"><path fill="#fd6916" d="M 409.359375 353.753906 C 408.648438 353.753906 407.925781 353.53125 407.316406 353.066406 C 405.820312 351.933594 405.519531 349.804688 406.65625 348.308594 C 416.410156 335.425781 421.566406 319.992188 421.566406 303.695312 L 421.566406 274.820312 L 374.964844 256.703125 L 328.375 274.8125 L 328.375 303.6875 C 328.375 318.835938 332.882812 333.371094 341.414062 345.722656 C 342.480469 347.269531 342.09375 349.390625 340.550781 350.457031 C 339.007812 351.523438 336.886719 351.136719 335.820312 349.59375 C 326.496094 336.105469 321.570312 320.230469 321.570312 303.695312 L 321.570312 272.496094 C 321.570312 271.09375 322.433594 269.835938 323.738281 269.328125 L 373.730469 249.894531 C 374.523438 249.589844 375.402344 249.589844 376.191406 249.894531 L 426.179688 269.328125 C 427.488281 269.835938 428.351562 271.09375 428.351562 272.496094 L 428.351562 303.695312 C 428.351562 321.488281 422.71875 338.335938 412.066406 352.414062 C 411.402344 353.285156 410.386719 353.753906 409.359375 353.753906 Z M 409.359375 353.753906 " fill-opacity="1" fill-rule="nonzero"/></g><path fill="#fd6916" d="M 391.859375 347.683594 C 391.039062 347.683594 390.214844 347.390625 389.5625 346.792969 C 388.175781 345.519531 388.085938 343.371094 389.351562 341.992188 C 398.964844 331.507812 404.261719 317.910156 404.261719 303.695312 L 404.261719 286.648438 L 374.964844 275.253906 L 345.671875 286.644531 L 345.671875 303.6875 C 345.671875 317.21875 350.519531 330.3125 359.320312 340.570312 C 360.546875 342 360.382812 344.140625 358.953125 345.363281 C 357.535156 346.589844 355.386719 346.425781 354.160156 344.996094 C 344.296875 333.507812 338.863281 318.835938 338.863281 303.679688 L 338.863281 284.3125 C 338.863281 282.910156 339.726562 281.652344 341.035156 281.144531 L 373.730469 268.4375 C 374.523438 268.128906 375.402344 268.128906 376.191406 268.4375 L 408.886719 281.144531 C 410.191406 281.652344 411.054688 282.910156 411.054688 284.3125 L 411.054688 303.679688 C 411.054688 319.605469 405.125 334.832031 394.363281 346.574219 C 393.695312 347.308594 392.777344 347.683594 391.859375 347.683594 Z M 391.859375 347.683594 " fill-opacity="1" fill-rule="nonzero"/><path fill="#fd6916" d="M 368.308594 325.917969 C 367.441406 325.917969 366.570312 325.585938 365.902344 324.925781 L 356.4375 315.464844 C 355.113281 314.136719 355.113281 311.980469 356.4375 310.65625 C 357.765625 309.332031 359.921875 309.332031 361.246094 310.65625 L 368.308594 317.71875 L 388.6875 297.34375 C 390.011719 296.019531 392.167969 296.019531 393.492188 297.34375 C 394.820312 298.671875 394.820312 300.824219 393.492188 302.152344 L 370.710938 324.933594 C 370.050781 325.585938 369.179688 325.917969 368.308594 325.917969 Z M 368.308594 325.917969 " fill-opacity="1" fill-rule="nonzero"/></svg>