<svg xmlns="http://www.w3.org/2000/svg" xmlns:xlink="http://www.w3.org/1999/xlink" width="1000" zoomAndPan="magnify" viewBox="0 0 750 749.999995" height="1000" preserveAspectRatio="xMidYMid meet" version="1.0"><defs><clipPath id="4fa402f02d"><path d="M 263.671875 228 L 486.324219 228 L 486.324219 525 L 263.671875 525 Z M 263.671875 228 " clip-rule="nonzero"/></clipPath></defs><path fill="#fd6916" d="M 287.109375 336.328125 C 287.109375 384.792969 326.535156 424.21875 375 424.21875 C 423.460938 424.21875 462.890625 384.792969 462.890625 336.328125 C 462.890625 287.863281 423.460938 248.4375 375 248.4375 C 326.535156 248.4375 287.109375 287.863281 287.109375 336.328125 Z M 375 260.15625 C 417 260.15625 451.171875 294.328125 451.171875 336.328125 C 451.171875 378.332031 417 412.5 375 412.5 C 332.996094 412.5 298.828125 378.332031 298.828125 336.328125 C 298.828125 294.328125 332.996094 260.15625 375 260.15625 " fill-opacity="1" fill-rule="nonzero"/><path fill="#fd6916" d="M 320.734375 325.882812 L 343.445312 348.261719 L 338.21875 379.710938 C 337.855469 381.902344 338.761719 384.109375 340.558594 385.410156 C 342.351562 386.714844 344.730469 386.890625 346.703125 385.871094 L 375 371.175781 L 403.292969 385.871094 C 405.246094 386.886719 407.625 386.726562 409.433594 385.410156 C 411.234375 384.109375 412.136719 381.898438 411.773438 379.710938 L 406.546875 348.261719 L 429.257812 325.882812 C 430.839844 324.324219 431.40625 322.011719 430.71875 319.894531 C 430.03125 317.785156 428.214844 316.246094 426.015625 315.914062 L 394.5 311.167969 L 380.238281 282.648438 C 379.246094 280.664062 377.214844 279.410156 375 279.410156 C 372.777344 279.410156 370.75 280.664062 369.757812 282.648438 L 355.496094 311.167969 L 323.976562 315.914062 C 321.78125 316.242188 319.960938 317.785156 319.277344 319.894531 C 318.585938 322.011719 319.15625 324.324219 320.734375 325.882812 Z M 360.25 322.304688 C 362.132812 322.023438 363.765625 320.839844 364.617188 319.132812 L 375 298.371094 L 385.378906 319.132812 C 386.230469 320.839844 387.859375 322.023438 389.746094 322.304688 L 412.6875 325.757812 L 396.15625 342.042969 C 394.796875 343.382812 394.175781 345.296875 394.488281 347.179688 L 398.289062 370.070312 L 377.695312 359.375 C 376.851562 358.9375 375.925781 358.71875 375 358.71875 C 374.070312 358.71875 373.140625 358.9375 372.296875 359.375 L 351.703125 370.070312 L 355.503906 347.179688 C 355.820312 345.296875 355.195312 343.382812 353.835938 342.042969 L 337.304688 325.757812 L 360.25 322.304688 " fill-opacity="1" fill-rule="nonzero"/><path fill="#fd6916" d="M 380.859375 230.859375 C 380.859375 234.097656 378.234375 236.71875 375 236.71875 C 371.761719 236.71875 369.140625 234.097656 369.140625 230.859375 C 369.140625 227.621094 371.761719 225 375 225 C 378.234375 225 380.859375 227.621094 380.859375 230.859375 " fill-opacity="1" fill-rule="nonzero"/><g clip-path="url(#4fa402f02d)"><path fill="#fd6916" d="M 347.382812 228.453125 C 298.09375 241.035156 263.671875 285.394531 263.671875 336.328125 C 263.671875 367.960938 276.972656 397.769531 300.320312 418.878906 L 265.019531 481.09375 C 263.882812 483.09375 264.023438 485.574219 265.378906 487.433594 C 266.734375 489.292969 269.050781 490.1875 271.304688 489.71875 L 311.394531 481.398438 L 325.484375 521.101562 C 326.25 523.261719 328.207031 524.773438 330.488281 524.976562 C 332.773438 525.179688 334.964844 524.03125 336.097656 522.035156 L 375 453.648438 L 413.898438 522.035156 C 414.945312 523.878906 416.894531 524.996094 418.984375 524.996094 C 419.160156 524.996094 419.332031 524.992188 419.503906 524.976562 C 421.789062 524.773438 423.746094 523.257812 424.511719 521.101562 L 438.601562 481.398438 L 478.6875 489.71875 C 480.941406 490.1875 483.257812 489.292969 484.613281 487.433594 C 485.96875 485.574219 486.109375 483.09375 484.976562 481.09375 L 449.675781 418.878906 C 473.023438 397.769531 486.324219 367.960938 486.324219 336.328125 C 486.324219 285.394531 451.898438 241.035156 402.613281 228.453125 C 399.472656 227.652344 396.285156 229.542969 395.484375 232.679688 C 394.683594 235.816406 396.578125 239.007812 399.714844 239.808594 C 443.808594 251.066406 474.609375 290.757812 474.609375 336.328125 C 474.609375 391.792969 429.5625 435.9375 375 435.9375 C 320.394531 435.9375 275.390625 391.753906 275.390625 336.328125 C 275.390625 290.757812 306.1875 251.066406 350.28125 239.808594 C 353.417969 239.007812 355.3125 235.816406 354.511719 232.679688 C 353.710938 229.542969 350.523438 227.652344 347.382812 228.453125 Z M 332.242188 505.109375 L 320.730469 472.660156 C 319.75 469.902344 316.886719 468.289062 314.015625 468.882812 L 281.601562 475.613281 L 309.539062 426.378906 C 325.828125 438.21875 345.117188 445.433594 365.171875 447.21875 Z M 435.976562 468.882812 C 433.113281 468.289062 430.242188 469.902344 429.261719 472.660156 L 417.75 505.109375 L 384.820312 447.21875 C 404.882812 445.433594 424.164062 438.21875 440.460938 426.378906 L 468.398438 475.613281 L 435.976562 468.882812 " fill-opacity="1" fill-rule="nonzero"/></g></svg>