<svg xmlns="http://www.w3.org/2000/svg" xmlns:xlink="http://www.w3.org/1999/xlink" width="1000" zoomAndPan="magnify" viewBox="0 0 750 749.999995" height="1000" preserveAspectRatio="xMidYMid meet" version="1.0"><defs><clipPath id="f77028de03"><path d="M 226.855469 160.417969 L 425.339844 160.417969 L 425.339844 441.867188 L 226.855469 441.867188 Z M 226.855469 160.417969 " clip-rule="nonzero"/></clipPath><clipPath id="dfff5b3722"><path d="M 262.105469 160.417969 L 390.089844 160.417969 C 409.558594 160.417969 425.339844 176.203125 425.339844 195.667969 L 425.339844 406.316406 C 425.339844 425.78125 409.558594 441.566406 390.089844 441.566406 L 262.105469 441.566406 C 242.636719 441.566406 226.855469 425.78125 226.855469 406.316406 L 226.855469 195.667969 C 226.855469 176.203125 242.636719 160.417969 262.105469 160.417969 Z M 262.105469 160.417969 " clip-rule="nonzero"/></clipPath><clipPath id="4ce77cc2e6"><path d="M 394.710938 429.746094 L 598.699219 429.746094 L 598.699219 568.632812 L 394.710938 568.632812 Z M 394.710938 429.746094 " clip-rule="nonzero"/></clipPath><clipPath id="ca6f349fce"><path d="M 429.960938 429.746094 L 563.179688 429.746094 C 582.644531 429.746094 598.429688 445.527344 598.429688 464.996094 L 598.429688 533.382812 C 598.429688 552.851562 582.644531 568.632812 563.179688 568.632812 L 429.960938 568.632812 C 410.492188 568.632812 394.710938 552.851562 394.710938 533.382812 L 394.710938 464.996094 C 394.710938 445.527344 410.492188 429.746094 429.960938 429.746094 Z M 429.960938 429.746094 " clip-rule="nonzero"/></clipPath><clipPath id="c275d5f46c"><path d="M 415.925781 288.742188 L 609.546875 288.742188 L 609.546875 522.445312 L 415.925781 522.445312 Z M 415.925781 288.742188 " clip-rule="nonzero"/></clipPath><clipPath id="b0a02fdab8"><path d="M 451.175781 288.742188 L 574.296875 288.742188 C 593.761719 288.742188 609.546875 304.523438 609.546875 323.992188 L 609.546875 486.859375 C 609.546875 506.328125 593.761719 522.109375 574.296875 522.109375 L 451.175781 522.109375 C 431.707031 522.109375 415.925781 506.328125 415.925781 486.859375 L 415.925781 323.992188 C 415.925781 304.523438 431.707031 288.742188 451.175781 288.742188 Z M 451.175781 288.742188 " clip-rule="nonzero"/></clipPath><clipPath id="155bf1f5ed"><path d="M 140.453125 429.746094 L 425.785156 429.746094 L 425.785156 589.582031 L 140.453125 589.582031 Z M 140.453125 429.746094 " clip-rule="nonzero"/></clipPath><clipPath id="8ef2b7b9d7"><path d="M 175.703125 429.746094 L 390.089844 429.746094 C 409.558594 429.746094 425.339844 445.527344 425.339844 464.996094 L 425.339844 554.332031 C 425.339844 573.796875 409.558594 589.582031 390.089844 589.582031 L 175.703125 589.582031 C 156.238281 589.582031 140.453125 573.796875 140.453125 554.332031 L 140.453125 464.996094 C 140.453125 445.527344 156.238281 429.746094 175.703125 429.746094 Z M 175.703125 429.746094 " clip-rule="nonzero"/></clipPath><clipPath id="3199035356"><path d="M 229 270 L 604.855469 270 L 604.855469 558 L 229 558 Z M 229 270 " clip-rule="nonzero"/></clipPath></defs><g clip-path="url(#f77028de03)"><g clip-path="url(#dfff5b3722)"><path fill="#f87423" d="M 226.855469 160.417969 L 425.339844 160.417969 L 425.339844 441.867188 L 226.855469 441.867188 Z M 226.855469 160.417969 " fill-opacity="1" fill-rule="nonzero"/></g></g><g clip-path="url(#4ce77cc2e6)"><g clip-path="url(#ca6f349fce)"><path fill="#f87423" d="M 394.710938 429.746094 L 598.15625 429.746094 L 598.15625 568.632812 L 394.710938 568.632812 Z M 394.710938 429.746094 " fill-opacity="1" fill-rule="nonzero"/></g></g><g clip-path="url(#c275d5f46c)"><g clip-path="url(#b0a02fdab8)"><path fill="#545454" d="M 415.925781 288.742188 L 609.546875 288.742188 L 609.546875 522.445312 L 415.925781 522.445312 Z M 415.925781 288.742188 " fill-opacity="1" fill-rule="nonzero"/></g></g><g clip-path="url(#155bf1f5ed)"><g clip-path="url(#8ef2b7b9d7)"><path fill="#a6a6a6" d="M 140.453125 429.746094 L 425.160156 429.746094 L 425.160156 589.582031 L 140.453125 589.582031 Z M 140.453125 429.746094 " fill-opacity="1" fill-rule="nonzero"/></g></g><g clip-path="url(#3199035356)"><path fill="#060405" d="M 448.796875 456.742188 C 449.007812 457.195312 449.285156 457.578125 449.597656 457.960938 C 449.492188 457.820312 449.421875 457.683594 449.355469 457.507812 C 448.277344 455.25 449.25 452.570312 451.507812 451.527344 C 453.765625 450.449219 456.4375 451.421875 457.480469 453.683594 C 458.558594 455.945312 457.585938 458.621094 455.328125 459.664062 C 455.328125 459.664062 455.328125 459.664062 455.292969 459.664062 C 455.570312 459.59375 455.847656 459.492188 456.09375 459.351562 C 458.835938 458.066406 460.539062 453.925781 459.253906 451.179688 C 457.96875 448.433594 454.667969 447.25 451.957031 448.570312 C 449.214844 449.859375 447.476562 453.996094 448.796875 456.742188 Z M 430.179688 539.675781 L 430.25 539.605469 L 426.707031 530.808594 L 424.660156 523.402344 L 435.007812 530.324219 L 449.980469 541.378906 L 450.015625 541.3125 L 419.796875 517.5625 Z M 446.054688 470.410156 L 422.367188 500.625 L 444.457031 490.195312 L 439.140625 492.316406 L 428.480469 495.828125 L 438.691406 480.457031 Z M 470.296875 460.464844 C 470.195312 460.359375 470.054688 460.253906 469.949219 460.152344 C 469.949219 460.152344 470.089844 460.253906 470.296875 460.464844 Z M 428.722656 516.691406 L 446.921875 519.820312 L 446.921875 519.785156 L 422.367188 512.972656 L 450.359375 540.859375 L 450.429688 540.753906 L 440.289062 530.042969 Z M 379.957031 544.195312 L 402.847656 514.988281 L 381.902344 524.863281 L 398.226562 518.671875 L 388.085938 533.035156 Z M 379.539062 545.65625 L 379.574219 545.726562 L 393.226562 532.792969 L 405.136719 521.492188 L 402.742188 532.234375 L 400.554688 542.179688 L 400.625 542.214844 L 407.429688 517.628906 Z M 394.996094 475.9375 L 394.925781 475.972656 L 395.726562 477.921875 L 401.003906 492.558594 L 395.378906 489.082031 L 393.605469 487.796875 L 378.359375 476.5625 L 375.199219 474.234375 L 375.164062 474.269531 L 405.382812 498.019531 Z M 381.101562 496.382812 L 378.289062 495.757812 L 378.289062 495.792969 L 402.882812 502.644531 L 374.886719 474.722656 L 374.851562 474.753906 L 377.28125 477.292969 L 389.507812 490.230469 L 393.191406 494.125 L 397.53125 499.515625 L 390.792969 498.503906 Z M 401.039062 542.285156 L 401.109375 542.320312 L 405.972656 532.027344 L 410.105469 523.265625 L 411.390625 531.714844 L 415.386719 558 L 415.417969 558 L 410.695312 518.777344 Z M 415.976562 558 L 416.703125 531.402344 L 417.46875 523.195312 L 423.582031 530.984375 L 429.800781 539.953125 L 429.867188 539.917969 L 415.871094 517.492188 Z M 417.609375 326.066406 C 417.609375 326.101562 417.609375 326.101562 417.609375 326.101562 C 417.574219 326.101562 417.609375 326.101562 417.609375 326.066406 Z M 409.964844 314.070312 C 409.863281 313.828125 409.757812 313.585938 409.621094 313.375 C 409.027344 312.402344 408.160156 311.777344 407.222656 311.777344 C 406.25 311.777344 405.382812 312.402344 404.824219 313.375 C 404.6875 313.585938 404.582031 313.828125 404.480469 314.070312 C 404.445312 314.210938 404.375 314.3125 404.339844 314.453125 C 404.167969 314.976562 404.097656 315.566406 404.097656 316.191406 C 404.097656 316.816406 404.199219 317.375 404.339844 317.894531 C 404.410156 318.175781 404.511719 318.417969 404.617188 318.660156 C 405.171875 319.84375 406.144531 320.609375 407.222656 320.609375 C 407.328125 320.609375 407.394531 320.609375 407.464844 320.574219 C 406.144531 320.398438 405.105469 318.800781 405.105469 316.886719 C 405.105469 314.835938 406.285156 313.167969 407.707031 313.167969 C 409.0625 313.167969 410.175781 314.628906 410.3125 316.503906 C 410.3125 316.402344 410.3125 316.261719 410.3125 316.15625 C 410.3125 315.53125 410.210938 314.976562 410.070312 314.453125 C 410.070312 314.3125 410 314.175781 409.964844 314.070312 Z M 417.640625 325.929688 C 417.640625 325.964844 417.609375 326.03125 417.609375 326.066406 C 417.609375 326.03125 417.640625 325.996094 417.640625 325.929688 Z M 378.429688 341.019531 C 378.429688 341.019531 368.703125 356.808594 368.007812 373.148438 C 368.007812 373.148438 371.828125 358.058594 374.957031 360.144531 C 378.082031 362.230469 380.511719 365.1875 380.511719 365.1875 C 380.511719 365.1875 377.734375 349.746094 378.429688 341.019531 Z M 440.253906 340.429688 L 432.960938 353.15625 L 473.179688 354.824219 L 478.53125 342.652344 Z M 360.609375 449.476562 C 357.589844 449.476562 355.125 451.945312 355.125 454.96875 C 355.125 457.996094 358.25 461.296875 361.269531 461.296875 C 361.757812 461.296875 362.242188 461.230469 362.695312 461.089844 C 362.519531 461.089844 362.347656 461.125 362.175781 461.125 C 359.707031 461.125 357.691406 459.109375 357.691406 456.640625 C 357.691406 454.136719 359.707031 452.152344 362.175781 452.152344 C 364.640625 452.152344 366.65625 454.171875 366.65625 456.640625 C 366.65625 456.640625 366.65625 456.640625 366.65625 456.675781 C 366.6875 456.394531 366.722656 456.117188 366.722656 455.804688 C 366.792969 452.746094 363.667969 449.476562 360.609375 449.476562 Z M 471.824219 385.910156 C 465.992188 390.882812 469.359375 404.339844 469.324219 411.121094 C 475.230469 382.957031 494.507812 424.613281 494.507812 424.613281 C 492.664062 402.082031 478.460938 390.257812 471.824219 385.910156 Z M 273.222656 386.605469 C 266.726562 382.886719 265.617188 368.210938 263.742188 377.425781 C 261.761719 387.128906 265.09375 401.453125 265.09375 401.453125 L 273.429688 404.933594 C 271.171875 394.292969 282.011719 389.039062 282.84375 388.660156 C 282.460938 388.867188 279.265625 390.050781 273.222656 386.605469 Z M 532.121094 502.46875 C 528.789062 480.144531 513.054688 458.480469 509.511719 454.933594 C 508.679688 453.789062 508.539062 448.085938 508.398438 443.945312 C 508.226562 437.550781 508.019531 429.621094 506.210938 421.761719 C 499.890625 394.464844 483.425781 381.601562 472.9375 376.035156 L 477.800781 364.28125 L 482.765625 364.597656 L 493.847656 338.378906 L 487.214844 331.492188 L 489.75 327.007812 L 482.800781 279.296875 L 480.890625 278.566406 C 455.988281 268.867188 419.691406 270.117188 418.164062 270.152344 L 416.148438 270.222656 L 385.757812 328.292969 C 384.089844 328.570312 382.667969 329.230469 381.730469 329.71875 C 381.347656 329.71875 380.894531 329.789062 380.375 330.03125 L 372.210938 330.03125 C 369.191406 329.230469 365.714844 328.570312 361.828125 328.015625 C 350.433594 326.449219 339.457031 326.554688 339.007812 326.554688 L 338.695312 326.554688 L 338.417969 326.589844 C 299.273438 333.789062 270.859375 329.058594 270.582031 329.023438 L 270.132812 328.953125 L 269.679688 328.988281 C 253.773438 330.484375 239.324219 339.734375 232.898438 352.496094 C 226.855469 364.492188 228.105469 378.75 236.441406 392.585938 C 241.269531 400.585938 250.644531 403.921875 256.933594 405.28125 L 257.800781 407.992188 L 260.859375 409.210938 L 275.304688 414.980469 C 276.660156 418.703125 278.953125 424.855469 280.898438 428.578125 C 285.207031 436.820312 292.8125 442.207031 301.808594 443.390625 C 303.023438 443.566406 304.167969 443.632812 305.246094 443.632812 C 307.746094 443.632812 309.832031 443.183594 311.5 442.453125 C 312.851562 442.871094 314.414062 443.148438 316.117188 443.148438 C 316.535156 443.148438 316.984375 443.148438 317.4375 443.113281 C 317.992188 443.078125 318.515625 443.007812 319 442.902344 C 318.757812 449.023438 319 455.734375 319.589844 462.585938 C 318.0625 462.863281 317.125 462.96875 317.054688 462.96875 L 315.320312 463.175781 L 315.179688 464.914062 C 313.445312 489.222656 321.882812 511.511719 323.445312 515.40625 C 292.359375 521.769531 265.40625 529.765625 244.601562 538.703125 C 261.066406 533.765625 279.683594 529.175781 299.933594 525.140625 C 327.164062 519.683594 357.414062 515.195312 389.542969 511.996094 L 397.324219 512.65625 L 381.867188 524.273438 L 402.949219 511.09375 L 362.867188 511.199219 L 357.554688 511.199219 L 362.589844 510.570312 L 401.628906 505.878906 L 378.117188 496.246094 L 378.117188 496.28125 L 380.027344 497.183594 L 389.09375 501.496094 L 395.414062 504.519531 C 392.773438 504.800781 390.167969 505.078125 387.527344 505.355469 C 376.933594 506.539062 366.585938 507.929688 356.546875 509.457031 C 358.839844 506.261719 361.792969 501.425781 362.347656 497.289062 C 362.730469 494.296875 355.15625 503.546875 349.148438 504 C 343.105469 504.453125 354.253906 491.238281 345.222656 494.507812 C 337.722656 497.21875 338.277344 496.140625 340.363281 487.796875 C 342.445312 479.449219 342.445312 459.492188 340.117188 463.664062 C 339.980469 463.90625 339.875 464.183594 339.632812 464.359375 C 334.5625 468.078125 324.140625 470.269531 324.140625 470.269531 C 323.933594 490.230469 329.90625 508.761719 331.433594 513.144531 L 329.109375 513.25 C 327.128906 508 320.285156 488.246094 321.363281 467.140625 C 326.328125 466.375 339.25 463.351562 346.996094 454.96875 C 347.757812 459.664062 348.628906 464.464844 349.671875 469.433594 L 349.914062 470.652344 L 365.195312 475.207031 L 371.449219 471.488281 L 371.238281 471.277344 L 371.480469 471.488281 L 377.457031 467.941406 L 377.144531 466.480469 C 377.109375 466.269531 376.03125 461.265625 374.78125 453.023438 C 378.394531 456.742188 383.152344 459.664062 389.300781 460.1875 C 390.96875 460.324219 392.667969 460.429688 394.40625 460.464844 L 395.933594 465.921875 L 396.664062 468.601562 L 398.886719 476.632812 L 400.832031 483.621094 L 396.664062 477.605469 L 395.378906 475.765625 L 395.308594 475.800781 L 409.308594 498.226562 L 409.203125 457.648438 L 409.203125 456.046875 C 408.785156 456.082031 408.335938 456.117188 407.917969 456.117188 C 404.722656 454.726562 402.5 452.746094 400.34375 450.9375 C 400.3125 450.902344 400.277344 450.902344 400.242188 450.867188 L 399.199219 446.414062 L 396.59375 435.078125 L 395.863281 431.949219 C 396.941406 431.429688 397.878906 430.699219 398.609375 429.761719 C 406.527344 432.4375 414.03125 437.097656 416.636719 445.164062 L 413.40625 455.769531 C 412.15625 455.875 410.871094 455.945312 409.585938 456.046875 L 409.757812 457.648438 L 414.480469 496.976562 L 423.964844 473.746094 L 424.867188 471.554688 C 423.027344 473.398438 421.152344 475.382812 419.726562 477.292969 C 418.058594 479.554688 419.519531 479.03125 422.296875 477.292969 L 419.207031 483.796875 L 415.351562 490.230469 L 412.675781 476.425781 L 411.84375 470.792969 L 410.246094 460.152344 C 416.253906 459.769531 422.019531 459.144531 426.777344 458.515625 C 424.066406 460.011719 420.246094 461.992188 416.289062 463.699219 C 408.992188 466.828125 426.8125 464.496094 431.363281 463.453125 C 434.59375 462.722656 429.972656 466.515625 425.179688 471.242188 L 424.519531 473.609375 L 417.710938 498.089844 L 445.21875 470.445312 L 441.679688 473.78125 L 421.359375 491.726562 L 422.714844 481.746094 L 423.929688 476.25 C 428.863281 472.980469 436.050781 467.453125 438.621094 465.507812 L 438.550781 465.855469 L 451.265625 471.523438 L 463.558594 467.695312 L 463.835938 466.550781 C 465.019531 461.613281 465.957031 456.640625 466.617188 451.667969 C 467.101562 452.5 467.660156 453.300781 468.285156 454.101562 C 471.339844 457.925781 475.613281 460.429688 480.960938 461.578125 C 480.925781 462.792969 480.890625 464.394531 480.820312 466.203125 C 478.5625 473.851562 474.675781 485.742188 475.542969 500.382812 C 474.8125 500.382812 474.082031 500.382812 473.355469 500.382812 C 470.855469 482.753906 479.15625 465.089844 476.863281 464.671875 C 474.742188 464.289062 471.375 461.507812 470.261719 460.570312 C 476.828125 466.792969 455.675781 481.292969 460.921875 480.074219 C 465.433594 479.03125 466.929688 476.007812 470.125 474.859375 C 475.578125 472.878906 458.695312 492.558594 454.320312 495.550781 C 449.945312 498.539062 459.703125 497.808594 464.566406 499.199219 C 465.433594 499.445312 465.503906 499.894531 465.089844 500.453125 C 460.191406 500.523438 455.222656 500.660156 450.222656 500.835938 C 443.101562 501.078125 435.878906 501.425781 428.546875 501.878906 L 444.59375 490.648438 L 422.191406 504.660156 L 462.65625 504.554688 L 467.589844 504.554688 L 462.726562 505.148438 L 423.511719 509.875 L 447.027344 519.507812 L 447.0625 519.402344 L 430.425781 510.535156 L 444.003906 508 C 478.390625 506.328125 510.867188 506.503906 539.972656 508.171875 C 564.179688 509.5625 586.0625 512.066406 604.855469 515.507812 C 585.75 509.355469 560.882812 504.9375 532.121094 502.46875 Z M 431.398438 276.933594 C 443.65625 276.480469 456.195312 278.949219 463.734375 280.792969 C 465.332031 281.140625 466.929688 281.523438 468.492188 281.90625 C 471.269531 296.582031 467.378906 307.253906 458.003906 308.296875 C 446.992188 309.480469 434.246094 293.207031 429.207031 276.933594 C 430.492188 276.933594 431.363281 276.898438 431.398438 276.933594 Z M 363.667969 335.351562 C 367.246094 335.941406 370.542969 336.707031 373.289062 337.613281 C 368.253906 344.148438 360.820312 356.910156 356.859375 379.097656 C 354.707031 378.085938 352.554688 377.007812 350.574219 375.933594 C 351.128906 372.800781 351.71875 369.882812 352.308594 367.203125 C 356.128906 350.269531 361.339844 339.59375 363.667969 335.351562 Z M 359.257812 334.691406 C 356.582031 339.835938 351.894531 350.234375 348.316406 365.953125 C 347.933594 367.621094 347.550781 369.394531 347.203125 371.238281 C 347.066406 372.003906 346.890625 372.765625 346.753906 373.566406 C 346.613281 373.460938 346.472656 373.394531 346.371094 373.289062 C 346.230469 373.21875 346.128906 373.113281 345.988281 373.046875 C 345.882812 372.976562 345.746094 372.90625 345.640625 372.835938 C 347.238281 364.316406 351.546875 344.113281 358.421875 334.585938 C 358.699219 334.621094 358.976562 334.65625 359.257812 334.691406 Z M 254.8125 373.183594 C 248.386719 365.464844 253.527344 344.046875 247.589844 350.199219 C 231.820312 366.4375 239.738281 386.363281 252.625 394.046875 C 253.285156 394.464844 253.945312 394.707031 254.570312 394.882812 C 254.710938 395.855469 254.882812 396.761719 255.023438 397.628906 C 250.4375 396.238281 245.191406 393.664062 242.378906 389.007812 C 235.222656 377.113281 234.078125 365.570312 239.078125 355.660156 C 244.394531 345.089844 256.445312 337.402344 269.886719 335.976562 C 271.070312 336.152344 274.265625 336.636719 279.09375 337.019531 C 285.207031 337.75 300.382812 340.394531 306.738281 349.46875 C 307.019531 349.851562 307.296875 350.269531 307.539062 350.6875 C 307.539062 350.6875 306.878906 344.394531 301.390625 338.933594 C 300.941406 338.480469 300.417969 338.03125 299.898438 337.578125 C 306.113281 337.4375 313.097656 337.054688 320.773438 336.222656 L 319.972656 336.5 C 338.625 333.789062 340.988281 352.914062 341.160156 361.398438 C 341.195312 363.761719 341.054688 365.292969 341.054688 365.292969 C 342.964844 359.34375 343.660156 354.023438 343.695312 349.433594 C 343.765625 342.203125 342.132812 336.777344 340.8125 333.542969 C 342.515625 333.542969 344.25 333.578125 346.023438 333.648438 C 349.21875 334.449219 352.867188 336.847656 350.746094 344.113281 C 348.316406 352.460938 346.683594 362.890625 345.78125 369.707031 C 345.640625 370.820312 345.503906 371.828125 345.398438 372.734375 C 343.871094 371.6875 342.304688 370.855469 340.675781 370.195312 C 340.535156 369.117188 340.257812 368.871094 339.945312 369.917969 C 338.832031 369.5 337.6875 369.1875 336.507812 368.941406 C 337.132812 364.734375 337.132812 360.527344 335.464844 357.953125 C 335.464844 357.953125 335.8125 361.152344 335.289062 365.257812 C 335.152344 366.335938 334.941406 367.480469 334.664062 368.628906 C 334.316406 368.59375 333.9375 368.523438 333.589844 368.492188 C 333.519531 368.492188 333.414062 368.492188 333.34375 368.492188 C 333.101562 368.492188 332.894531 368.492188 332.652344 368.457031 C 332.269531 368.457031 331.921875 368.421875 331.539062 368.421875 C 331.332031 368.421875 331.085938 368.421875 330.878906 368.421875 C 330.082031 365.953125 329.039062 363.238281 327.578125 360.320312 C 324.976562 355 324.488281 354.582031 324.664062 356.839844 C 324.835938 359.066406 325.667969 363.832031 325.773438 369.046875 C 325.042969 369.21875 324.347656 369.394531 323.691406 369.566406 L 323.238281 369.152344 L 317.714844 363.867188 L 303.371094 350.199219 L 300.28125 347.246094 L 298.371094 345.402344 L 295.972656 345.332031 C 290.625 340.742188 285.726562 340.429688 283.433594 340.566406 C 282.566406 340.636719 282.078125 340.777344 282.078125 340.777344 C 285.273438 341.542969 288.054688 343.246094 290.449219 345.332031 C 277.078125 345.886719 267.074219 350.546875 260.789062 359.207031 C 260.199219 360.003906 259.675781 360.804688 259.191406 361.640625 C 257.035156 365.292969 255.648438 369.21875 254.8125 373.183594 Z M 326.640625 460.882812 C 325.914062 453.230469 325.496094 445.789062 325.667969 439.183594 C 326.015625 438.835938 326.328125 438.453125 326.640625 438.070312 C 327.265625 438.105469 327.890625 438.140625 328.585938 438.175781 C 328.273438 445.269531 328.203125 454.519531 329.386719 459.976562 C 328.449219 460.324219 327.511719 460.601562 326.640625 460.882812 Z M 338.730469 447.703125 C 334.804688 446 333.796875 442.105469 334.144531 437.722656 C 335.882812 437.234375 337.445312 436.367188 338.730469 435.183594 C 340.535156 436.089844 342.585938 436.851562 344.808594 437.269531 C 345.15625 440.921875 345.605469 444.710938 346.160156 448.570312 C 344.496094 447.980469 341.230469 448.78125 338.730469 447.703125 Z M 339.945312 427.917969 C 337.824219 426.351562 334.351562 420.996094 329.074219 411.957031 C 329.074219 411.957031 336.402344 425.378906 334.527344 429.445312 C 333.796875 430.488281 332.546875 431.394531 330.460938 431.394531 C 329.210938 431.394531 328.273438 431.394531 327.265625 431.152344 C 324.417969 430.488281 317.785156 423.640625 315.179688 418.5625 C 319.070312 426.910156 322.613281 431.359375 321.152344 433.757812 C 321.085938 433.863281 321.050781 433.933594 321.015625 434.035156 C 320.113281 435.113281 318.828125 436.019531 316.953125 436.15625 C 316.671875 436.191406 316.394531 436.191406 316.117188 436.191406 C 315.109375 436.191406 314.277344 436.054688 313.582031 435.84375 C 312.75 435.460938 311.84375 434.800781 310.804688 433.933594 C 310.734375 433.828125 310.699219 433.757812 310.699219 433.757812 C 310.699219 433.757812 310.699219 433.792969 310.699219 433.828125 C 308.269531 431.742188 305.109375 428.4375 300.695312 423.988281 C 300.695312 423.988281 308.996094 432.992188 308.128906 435.984375 C 307.746094 437.339844 303.648438 437.375 302.710938 437.234375 C 297.328125 436.539062 293.296875 433.65625 290.449219 430.316406 C 287.566406 426.039062 285.65625 421.9375 284.441406 418.078125 C 279.230469 401.28125 287.566406 389.390625 287.566406 389.390625 C 283.46875 391.40625 281.210938 393.003906 279.996094 394.152344 C 279.996094 394.117188 280.03125 394.082031 280.03125 394.046875 C 280.03125 394.046875 274.089844 399.125 275.410156 407.539062 L 263.496094 402.777344 C 263.496094 402.777344 263.496094 402.742188 263.460938 402.671875 C 263.460938 402.671875 263.460938 402.671875 263.460938 402.636719 C 263.21875 401.871094 262.144531 398.152344 261.414062 393.039062 C 261.308594 392.414062 261.238281 391.753906 261.171875 391.09375 C 261.136719 390.746094 261.101562 390.433594 261.066406 390.085938 C 261.066406 390.085938 261.066406 390.085938 261.066406 390.050781 C 261.03125 389.703125 260.996094 389.355469 260.960938 389.007812 L 260.960938 388.972656 C 260.925781 388.625 260.890625 388.277344 260.890625 387.929688 C 260.890625 387.929688 260.890625 387.894531 260.890625 387.894531 C 260.859375 387.546875 260.859375 387.199219 260.824219 386.851562 C 260.824219 386.851562 260.824219 386.816406 260.824219 386.816406 C 260.789062 386.46875 260.789062 386.121094 260.789062 385.738281 C 260.789062 385.738281 260.789062 385.703125 260.789062 385.703125 C 260.789062 385.355469 260.789062 384.972656 260.753906 384.625 C 260.753906 384.589844 260.753906 384.589844 260.753906 384.554688 C 260.753906 384.207031 260.753906 383.824219 260.753906 383.476562 C 260.753906 383.441406 260.753906 383.441406 260.753906 383.40625 C 260.753906 383.058594 260.753906 382.675781 260.789062 382.328125 C 260.789062 382.296875 260.789062 382.296875 260.789062 382.261719 C 260.789062 381.914062 260.824219 381.53125 260.859375 381.183594 C 260.859375 381.148438 260.859375 381.113281 260.859375 381.113281 C 260.890625 380.765625 260.890625 380.382812 260.925781 380.035156 C 260.925781 380 260.925781 379.964844 260.925781 379.929688 C 260.960938 379.582031 260.996094 379.199219 261.03125 378.851562 C 261.03125 378.816406 261.03125 378.78125 261.03125 378.75 C 261.066406 378.402344 261.101562 378.019531 261.171875 377.671875 C 261.171875 377.636719 261.171875 377.601562 261.171875 377.566406 C 261.203125 377.21875 261.273438 376.871094 261.34375 376.488281 C 261.34375 376.453125 261.34375 376.417969 261.378906 376.382812 C 261.449219 376.035156 261.484375 375.6875 261.585938 375.339844 C 261.585938 375.304688 261.621094 375.269531 261.621094 375.203125 C 261.691406 374.855469 261.761719 374.507812 261.863281 374.160156 C 261.863281 374.125 261.898438 374.054688 261.898438 374.019531 C 261.96875 373.671875 262.074219 373.324219 262.144531 372.976562 C 262.144531 372.941406 262.175781 372.871094 262.175781 372.835938 C 262.28125 372.488281 262.351562 372.140625 262.457031 371.828125 C 262.457031 371.792969 262.488281 371.722656 262.488281 371.6875 C 262.59375 371.339844 262.699219 371.027344 262.800781 370.679688 C 262.835938 370.644531 262.835938 370.578125 262.871094 370.507812 C 262.976562 370.195312 263.113281 369.847656 263.21875 369.535156 C 263.253906 369.5 263.253906 369.429688 263.289062 369.359375 C 263.425781 369.046875 263.566406 368.734375 263.707031 368.386719 C 263.742188 368.316406 263.742188 368.28125 263.773438 368.210938 C 263.914062 367.898438 264.054688 367.585938 264.226562 367.273438 C 264.261719 367.203125 264.296875 367.167969 264.296875 367.097656 C 264.433594 366.785156 264.609375 366.472656 264.78125 366.195312 C 264.816406 366.125 264.851562 366.089844 264.886719 366.019531 C 265.058594 365.707031 265.234375 365.429688 265.40625 365.152344 C 265.441406 365.082031 265.476562 365.046875 265.511719 364.976562 C 265.683594 364.699219 265.859375 364.421875 266.066406 364.109375 C 266.101562 364.039062 266.136719 364.003906 266.171875 363.933594 C 266.378906 363.65625 266.554688 363.378906 266.761719 363.101562 C 266.796875 363.03125 266.867188 362.996094 266.902344 362.925781 C 267.109375 362.648438 267.316406 362.40625 267.527344 362.125 C 267.59375 362.058594 267.628906 361.988281 267.664062 361.953125 C 267.875 361.710938 268.117188 361.429688 268.324219 361.1875 C 268.394531 361.117188 268.429688 361.082031 268.5 361.015625 C 268.742188 360.769531 268.984375 360.527344 269.226562 360.285156 C 269.296875 360.214844 269.367188 360.179688 269.4375 360.109375 C 269.679688 359.867188 269.921875 359.65625 270.199219 359.414062 C 270.269531 359.34375 270.339844 359.308594 270.410156 359.242188 C 270.6875 359.03125 270.929688 358.789062 271.207031 358.578125 C 271.277344 358.511719 271.382812 358.476562 271.449219 358.40625 C 271.730469 358.199219 272.007812 357.988281 272.285156 357.78125 C 272.390625 357.710938 272.457031 357.675781 272.5625 357.605469 C 272.839844 357.398438 273.152344 357.222656 273.464844 357.015625 C 273.570312 356.945312 273.675781 356.910156 273.742188 356.839844 C 274.054688 356.667969 274.367188 356.492188 274.679688 356.320312 C 274.785156 356.25 274.890625 356.214844 274.992188 356.144531 C 275.304688 355.972656 275.652344 355.796875 275.964844 355.660156 C 276.070312 355.625 276.210938 355.554688 276.3125 355.519531 C 276.660156 355.382812 276.972656 355.207031 277.355469 355.066406 C 277.496094 355.035156 277.597656 354.964844 277.738281 354.929688 C 278.085938 354.789062 278.433594 354.652344 278.816406 354.511719 C 278.953125 354.476562 279.09375 354.40625 279.230469 354.371094 C 279.613281 354.234375 279.960938 354.128906 280.34375 354.023438 C 280.480469 353.988281 280.65625 353.957031 280.792969 353.886719 C 281.175781 353.78125 281.558594 353.675781 281.941406 353.574219 C 282.113281 353.539062 282.289062 353.503906 282.425781 353.46875 C 282.808594 353.363281 283.191406 353.292969 283.609375 353.191406 C 283.78125 353.15625 283.988281 353.121094 284.164062 353.085938 C 284.546875 353.015625 284.960938 352.945312 285.378906 352.878906 C 285.585938 352.84375 285.796875 352.808594 286.003906 352.808594 C 286.421875 352.738281 286.804688 352.703125 287.21875 352.632812 C 287.464844 352.597656 287.707031 352.597656 287.949219 352.5625 C 288.367188 352.53125 288.75 352.496094 289.164062 352.460938 C 289.476562 352.425781 289.789062 352.425781 290.066406 352.425781 C 290.449219 352.390625 290.796875 352.390625 291.179688 352.355469 C 291.734375 352.320312 292.289062 352.320312 292.882812 352.320312 C 293.019531 352.320312 293.160156 352.320312 293.332031 352.320312 C 294.0625 352.320312 294.792969 352.320312 295.554688 352.355469 L 316.082031 372.835938 C 314.519531 374.054688 312.886719 375.898438 311.949219 378.714844 C 311.949219 378.714844 317.195312 376.765625 323.308594 375.863281 C 325.289062 375.6875 327.753906 375.515625 330.113281 375.445312 C 330.289062 375.445312 330.460938 375.445312 330.636719 375.480469 L 330.566406 375.445312 C 330.914062 375.445312 331.261719 375.445312 331.609375 375.445312 C 334.316406 375.445312 337.375 376.035156 340.464844 377.808594 C 340.640625 377.914062 340.777344 377.984375 340.917969 378.085938 C 341.019531 378.15625 341.125 378.226562 341.230469 378.261719 C 341.507812 378.433594 341.785156 378.609375 342.027344 378.816406 C 349.011719 383.789062 360.957031 388.414062 367.175781 391.542969 C 369.640625 392.796875 371.203125 393.769531 371.203125 394.464844 C 371.203125 396.238281 365.960938 402.742188 354.742188 402.742188 C 353.039062 402.742188 351.199219 402.566406 349.253906 402.253906 C 344.945312 396.828125 337.445312 392.691406 334.316406 391.128906 C 333.414062 390.675781 332.859375 390.433594 332.859375 390.433594 C 335.464844 391.960938 338.519531 396.691406 340.917969 400.96875 C 340.917969 400.96875 340.917969 400.96875 340.917969 401.003906 C 341.019531 401.175781 341.089844 401.351562 341.195312 401.558594 C 341.230469 401.59375 341.230469 401.664062 341.265625 401.734375 C 341.367188 401.941406 341.472656 402.148438 341.613281 402.394531 C 341.613281 402.394531 341.613281 402.429688 341.648438 402.429688 C 341.925781 402.949219 342.238281 403.574219 342.550781 404.203125 C 342.550781 404.203125 342.550781 404.238281 342.585938 404.238281 C 342.792969 404.6875 343.035156 405.140625 343.277344 405.628906 C 343.417969 405.871094 343.523438 406.113281 343.625 406.324219 C 343.625 406.324219 343.660156 406.359375 343.660156 406.394531 C 344.007812 407.089844 344.390625 407.816406 344.773438 408.582031 C 344.773438 408.617188 344.808594 408.617188 344.808594 408.617188 C 344.945312 408.929688 345.121094 409.210938 345.257812 409.523438 C 345.257812 409.523438 345.257812 409.523438 345.257812 409.558594 C 345.398438 409.835938 345.535156 410.113281 345.675781 410.390625 C 345.710938 410.425781 345.710938 410.460938 345.746094 410.496094 C 345.882812 410.738281 346.023438 411.015625 346.128906 411.261719 C 346.160156 411.296875 346.160156 411.363281 346.195312 411.398438 C 346.335938 411.644531 346.441406 411.886719 346.578125 412.09375 C 346.613281 412.164062 346.648438 412.234375 346.683594 412.304688 C 346.789062 412.511719 346.890625 412.722656 347.03125 412.929688 C 347.066406 413 347.101562 413.105469 347.167969 413.171875 C 347.273438 413.382812 347.378906 413.554688 347.480469 413.765625 C 347.515625 413.832031 347.585938 413.9375 347.621094 414.007812 C 347.726562 414.183594 347.792969 414.355469 347.898438 414.53125 C 347.933594 414.632812 348.003906 414.738281 348.039062 414.808594 C 348.140625 414.980469 348.210938 415.121094 348.28125 415.292969 C 348.316406 415.398438 348.386719 415.46875 348.417969 415.574219 C 348.453125 415.640625 348.523438 415.746094 348.558594 415.816406 C 348.59375 415.886719 348.628906 415.957031 348.664062 416.023438 C 348.699219 416.128906 348.765625 416.199219 348.800781 416.304688 C 348.871094 416.441406 348.941406 416.546875 349.011719 416.683594 C 349.042969 416.789062 349.113281 416.894531 349.183594 416.964844 C 349.253906 417.066406 349.324219 417.207031 349.355469 417.3125 C 349.390625 417.414062 349.460938 417.484375 349.496094 417.589844 C 349.566406 417.695312 349.601562 417.796875 349.671875 417.902344 C 349.703125 417.972656 349.773438 418.078125 349.808594 418.144531 C 349.84375 418.25 349.914062 418.320312 349.949219 418.390625 C 349.984375 418.457031 350.015625 418.527344 350.085938 418.597656 C 350.121094 418.667969 350.191406 418.773438 350.226562 418.839844 C 350.261719 418.875 350.296875 418.945312 350.328125 419.015625 C 350.363281 419.085938 350.433594 419.152344 350.46875 419.222656 C 350.503906 419.257812 350.503906 419.292969 350.539062 419.328125 C 350.574219 419.363281 350.609375 419.433594 350.640625 419.46875 C 350.640625 419.5 350.675781 419.535156 350.710938 419.535156 C 351.71875 420.789062 354.464844 420.960938 355.957031 420.960938 C 356.546875 420.960938 356.964844 420.925781 356.964844 420.925781 C 356.964844 420.925781 360.089844 427.882812 351.753906 430.316406 C 350.675781 430.628906 349.636719 430.769531 348.59375 430.769531 C 345.292969 430.664062 342.273438 429.34375 339.945312 427.917969 Z M 364.710938 470.652344 L 353.558594 467.3125 C 352.832031 463.800781 352.207031 460.359375 351.648438 456.988281 C 350.503906 450.242188 349.636719 443.773438 349.011719 437.582031 C 350.574219 437.550781 352.136719 437.304688 353.628906 436.886719 C 359.429688 435.183594 362.070312 431.777344 363.25 429.238281 C 364.640625 426.214844 364.742188 424.09375 364.464844 422.667969 C 365.265625 423.015625 366.097656 423.363281 366.898438 423.710938 C 367 423.746094 367.105469 423.8125 367.246094 423.847656 C 368.878906 444.609375 371.898438 460.984375 372.871094 465.820312 Z M 374.957031 435.082031 C 373.84375 442.382812 381.382812 450.761719 386.277344 455.316406 C 380.476562 453.613281 376.378906 449.023438 373.636719 444.46875 C 372.90625 438.941406 372.175781 432.609375 371.621094 425.726562 C 371.898438 425.832031 372.175781 425.96875 372.453125 426.074219 L 372.386719 426.214844 L 372.765625 426.179688 C 377.5625 428.230469 381.902344 430.109375 384.855469 431.324219 C 385.480469 431.566406 386.070312 431.8125 386.660156 431.984375 L 388.847656 439.84375 L 391.628906 449.929688 L 392.289062 452.363281 C 382.386719 445.6875 374.957031 435.082031 374.957031 435.082031 Z M 409.0625 460.152344 L 408.785156 472.148438 L 408.542969 481.847656 L 408.4375 486.089844 L 407.742188 483.101562 L 405.554688 473.609375 L 402.5 460.429688 C 404.6875 460.394531 406.910156 460.289062 409.0625 460.152344 Z M 406.390625 491.445312 L 406.007812 490.890625 L 390.273438 432.75 C 390.65625 432.785156 391.070312 432.820312 391.453125 432.820312 C 391.871094 432.820312 392.289062 432.785156 392.667969 432.75 Z M 395.96875 427.464844 C 394.71875 429.167969 391.417969 430.386719 386.140625 428.160156 C 380.304688 425.691406 368.703125 420.683594 359.5 416.71875 C 359.5 416.71875 359.429688 416.683594 359.359375 416.652344 C 357.660156 415.921875 356.0625 415.226562 354.566406 414.597656 C 354.359375 413.730469 354.117188 412.722656 353.871094 411.816406 C 353.628906 410.914062 353.351562 410.113281 353.074219 409.558594 C 353.59375 409.589844 354.117188 409.589844 354.671875 409.589844 C 359.464844 409.589844 363.632812 408.617188 367.070312 407.089844 C 379.226562 411.46875 391.523438 416.582031 394.441406 420.058594 C 394.789062 420.476562 395.101562 420.894531 395.378906 421.308594 C 396.871094 423.640625 397.117188 425.898438 395.96875 427.464844 Z M 380.027344 408.339844 C 377.144531 407.15625 374.121094 405.976562 371.136719 404.863281 C 372.109375 404.203125 372.976562 403.472656 373.738281 402.742188 C 375.648438 403.574219 377.527344 404.410156 379.367188 405.246094 L 379.191406 405.347656 Z M 383.328125 407.191406 C 384.195312 407.121094 385.480469 407.402344 387.042969 408.863281 L 387.738281 411.78125 C 386.589844 411.226562 385.375 410.667969 384.089844 410.078125 Z M 400.34375 424.40625 C 400.277344 424.472656 400.242188 424.542969 400.171875 424.613281 C 400.03125 422.386719 398.992188 420.058594 397.117188 417.832031 C 396.074219 416.617188 394.199219 415.292969 391.800781 413.902344 L 391.175781 411.121094 C 395.136719 413.3125 398.121094 415.328125 399.304688 416.929688 C 401.386719 419.78125 401.804688 422.632812 400.34375 424.40625 Z M 412.710938 433.375 C 412.433594 433.097656 412.15625 432.785156 411.875 432.507812 C 409.304688 429.933594 406.320312 427.882812 403.261719 426.28125 C 403.296875 426.246094 403.332031 426.179688 403.367188 426.109375 C 403.75 425.550781 404.0625 424.925781 404.269531 424.265625 C 404.546875 423.394531 404.6875 422.492188 404.652344 421.519531 C 404.617188 420.648438 404.445312 419.746094 404.167969 418.839844 C 408.925781 422.945312 413.195312 426.664062 415.59375 434.800781 C 415.59375 429.238281 410.558594 419.085938 410.558594 419.085938 C 404.652344 417.695312 391.453125 403.921875 391.453125 403.921875 C 392.53125 405.941406 393.640625 407.679688 394.789062 409.242188 C 393.261719 408.339844 391.523438 407.367188 389.71875 406.425781 C 389.578125 406.359375 389.40625 406.253906 389.265625 406.183594 C 387.5625 404.652344 385.898438 403.992188 384.4375 403.785156 C 381.730469 402.496094 378.914062 401.210938 376.101562 399.960938 C 377.386719 398.046875 378.046875 396.132812 378.046875 394.359375 C 378.046875 389.355469 373.425781 386.917969 371.238281 385.738281 C 371.03125 385.632812 370.824219 385.527344 370.613281 385.425781 C 370.613281 385.355469 370.613281 385.285156 370.613281 385.214844 C 370.578125 385.25 370.542969 385.320312 370.511719 385.355469 C 368.496094 384.347656 366.0625 383.234375 363.285156 381.980469 C 363.078125 381.878906 362.832031 381.773438 362.589844 381.667969 C 363.738281 372.699219 365.542969 363.101562 368.945312 356.042969 C 373.53125 346.480469 377.421875 340.359375 379.679688 337.230469 L 384.714844 379.546875 C 384.75 379.964844 385.863281 389.910156 391.941406 400.097656 C 395.550781 406.148438 401.351562 412.964844 410.558594 417.347656 C 418.789062 426.699219 417.886719 441.164062 417.886719 441.164062 C 417.886719 441.128906 417.851562 441.097656 417.816406 441.027344 C 417.609375 440.539062 417.398438 440.085938 417.15625 439.636719 C 415.90625 437.304688 414.414062 435.21875 412.710938 433.375 Z M 436.191406 452.746094 C 435.738281 452.847656 435.21875 452.917969 434.628906 453.023438 C 432.472656 453.40625 429.488281 453.855469 426.011719 454.34375 C 422.332031 454.832031 418.09375 455.316406 413.613281 455.664062 C 414.933594 454.207031 421.183594 447.738281 430.945312 441.792969 C 429.488281 445.582031 427.578125 451.25 430.875 447.945312 C 433.585938 445.234375 437.371094 440.121094 441.191406 436.539062 C 442.128906 436.15625 443.101562 435.742188 444.074219 435.394531 C 443.277344 440.957031 442.40625 446.136719 441.644531 450.484375 C 440.253906 451.527344 438.449219 452.328125 436.191406 452.746094 Z M 421.808594 442.554688 C 421.808594 442.554688 421.808594 442.519531 421.808594 442.519531 C 421.949219 441.824219 423.859375 432.019531 429.175781 421.867188 C 429.488281 421.867188 429.765625 421.902344 430.078125 421.902344 C 431.429688 421.9375 432.75 421.972656 434 421.972656 C 435.113281 421.972656 436.191406 421.9375 437.265625 421.902344 C 443.378906 421.691406 448.417969 420.894531 452.375 419.46875 C 453.589844 422.457031 454.632812 425.273438 455.152344 427.324219 C 439.421875 428.300781 428.269531 436.226562 421.808594 442.554688 Z M 461.199219 459.144531 C 460.851562 460.882812 460.503906 462.585938 460.085938 464.324219 L 451.542969 467 L 443.378906 463.386719 C 444.316406 459.109375 446.679688 447.632812 448.554688 433.96875 C 448.625 433.96875 448.660156 433.933594 448.695312 433.933594 C 453.453125 432.542969 458.59375 431.601562 464.046875 431.394531 C 463.835938 440.296875 462.96875 449.753906 461.199219 459.144531 Z M 464.117188 427.707031 C 462.484375 422.910156 461.09375 418.738281 459.773438 414.945312 C 460.640625 414.042969 461.40625 413.070312 461.996094 411.992188 C 462.726562 410.636719 463.144531 409.242188 463.386719 407.851562 C 463.871094 414.007812 464.183594 420.683594 464.117188 427.707031 Z M 455.433594 401.039062 C 455.328125 401.105469 455.222656 401.210938 455.152344 401.28125 L 455.710938 401.523438 C 456.300781 402.984375 456.785156 404.828125 456.542969 406.636719 C 456.507812 406.984375 456.4375 407.332031 456.300781 407.679688 C 456.160156 408.027344 456.058594 408.339844 455.882812 408.6875 C 455.675781 409.070312 455.363281 409.523438 454.945312 409.972656 C 452.585938 412.476562 446.367188 415.46875 430.320312 414.945312 C 395.796875 413.800781 391.765625 380.277344 391.59375 378.816406 L 388.121094 349.746094 L 386.382812 335.316406 C 386.800781 335.210938 387.214844 335.144531 387.597656 335.179688 L 389.683594 335.351562 L 399.058594 384.171875 L 399.304688 383.789062 C 400.726562 386.988281 403.957031 400.410156 427.507812 405 C 428.203125 405.140625 428.863281 405.246094 429.519531 405.347656 C 429.695312 405.382812 429.832031 405.382812 429.972656 405.417969 C 430.632812 405.523438 431.257812 405.628906 431.882812 405.695312 C 431.917969 405.695312 431.988281 405.695312 432.023438 405.695312 C 432.613281 405.765625 433.167969 405.835938 433.722656 405.871094 C 433.863281 405.871094 434 405.90625 434.140625 405.90625 C 434.730469 405.941406 435.285156 406.011719 435.84375 406.042969 C 435.914062 406.042969 435.980469 406.042969 436.050781 406.042969 C 436.539062 406.078125 437.023438 406.078125 437.511719 406.078125 C 437.613281 406.078125 437.753906 406.078125 437.855469 406.078125 C 438.378906 406.078125 438.898438 406.078125 439.386719 406.078125 C 439.453125 406.078125 439.558594 406.078125 439.628906 406.078125 C 440.082031 406.078125 440.496094 406.042969 440.949219 406.011719 C 441.050781 406.011719 441.121094 406.011719 441.226562 406.011719 C 441.710938 405.976562 442.164062 405.941406 442.617188 405.871094 C 442.683594 405.871094 442.753906 405.871094 442.824219 405.835938 C 443.242188 405.800781 443.621094 405.730469 444.003906 405.664062 C 444.074219 405.664062 444.144531 405.664062 444.214844 405.628906 C 444.628906 405.558594 445.046875 405.488281 445.464844 405.417969 C 445.535156 405.417969 445.566406 405.382812 445.636719 405.382812 C 446.019531 405.316406 446.402344 405.210938 446.75 405.140625 C 446.785156 405.140625 446.816406 405.140625 446.851562 405.105469 C 447.234375 405 447.617188 404.898438 447.964844 404.792969 C 448 404.792969 448.035156 404.757812 448.101562 404.757812 C 448.832031 404.550781 449.527344 404.304688 450.152344 404.0625 C 450.1875 404.0625 450.1875 404.027344 450.222656 404.027344 C 450.882812 403.785156 451.472656 403.507812 452.027344 403.226562 L 461.753906 379.792969 C 459.53125 380.523438 456.753906 381.042969 453.277344 381.183594 L 445.5 400.203125 C 445.5 400.203125 444.734375 400.375 443.378906 400.585938 L 451.160156 381.21875 C 450.359375 381.21875 449.5625 381.148438 448.761719 381.042969 L 441.332031 400.863281 C 432.195312 401.90625 410.417969 402.253906 399.304688 383.6875 L 417.640625 352.078125 L 418.859375 350.199219 L 419.03125 350.410156 L 418.894531 350.234375 L 423.582031 358.300781 L 437.128906 334.65625 L 424.449219 353.816406 L 418.894531 343.558594 L 399.511719 380.242188 C 399.339844 379.097656 394.648438 347.835938 395.550781 324.539062 L 395.898438 323.875 C 397.949219 331.457031 402.882812 342.621094 413.058594 334.691406 C 415.074219 333.089844 416.183594 330.066406 417.15625 326.972656 C 413.472656 334.898438 401.875 342.585938 397.808594 320.261719 L 413.683594 289.902344 C 420.628906 313.480469 418.058594 324.398438 417.644531 325.894531 C 421.253906 314.765625 419.34375 299.363281 417.363281 289.417969 C 421.53125 296.613281 429.867188 311.394531 434.835938 323.738281 C 434.835938 323.738281 433.933594 320.851562 432.578125 316.46875 L 420.28125 277.316406 L 420.421875 277.074219 C 420.492188 277.074219 420.558594 277.074219 420.628906 277.074219 C 421.671875 277.074219 425.179688 277.003906 427.921875 276.933594 C 427.957031 277.039062 427.992188 277.175781 428.027344 277.28125 C 432.890625 295.503906 447.722656 314.523438 460.710938 312.992188 C 471.617188 311.742188 476.097656 299.535156 472.660156 283.019531 C 473.285156 283.191406 473.910156 283.402344 474.328125 283.503906 C 474.328125 283.503906 474.363281 283.503906 474.363281 283.503906 C 474.640625 283.574219 474.8125 283.644531 474.847656 283.644531 C 474.847656 283.644531 474.847656 283.644531 474.847656 283.679688 C 475.4375 283.851562 475.992188 284.0625 476.550781 284.269531 L 481.898438 320.921875 C 445.429688 319.320312 434.871094 323.703125 434.871094 323.703125 C 438.066406 323.460938 441.191406 323.320312 444.214844 323.214844 C 461.300781 322.800781 475.472656 324.746094 482.386719 325.929688 L 479.640625 330.796875 L 432.472656 327.421875 L 437.199219 334.585938 L 483.703125 337.367188 L 486.933594 337.578125 L 478.355469 357.15625 L 478.320312 357.257812 L 476.863281 360.5625 L 423.617188 358.300781 L 467 362.40625 L 466.128906 364.664062 L 412.363281 362.855469 C 412.363281 362.855469 419.484375 378.019531 448.207031 379.410156 C 450.359375 379.511719 452.304688 379.511719 454.113281 379.410156 C 454.460938 379.375 454.808594 379.375 455.121094 379.339844 C 455.433594 379.304688 455.78125 379.269531 456.09375 379.234375 C 456.09375 379.234375 456.09375 379.234375 456.125 379.234375 C 456.4375 379.199219 456.753906 379.164062 457.03125 379.128906 C 457.03125 379.128906 457.03125 379.128906 457.066406 379.128906 C 457.34375 379.097656 457.65625 379.0625 457.933594 378.992188 C 457.933594 378.992188 457.96875 378.992188 457.96875 378.992188 C 458.246094 378.957031 458.523438 378.886719 458.765625 378.851562 C 458.765625 378.851562 458.800781 378.851562 458.800781 378.851562 C 459.078125 378.816406 459.320312 378.75 459.566406 378.679688 C 459.566406 378.679688 459.601562 378.679688 459.601562 378.679688 C 459.84375 378.609375 460.085938 378.574219 460.328125 378.503906 C 460.328125 378.503906 460.363281 378.503906 460.363281 378.503906 C 460.605469 378.433594 460.816406 378.367188 461.058594 378.332031 C 461.058594 378.332031 461.09375 378.332031 461.09375 378.332031 C 461.335938 378.261719 461.546875 378.191406 461.753906 378.121094 C 461.753906 378.121094 461.789062 378.121094 461.789062 378.121094 C 461.996094 378.054688 462.203125 377.984375 462.414062 377.914062 C 462.414062 377.914062 462.449219 377.914062 462.449219 377.914062 C 462.65625 377.84375 462.863281 377.773438 463.039062 377.671875 C 463.039062 377.671875 463.074219 377.671875 463.074219 377.671875 C 463.28125 377.601562 463.457031 377.496094 463.628906 377.425781 C 463.628906 377.425781 463.664062 377.425781 463.664062 377.425781 C 463.835938 377.355469 464.011719 377.253906 464.21875 377.183594 C 464.21875 377.183594 464.21875 377.183594 464.253906 377.183594 C 464.429688 377.078125 464.601562 377.007812 464.773438 376.90625 C 464.949219 376.800781 465.121094 376.730469 465.261719 376.628906 C 465.433594 376.523438 465.574219 376.417969 465.746094 376.3125 Z M 519.6875 501.566406 C 514.445312 501.21875 509.058594 500.972656 503.605469 500.765625 C 499.125 500.59375 494.609375 500.488281 489.992188 500.382812 C 488.394531 500.347656 486.796875 500.347656 485.199219 500.3125 C 483.566406 494.75 483.148438 487.691406 488.601562 482.648438 C 487.179688 483.902344 483.808594 487.101562 481.132812 490.960938 C 481.65625 486.925781 482.316406 482.613281 483.046875 478.441406 C 487.003906 462.132812 493.984375 461.089844 492.386719 436.054688 C 492.386719 436.054688 489.574219 445.71875 485.71875 452.847656 C 486.066406 443.425781 485.058594 427.707031 476.863281 414.25 C 476.863281 414.25 488.117188 455.386719 475.300781 454.726562 C 472.035156 452.605469 470.054688 449.683594 468.875 446.796875 C 468.25 445.304688 467.867188 443.808594 467.589844 442.453125 C 469.152344 423.605469 467.65625 405.730469 465.886719 393.039062 L 470.226562 382.574219 C 475.160156 385.285156 481.550781 389.839844 487.28125 397.179688 C 487.109375 397.074219 486.96875 396.96875 486.796875 396.898438 C 486.796875 396.898438 501.035156 415.921875 498.292969 436.4375 C 498.1875 437.167969 498.085938 437.898438 497.945312 438.660156 C 497.945312 438.660156 499.578125 437.203125 500.898438 433.339844 C 501.246094 437.203125 501.347656 440.957031 501.417969 444.226562 C 501.453125 445.859375 501.488281 447.390625 501.558594 448.78125 C 501.628906 450.03125 501.695312 451.179688 501.800781 452.257812 C 501.835938 455.109375 501.800781 458.167969 501.695312 461.054688 C 501.523438 464.601562 501.175781 467.871094 500.480469 469.992188 C 500.480469 469.992188 500.96875 469.4375 501.730469 468.148438 C 502.601562 466.652344 503.816406 464.21875 504.996094 460.5 C 508.367188 464.53125 522.257812 484.597656 526.808594 502.15625 C 524.515625 501.878906 522.121094 501.703125 519.6875 501.566406 Z M 489.019531 482.300781 C 489.125 482.230469 489.191406 482.128906 489.296875 482.058594 C 489.296875 482.058594 489.191406 482.164062 489.019531 482.300781 Z M 488.636719 482.648438 C 488.777344 482.542969 488.878906 482.40625 489.019531 482.300781 C 488.914062 482.40625 488.777344 482.511719 488.636719 482.648438 Z M 488.636719 482.648438 " fill-opacity="1" fill-rule="nonzero"/></g></svg>