<svg xmlns="http://www.w3.org/2000/svg" xmlns:xlink="http://www.w3.org/1999/xlink" width="1000" zoomAndPan="magnify" viewBox="0 0 750 749.999995" height="1000" preserveAspectRatio="xMidYMid meet" version="1.0"><path fill="#fd6916" d="M 403.125 496.875 L 337.5 496.875 C 334.921875 496.875 332.8125 498.984375 332.8125 501.5625 C 332.8125 504.140625 334.921875 506.25 337.5 506.25 L 403.125 506.25 C 405.703125 506.25 407.8125 504.140625 407.8125 501.5625 C 407.8125 498.984375 405.703125 496.875 403.125 496.875 Z M 403.125 496.875 " fill-opacity="1" fill-rule="nonzero"/><path fill="#fd6916" d="M 393.75 515.625 L 346.875 515.625 C 344.296875 515.625 342.1875 517.734375 342.1875 520.3125 C 342.1875 522.890625 344.296875 525 346.875 525 L 393.75 525 C 396.328125 525 398.4375 522.890625 398.4375 520.3125 C 398.4375 517.734375 396.328125 515.625 393.75 515.625 Z M 393.75 515.625 " fill-opacity="1" fill-rule="nonzero"/><path fill="#fd6916" d="M 367.03125 417.1875 L 373.59375 417.1875 C 379.6875 417.1875 384.84375 412.5 384.84375 406.640625 L 384.84375 401.953125 C 388.125 401.015625 391.171875 399.609375 394.21875 397.96875 L 397.5 401.25 C 401.484375 405.234375 408.515625 405 412.734375 400.78125 L 417.421875 396.09375 C 421.875 391.640625 422.109375 384.84375 417.890625 380.859375 L 414.609375 377.578125 C 416.25 374.53125 417.421875 371.484375 418.59375 368.203125 L 423.28125 368.203125 C 429.140625 368.203125 433.828125 363.28125 433.828125 356.953125 L 433.828125 350.390625 C 433.828125 344.296875 429.140625 339.140625 423.28125 339.140625 L 418.59375 339.140625 C 417.65625 335.859375 416.25 332.8125 414.609375 329.765625 L 417.890625 326.484375 C 421.875 322.5 421.640625 315.46875 417.421875 311.25 L 412.734375 306.5625 C 408.28125 302.109375 401.484375 301.875 397.5 306.09375 L 394.21875 309.375 C 391.171875 307.734375 388.125 306.5625 384.84375 305.390625 L 384.84375 300.703125 C 384.84375 294.84375 379.921875 290.15625 373.59375 290.15625 L 367.03125 290.15625 C 360.9375 290.15625 355.78125 294.84375 355.78125 300.703125 L 355.78125 305.390625 C 352.5 306.328125 349.453125 307.734375 346.40625 309.375 L 343.125 306.09375 C 339.140625 302.109375 332.109375 302.34375 327.890625 306.5625 L 323.203125 311.25 C 321.09375 313.359375 319.6875 316.40625 319.6875 319.453125 C 319.6875 322.265625 320.625 324.84375 322.5 326.71875 L 325.78125 330 C 324.140625 333.046875 322.96875 336.09375 321.796875 339.375 L 317.109375 339.375 C 311.71875 339.375 307.03125 344.53125 307.03125 350.625 L 307.03125 357.1875 C 307.03125 363.28125 311.71875 368.4375 317.578125 368.4375 L 322.265625 368.4375 C 323.203125 371.71875 324.609375 374.765625 326.25 377.8125 L 322.96875 381.09375 C 318.984375 385.078125 319.21875 392.109375 323.4375 396.328125 L 328.125 401.015625 C 332.578125 405.46875 339.375 405.703125 343.359375 401.484375 L 346.640625 398.203125 C 349.6875 399.84375 352.734375 401.015625 356.015625 402.1875 L 356.015625 406.875 C 355.78125 412.5 360.9375 417.1875 367.03125 417.1875 Z M 348.28125 388.359375 L 345 386.25 L 336.5625 394.6875 C 336.328125 394.921875 335.15625 394.921875 334.453125 394.21875 L 329.765625 389.53125 C 329.0625 388.828125 328.828125 387.890625 329.296875 387.421875 L 337.734375 378.984375 L 335.625 375.703125 C 333.046875 371.484375 331.171875 367.03125 330.234375 362.34375 L 329.53125 358.59375 L 317.34375 358.59375 C 316.875 358.59375 316.171875 357.890625 316.171875 356.71875 L 316.171875 350.15625 C 316.171875 348.984375 316.875 348.28125 317.34375 348.28125 L 329.53125 348.28125 L 330.234375 344.53125 C 331.171875 339.84375 333.046875 335.390625 335.625 331.171875 L 337.734375 327.890625 L 329.296875 319.453125 C 329.0625 319.21875 329.0625 318.984375 329.0625 318.984375 C 329.0625 318.515625 329.296875 317.8125 329.765625 317.578125 L 334.453125 312.890625 C 335.15625 312.1875 336.328125 311.953125 336.5625 312.421875 L 345 320.859375 L 348.28125 318.75 C 352.265625 316.171875 356.71875 314.296875 361.640625 313.359375 L 365.390625 312.65625 L 365.390625 300.46875 C 365.390625 300 366.09375 299.296875 367.265625 299.296875 L 373.828125 299.296875 C 375 299.296875 375.703125 300 375.703125 300.46875 L 375.703125 312.65625 L 379.453125 313.359375 C 384.140625 314.296875 388.59375 316.171875 392.8125 318.75 L 396.09375 320.859375 L 404.53125 312.421875 C 404.765625 312.1875 405.703125 312.1875 406.640625 312.890625 L 411.328125 317.578125 C 412.03125 318.28125 412.265625 319.21875 411.796875 319.6875 L 403.359375 328.125 L 405.46875 331.40625 C 408.046875 335.390625 409.921875 340.078125 410.859375 344.765625 L 411.5625 348.515625 L 423.515625 348.515625 C 423.984375 348.515625 424.6875 349.21875 424.6875 350.390625 L 424.6875 356.953125 C 424.6875 358.125 423.984375 358.828125 423.515625 358.828125 L 411.5625 358.828125 L 410.15625 362.578125 C 409.21875 367.265625 407.34375 371.71875 404.765625 375.9375 L 402.65625 379.21875 L 411.09375 387.65625 C 411.328125 387.890625 411.328125 388.828125 410.625 389.765625 L 405.9375 394.453125 C 405.234375 395.15625 404.296875 395.390625 403.828125 394.921875 L 395.390625 386.484375 L 392.109375 388.59375 C 388.125 391.171875 383.671875 393.046875 378.75 393.984375 L 375 394.6875 L 375 406.875 C 375 407.34375 374.296875 408.046875 373.125 408.046875 L 366.5625 408.046875 C 365.390625 408.046875 364.6875 407.34375 364.6875 406.875 L 364.6875 394.6875 L 361.640625 393.75 C 356.71875 392.8125 352.265625 390.9375 348.28125 388.359375 Z M 348.28125 388.359375 " fill-opacity="1" fill-rule="nonzero"/><path fill="#fd6916" d="M 394.921875 353.90625 C 394.921875 340.3125 383.90625 329.296875 370.3125 329.296875 C 356.71875 329.296875 345.703125 340.3125 345.703125 353.90625 C 345.703125 367.5 356.71875 378.515625 370.3125 378.515625 C 383.90625 378.515625 394.921875 367.5 394.921875 353.90625 Z M 355.078125 353.90625 C 355.078125 345.46875 361.875 338.671875 370.3125 338.671875 C 378.75 338.671875 385.546875 345.46875 385.546875 353.90625 C 385.546875 362.34375 378.75 369.140625 370.3125 369.140625 C 361.875 369.140625 355.078125 362.34375 355.078125 353.90625 Z M 355.078125 353.90625 " fill-opacity="1" fill-rule="nonzero"/><path fill="#fd6916" d="M 375 248.4375 C 377.578125 248.4375 379.6875 246.328125 379.6875 243.75 L 379.6875 229.6875 C 379.6875 227.109375 377.578125 225 375 225 C 372.421875 225 370.3125 227.109375 370.3125 229.6875 L 370.3125 243.75 C 370.3125 246.328125 372.421875 248.4375 375 248.4375 Z M 375 248.4375 " fill-opacity="1" fill-rule="nonzero"/><path fill="#fd6916" d="M 320.390625 255.46875 C 321.09375 257.34375 322.96875 258.28125 324.609375 258.28125 C 325.3125 258.28125 325.78125 258.28125 326.484375 257.8125 C 328.828125 256.875 330 254.0625 329.0625 251.71875 L 323.671875 239.0625 C 322.734375 236.71875 319.921875 235.546875 317.578125 236.484375 C 315.234375 237.421875 314.0625 240.234375 315 242.578125 Z M 320.390625 255.46875 " fill-opacity="1" fill-rule="nonzero"/><path fill="#fd6916" d="M 278.90625 285.46875 C 279.84375 286.40625 281.015625 286.875 282.1875 286.875 C 283.359375 286.875 284.53125 286.40625 285.46875 285.46875 C 287.34375 283.59375 287.34375 280.78125 285.46875 278.90625 L 275.625 269.0625 C 273.75 267.1875 270.9375 267.1875 269.0625 269.0625 C 267.1875 270.9375 267.1875 273.75 269.0625 275.625 Z M 278.90625 285.46875 " fill-opacity="1" fill-rule="nonzero"/><path fill="#fd6916" d="M 255.46875 320.390625 L 242.578125 315 C 240.234375 314.0625 237.421875 315.234375 236.484375 317.578125 C 235.546875 319.921875 236.71875 322.734375 239.0625 323.671875 L 251.953125 329.0625 C 252.65625 329.296875 253.125 329.53125 253.828125 329.53125 C 255.703125 329.53125 257.34375 328.359375 258.046875 326.71875 C 258.984375 324.140625 257.8125 321.328125 255.46875 320.390625 Z M 255.46875 320.390625 " fill-opacity="1" fill-rule="nonzero"/><path fill="#fd6916" d="M 248.4375 375 C 248.4375 372.421875 246.328125 370.3125 243.75 370.3125 L 229.6875 370.3125 C 227.109375 370.3125 225 372.421875 225 375 C 225 377.578125 227.109375 379.6875 229.6875 379.6875 L 243.75 379.6875 C 246.328125 379.6875 248.4375 377.578125 248.4375 375 Z M 248.4375 375 " fill-opacity="1" fill-rule="nonzero"/><path fill="#fd6916" d="M 251.953125 420.9375 L 239.0625 426.328125 C 236.71875 427.265625 235.546875 430.078125 236.484375 432.421875 C 237.1875 434.296875 239.0625 435.234375 240.703125 435.234375 C 241.40625 435.234375 241.875 435.234375 242.578125 434.765625 L 255.46875 429.375 C 257.8125 428.4375 258.984375 425.625 258.046875 423.28125 C 257.109375 420.9375 254.296875 420 251.953125 420.9375 Z M 251.953125 420.9375 " fill-opacity="1" fill-rule="nonzero"/><path fill="#fd6916" d="M 278.90625 464.53125 L 269.0625 474.375 C 267.1875 476.25 267.1875 479.0625 269.0625 480.9375 C 270 481.875 271.171875 482.34375 272.34375 482.34375 C 273.515625 482.34375 274.6875 481.875 275.625 480.9375 L 285.46875 471.09375 C 287.34375 469.21875 287.34375 466.40625 285.46875 464.53125 C 283.59375 462.65625 280.78125 462.65625 278.90625 464.53125 Z M 278.90625 464.53125 " fill-opacity="1" fill-rule="nonzero"/><path fill="#fd6916" d="M 471.09375 464.53125 C 469.21875 462.65625 466.40625 462.65625 464.53125 464.53125 C 462.65625 466.40625 462.65625 469.21875 464.53125 471.09375 L 474.375 480.9375 C 475.3125 481.875 476.484375 482.34375 477.65625 482.34375 C 478.828125 482.34375 480 481.875 480.9375 480.9375 C 482.8125 479.0625 482.8125 476.25 480.9375 474.375 Z M 471.09375 464.53125 " fill-opacity="1" fill-rule="nonzero"/><path fill="#fd6916" d="M 510.9375 426.328125 L 498.046875 420.9375 C 495.703125 420 492.890625 421.171875 491.953125 423.515625 C 491.015625 425.859375 492.1875 428.671875 494.53125 429.609375 L 507.421875 435 C 508.125 435.234375 508.59375 435.46875 509.296875 435.46875 C 511.171875 435.46875 512.8125 434.296875 513.515625 432.65625 C 514.6875 430.078125 513.515625 427.265625 510.9375 426.328125 Z M 510.9375 426.328125 " fill-opacity="1" fill-rule="nonzero"/><path fill="#fd6916" d="M 520.3125 370.3125 L 506.25 370.3125 C 503.671875 370.3125 501.5625 372.421875 501.5625 375 C 501.5625 377.578125 503.671875 379.6875 506.25 379.6875 L 520.3125 379.6875 C 522.890625 379.6875 525 377.578125 525 375 C 525 372.421875 522.890625 370.3125 520.3125 370.3125 Z M 520.3125 370.3125 " fill-opacity="1" fill-rule="nonzero"/><path fill="#fd6916" d="M 496.171875 329.53125 C 496.875 329.53125 497.34375 329.53125 498.046875 329.0625 L 510.9375 323.671875 C 513.28125 322.734375 514.453125 319.921875 513.515625 317.578125 C 512.578125 315.234375 509.765625 314.0625 507.421875 315 L 494.53125 320.390625 C 492.1875 321.328125 491.015625 324.140625 491.953125 326.484375 C 492.65625 328.359375 494.53125 329.53125 496.171875 329.53125 Z M 496.171875 329.53125 " fill-opacity="1" fill-rule="nonzero"/><path fill="#fd6916" d="M 474.375 268.828125 L 464.53125 278.671875 C 462.65625 280.546875 462.65625 283.359375 464.53125 285.234375 C 465.46875 286.171875 466.640625 286.640625 467.8125 286.640625 C 468.984375 286.640625 470.15625 286.171875 471.09375 285.234375 L 480.9375 275.390625 C 482.8125 273.515625 482.8125 270.703125 480.9375 268.828125 C 479.0625 266.953125 476.25 267.1875 474.375 268.828125 Z M 474.375 268.828125 " fill-opacity="1" fill-rule="nonzero"/><path fill="#fd6916" d="M 423.515625 258.046875 C 424.21875 258.28125 424.6875 258.515625 425.390625 258.515625 C 427.265625 258.515625 428.90625 257.34375 429.609375 255.703125 L 435 242.8125 C 435.9375 240.46875 434.765625 237.65625 432.421875 236.71875 C 430.078125 235.78125 427.265625 236.953125 426.328125 239.296875 L 420.9375 252.1875 C 420 254.296875 420.9375 257.109375 423.515625 258.046875 Z M 423.515625 258.046875 " fill-opacity="1" fill-rule="nonzero"/><path fill="#fd6916" d="M 462.421875 408.75 C 460.3125 405.46875 460.78125 403.359375 461.015625 402.65625 L 465.46875 397.265625 C 467.109375 395.390625 466.875 392.578125 465 390.703125 C 464.296875 390.234375 463.828125 389.53125 463.59375 389.296875 C 465.46875 387.421875 466.640625 385.546875 466.875 383.4375 C 467.109375 381.328125 466.40625 379.6875 465.703125 378.75 L 462.890625 373.359375 C 462.65625 372.65625 462.890625 372.1875 462.890625 371.953125 C 463.125 371.71875 463.828125 371.484375 464.296875 371.484375 C 464.765625 371.484375 465 371.484375 465.46875 371.25 C 472.734375 369.375 476.71875 366.328125 478.125 362.109375 C 479.0625 358.59375 477.65625 355.546875 476.25 353.671875 L 455.15625 323.4375 C 453.515625 321.09375 452.8125 318.046875 452.109375 315 L 452.109375 314.53125 C 451.875 313.359375 451.40625 311.953125 451.171875 310.78125 C 439.21875 269.0625 394.453125 253.125 356.484375 258.75 C 307.96875 266.25 271.875 307.96875 271.875 356.25 C 271.875 380.15625 281.015625 404.765625 297.1875 423.515625 C 318.75 448.59375 320.15625 455.859375 323.671875 475.3125 L 324.375 478.828125 C 325.3125 484.21875 329.0625 487.734375 333.515625 487.734375 L 375 487.734375 C 377.578125 487.734375 379.6875 485.625 379.6875 483.046875 L 379.6875 431.25 C 379.6875 428.671875 377.578125 426.5625 375 426.5625 C 372.421875 426.5625 370.3125 428.671875 370.3125 431.25 L 370.3125 478.125 L 333.984375 478.125 C 333.75 477.890625 333.75 477.421875 333.515625 476.953125 L 332.8125 473.4375 C 329.296875 453.515625 327.65625 444.375 304.21875 417.1875 C 289.6875 400.3125 281.25 378.046875 281.25 356.25 C 281.25 312.65625 314.0625 274.921875 357.421875 268.359375 C 391.171875 263.203125 431.015625 277.265625 441.5625 313.59375 C 441.796875 314.765625 442.265625 315.9375 442.5 316.875 L 442.5 317.34375 C 443.4375 321.09375 444.375 325.3125 446.953125 329.0625 L 468.28125 359.296875 C 468.28125 359.53125 468.515625 359.53125 468.515625 359.765625 C 468.046875 360.234375 466.640625 361.171875 463.125 362.109375 C 461.484375 362.34375 457.5 362.8125 455.15625 366.09375 C 453.75 367.96875 452.34375 371.015625 453.75 375.9375 C 453.75 376.40625 453.984375 376.640625 454.21875 377.109375 L 457.03125 382.5 C 456.796875 382.734375 456.09375 383.4375 455.15625 383.90625 C 454.6875 384.140625 454.21875 384.609375 453.75 385.3125 C 452.109375 387.890625 452.578125 390.9375 455.390625 394.453125 L 453.046875 397.265625 C 452.8125 397.5 452.578125 397.734375 452.578125 397.96875 C 452.34375 398.4375 449.296875 404.53125 453.75 412.5 C 453.515625 415.546875 452.8125 421.40625 449.53125 424.6875 C 447.890625 426.328125 445.546875 427.03125 442.734375 426.796875 C 442.734375 426.796875 442.5 426.796875 442.5 426.796875 L 423.28125 426.796875 C 414.375 426.796875 410.859375 437.8125 409.21875 443.203125 L 408.984375 443.90625 C 405.703125 454.21875 404.53125 465.703125 405.46875 478.359375 L 396.09375 478.359375 C 393.515625 478.359375 391.40625 480.46875 391.40625 483.046875 C 391.40625 485.625 393.515625 487.734375 396.09375 487.734375 L 407.8125 487.734375 C 409.6875 487.734375 411.5625 487.03125 412.734375 485.390625 C 414.140625 483.75 414.84375 481.640625 414.84375 479.53125 C 413.671875 467.34375 414.609375 456.328125 417.65625 446.71875 L 417.890625 446.015625 C 420.9375 436.640625 422.8125 436.171875 423.046875 436.171875 L 442.03125 436.171875 C 447.421875 436.40625 452.34375 434.765625 455.859375 431.25 C 463.125 424.21875 462.890625 412.5 462.890625 411.09375 C 463.125 410.15625 462.890625 409.453125 462.421875 408.75 Z M 462.421875 408.75 " fill-opacity="1" fill-rule="nonzero"/></svg>