<svg xmlns="http://www.w3.org/2000/svg" xmlns:xlink="http://www.w3.org/1999/xlink" width="1000" zoomAndPan="magnify" viewBox="0 0 750 749.999995" height="1000" preserveAspectRatio="xMidYMid meet" version="1.0"><defs><clipPath id="5318e4595c"><path d="M 121.886719 414.257812 L 377.820312 414.257812 L 377.820312 588.507812 L 121.886719 588.507812 Z M 121.886719 414.257812 " clip-rule="nonzero"/></clipPath><clipPath id="28ce00ffc5"><path d="M 157.136719 414.257812 L 342.359375 414.257812 C 361.828125 414.257812 377.609375 430.039062 377.609375 449.507812 L 377.609375 553.257812 C 377.609375 572.726562 361.828125 588.507812 342.359375 588.507812 L 157.136719 588.507812 C 137.671875 588.507812 121.886719 572.726562 121.886719 553.257812 L 121.886719 449.507812 C 121.886719 430.039062 137.671875 414.257812 157.136719 414.257812 Z M 157.136719 414.257812 " clip-rule="nonzero"/></clipPath><clipPath id="b9d652d721"><path d="M 75 203.648438 L 378 203.648438 L 378 427.367188 L 75 427.367188 Z M 75 203.648438 " clip-rule="nonzero"/></clipPath><clipPath id="c6df5af3ad"><path d="M 110.25 203.648438 L 342.359375 203.648438 C 361.828125 203.648438 377.609375 219.429688 377.609375 238.898438 L 377.609375 392.117188 C 377.609375 411.585938 361.828125 427.367188 342.359375 427.367188 L 110.25 427.367188 C 90.78125 427.367188 75 411.585938 75 392.117188 L 75 238.898438 C 75 219.429688 90.78125 203.648438 110.25 203.648438 Z M 110.25 203.648438 " clip-rule="nonzero"/></clipPath><clipPath id="ea4b52daac"><path d="M 367.164062 414.257812 L 553.988281 414.257812 L 553.988281 553.691406 L 367.164062 553.691406 Z M 367.164062 414.257812 " clip-rule="nonzero"/></clipPath><clipPath id="538b017411"><path d="M 402.414062 414.257812 L 518.472656 414.257812 C 537.941406 414.257812 553.722656 430.039062 553.722656 449.507812 L 553.722656 518.441406 C 553.722656 537.910156 537.941406 553.691406 518.472656 553.691406 L 402.414062 553.691406 C 382.949219 553.691406 367.164062 537.910156 367.164062 518.441406 L 367.164062 449.507812 C 367.164062 430.039062 382.949219 414.257812 402.414062 414.257812 Z M 402.414062 414.257812 " clip-rule="nonzero"/></clipPath><clipPath id="08d1655d35"><path d="M 367.164062 161.492188 L 569.214844 161.492188 L 569.214844 517 L 367.164062 517 Z M 367.164062 161.492188 " clip-rule="nonzero"/></clipPath><clipPath id="296e08f91e"><path d="M 402.414062 161.492188 L 533.964844 161.492188 C 553.433594 161.492188 569.214844 177.273438 569.214844 196.742188 L 569.214844 481.480469 C 569.214844 500.949219 553.433594 516.730469 533.964844 516.730469 L 402.414062 516.730469 C 382.949219 516.730469 367.164062 500.949219 367.164062 481.480469 L 367.164062 196.742188 C 367.164062 177.273438 382.949219 161.492188 402.414062 161.492188 Z M 402.414062 161.492188 " clip-rule="nonzero"/></clipPath><clipPath id="f73a32c074"><path d="M 239 320 L 521.476562 320 L 521.476562 542 L 239 542 Z M 239 320 " clip-rule="nonzero"/></clipPath><clipPath id="af4fc520f8"><path d="M 213.226562 233 L 496 233 L 496 455 L 213.226562 455 Z M 213.226562 233 " clip-rule="nonzero"/></clipPath></defs><g clip-path="url(#5318e4595c)"><g clip-path="url(#28ce00ffc5)"><path fill="#a6a6a6" d="M 121.886719 414.257812 L 377.820312 414.257812 L 377.820312 588.507812 L 121.886719 588.507812 Z M 121.886719 414.257812 " fill-opacity="1" fill-rule="nonzero"/></g></g><g clip-path="url(#b9d652d721)"><g clip-path="url(#c6df5af3ad)"><path fill="#f87423" d="M 75 203.648438 L 377.371094 203.648438 L 377.371094 427.367188 L 75 427.367188 Z M 75 203.648438 " fill-opacity="1" fill-rule="nonzero"/></g></g><g clip-path="url(#ea4b52daac)"><g clip-path="url(#538b017411)"><path fill="#f87423" d="M 367.164062 414.257812 L 553.988281 414.257812 L 553.988281 553.691406 L 367.164062 553.691406 Z M 367.164062 414.257812 " fill-opacity="1" fill-rule="nonzero"/></g></g><g clip-path="url(#08d1655d35)"><g clip-path="url(#296e08f91e)"><path fill="#545454" d="M 367.164062 161.492188 L 569.214844 161.492188 L 569.214844 516.652344 L 367.164062 516.652344 Z M 367.164062 161.492188 " fill-opacity="1" fill-rule="nonzero"/></g></g><g clip-path="url(#f73a32c074)"><path fill="#000000" d="M 497.335938 324.921875 C 502.035156 334.65625 505.585938 344.792969 507.984375 355.332031 C 510.378906 365.871094 511.5625 376.542969 511.535156 387.351562 C 511.535156 390.796875 511.414062 394.234375 511.171875 397.664062 C 510.925781 401.097656 510.558594 404.519531 510.070312 407.925781 C 509.582031 411.332031 508.96875 414.71875 508.234375 418.082031 C 507.503906 421.445312 506.652344 424.777344 505.679688 428.078125 C 504.707031 431.382812 503.617188 434.644531 502.414062 437.867188 C 501.207031 441.09375 499.886719 444.269531 498.453125 447.398438 C 497.019531 450.527344 495.472656 453.601562 493.820312 456.621094 C 492.164062 459.640625 490.402344 462.59375 488.535156 465.488281 C 486.667969 468.378906 484.699219 471.203125 482.632812 473.953125 C 480.5625 476.707031 478.398438 479.378906 476.136719 481.976562 C 473.875 484.574219 471.523438 487.085938 469.082031 489.511719 C 466.640625 491.941406 464.113281 494.277344 461.503906 496.523438 C 458.894531 498.769531 456.207031 500.921875 453.445312 502.976562 C 450.679688 505.03125 447.847656 506.984375 444.941406 508.832031 C 442.039062 510.683594 439.074219 512.429688 436.042969 514.070312 C 433.015625 515.707031 429.929688 517.234375 426.792969 518.652344 C 423.652344 520.070312 420.46875 521.375 417.234375 522.5625 C 414.003906 523.753906 410.730469 524.824219 407.421875 525.777344 C 404.113281 526.734375 400.773438 527.570312 397.40625 528.285156 C 394.035156 529 390.644531 529.59375 387.234375 530.066406 C 383.820312 530.539062 380.398438 530.890625 376.960938 531.117188 C 373.523438 531.34375 370.082031 531.449219 366.636719 531.429688 C 363.195312 531.410156 359.753906 531.265625 356.320312 531 C 352.886719 530.734375 349.464844 530.34375 346.058594 529.835938 C 342.652344 529.324219 339.269531 528.691406 335.910156 527.9375 C 332.546875 527.183594 329.21875 526.3125 325.921875 525.320312 C 322.621094 524.328125 319.363281 523.21875 316.144531 521.992188 C 312.925781 520.765625 309.753906 519.425781 306.632812 517.972656 C 303.511719 516.523438 300.445312 514.957031 297.433594 513.285156 C 294.421875 511.613281 291.476562 509.835938 288.59375 507.953125 C 285.710938 506.066406 282.898438 504.082031 280.160156 501.996094 C 277.417969 499.914062 274.757812 497.730469 272.171875 495.457031 L 282.972656 484.683594 C 283.621094 484.039062 284.058594 483.269531 284.285156 482.378906 C 284.507812 481.492188 284.488281 480.609375 284.222656 479.730469 C 283.957031 478.851562 283.488281 478.105469 282.808594 477.488281 C 282.128906 476.871094 281.339844 476.472656 280.441406 476.292969 L 245.296875 469.253906 C 244.894531 469.171875 244.488281 469.144531 244.082031 469.164062 C 243.671875 469.183594 243.273438 469.25 242.878906 469.371094 C 242.488281 469.488281 242.117188 469.652344 241.765625 469.863281 C 241.414062 470.070312 241.09375 470.320312 240.804688 470.609375 C 240.515625 470.898438 240.265625 471.21875 240.054688 471.570312 C 239.84375 471.921875 239.679688 472.292969 239.5625 472.683594 C 239.445312 473.074219 239.375 473.472656 239.355469 473.882812 C 239.335938 474.289062 239.363281 474.695312 239.445312 475.097656 L 246.4375 510.210938 C 246.617188 511.109375 247.015625 511.894531 247.628906 512.574219 C 248.246094 513.253906 248.992188 513.722656 249.867188 513.992188 C 250.742188 514.257812 251.625 514.28125 252.515625 514.058594 C 253.402344 513.839844 254.171875 513.40625 254.820312 512.757812 L 265.128906 502.484375 C 267.886719 504.933594 270.726562 507.28125 273.652344 509.527344 C 276.578125 511.769531 279.578125 513.910156 282.660156 515.9375 C 285.738281 517.96875 288.886719 519.882812 292.105469 521.6875 C 295.320312 523.488281 298.597656 525.175781 301.9375 526.742188 C 305.273438 528.3125 308.664062 529.757812 312.109375 531.082031 C 315.550781 532.40625 319.035156 533.605469 322.5625 534.679688 C 326.09375 535.753906 329.65625 536.703125 333.25 537.519531 C 336.847656 538.339844 340.46875 539.027344 344.113281 539.585938 C 347.761719 540.144531 351.421875 540.574219 355.097656 540.867188 C 358.777344 541.164062 362.457031 541.328125 366.148438 541.359375 C 369.835938 541.390625 373.519531 541.289062 377.203125 541.054688 C 380.882812 540.824219 384.550781 540.457031 388.207031 539.960938 C 391.863281 539.464844 395.492188 538.835938 399.105469 538.082031 C 402.714844 537.324219 406.292969 536.4375 409.839844 535.421875 C 413.382812 534.410156 416.890625 533.269531 420.355469 532.003906 C 423.820312 530.738281 427.234375 529.347656 430.597656 527.835938 C 433.960938 526.328125 437.269531 524.695312 440.515625 522.949219 C 443.761719 521.199219 446.941406 519.335938 450.054688 517.359375 C 453.167969 515.382812 456.207031 513.296875 459.171875 511.101562 C 462.132812 508.90625 465.015625 506.609375 467.8125 504.207031 C 470.613281 501.804688 473.320312 499.308594 475.9375 496.710938 C 478.558594 494.113281 481.078125 491.429688 483.503906 488.652344 C 485.929688 485.875 488.253906 483.011719 490.472656 480.070312 C 492.691406 477.125 494.800781 474.105469 496.804688 471.011719 C 498.808594 467.914062 500.695312 464.75 502.472656 461.519531 C 504.246094 458.289062 505.902344 455 507.441406 451.648438 C 508.980469 448.296875 510.394531 444.898438 511.691406 441.445312 C 512.984375 437.992188 514.152344 434.5 515.195312 430.964844 C 516.238281 427.429688 517.152344 423.859375 517.9375 420.257812 C 518.726562 416.65625 519.382812 413.03125 519.90625 409.382812 C 520.433594 405.734375 520.824219 402.074219 521.089844 398.398438 C 521.351562 394.71875 521.480469 391.039062 521.476562 387.351562 C 521.511719 375.796875 520.246094 364.386719 517.679688 353.121094 C 515.117188 341.851562 511.320312 331.015625 506.292969 320.609375 Z M 254.375 499.167969 L 250.648438 480.460938 L 269.375 484.210938 Z M 254.375 499.167969 " fill-opacity="1" fill-rule="nonzero"/></g><g clip-path="url(#af4fc520f8)"><path fill="#000000" d="M 237.371094 449.78125 C 232.667969 440.050781 229.121094 429.914062 226.722656 419.375 C 224.324219 408.835938 223.140625 398.160156 223.171875 387.351562 C 223.171875 383.910156 223.292969 380.472656 223.539062 377.039062 C 223.785156 373.605469 224.152344 370.1875 224.644531 366.78125 C 225.136719 363.375 225.75 359.988281 226.484375 356.625 C 227.214844 353.261719 228.070312 349.929688 229.042969 346.628906 C 230.015625 343.328125 231.105469 340.066406 232.3125 336.839844 C 233.519531 333.617188 234.839844 330.441406 236.277344 327.3125 C 237.710938 324.183594 239.257812 321.109375 240.914062 318.089844 C 242.566406 315.074219 244.328125 312.117188 246.195312 309.226562 C 248.0625 306.332031 250.03125 303.511719 252.101562 300.761719 C 254.171875 298.007812 256.339844 295.335938 258.601562 292.738281 C 260.859375 290.144531 263.214844 287.632812 265.65625 285.203125 C 268.097656 282.777344 270.621094 280.441406 273.230469 278.195312 C 275.839844 275.945312 278.527344 273.796875 281.292969 271.742188 C 284.054688 269.6875 286.890625 267.734375 289.792969 265.882812 C 292.695312 264.03125 295.664062 262.289062 298.691406 260.648438 C 301.722656 259.011719 304.804688 257.484375 307.945312 256.066406 C 311.082031 254.648438 314.265625 253.34375 317.5 252.152344 C 320.730469 250.964844 324.003906 249.890625 327.3125 248.9375 C 330.621094 247.980469 333.960938 247.144531 337.328125 246.429688 C 340.699219 245.710938 344.085938 245.117188 347.5 244.644531 C 350.910156 244.171875 354.335938 243.820312 357.773438 243.59375 C 361.210938 243.363281 364.648438 243.257812 368.09375 243.277344 C 371.539062 243.296875 374.976562 243.4375 378.410156 243.703125 C 381.847656 243.96875 385.265625 244.355469 388.671875 244.863281 C 392.078125 245.375 395.464844 246.003906 398.824219 246.757812 C 402.183594 247.507812 405.515625 248.382812 408.8125 249.371094 C 412.113281 250.363281 415.371094 251.46875 418.589844 252.695312 C 421.808594 253.917969 424.980469 255.253906 428.105469 256.707031 C 431.226562 258.160156 434.296875 259.71875 437.304688 261.390625 C 440.316406 263.0625 443.265625 264.839844 446.148438 266.71875 C 449.03125 268.601562 451.84375 270.585938 454.585938 272.667969 C 457.328125 274.753906 459.992188 276.929688 462.578125 279.207031 L 451.734375 290.019531 C 451.082031 290.667969 450.644531 291.4375 450.421875 292.324219 C 450.195312 293.214844 450.21875 294.097656 450.480469 294.976562 C 450.746094 295.851562 451.21875 296.601562 451.898438 297.21875 C 452.574219 297.832031 453.363281 298.230469 454.265625 298.414062 L 489.410156 305.453125 C 489.8125 305.53125 490.214844 305.5625 490.625 305.542969 C 491.035156 305.523438 491.433594 305.453125 491.824219 305.335938 C 492.214844 305.21875 492.589844 305.054688 492.9375 304.84375 C 493.289062 304.632812 493.609375 304.382812 493.898438 304.09375 C 494.1875 303.804688 494.4375 303.488281 494.648438 303.136719 C 494.859375 302.785156 495.023438 302.414062 495.144531 302.023438 C 495.261719 301.632812 495.332031 301.230469 495.351562 300.824219 C 495.371094 300.414062 495.339844 300.011719 495.261719 299.609375 L 488.265625 264.496094 C 488.085938 263.597656 487.691406 262.808594 487.074219 262.132812 C 486.460938 261.453125 485.714844 260.980469 484.839844 260.714844 C 483.960938 260.449219 483.078125 260.425781 482.191406 260.648438 C 481.300781 260.867188 480.53125 261.300781 479.882812 261.945312 L 469.621094 272.175781 C 466.863281 269.730469 464.019531 267.382812 461.09375 265.140625 C 458.167969 262.898438 455.164062 260.761719 452.082031 258.734375 C 449.003906 256.707031 445.855469 254.792969 442.636719 252.988281 C 439.417969 251.1875 436.140625 249.503906 432.800781 247.9375 C 429.460938 246.371094 426.070312 244.925781 422.628906 243.605469 C 419.183594 242.28125 415.699219 241.082031 412.171875 240.011719 C 408.640625 238.9375 405.078125 237.992188 401.480469 237.175781 C 397.886719 236.359375 394.265625 235.671875 390.617188 235.113281 C 386.972656 234.554688 383.308594 234.128906 379.632812 233.835938 C 375.957031 233.539062 372.273438 233.378906 368.585938 233.347656 C 364.898438 233.316406 361.210938 233.417969 357.53125 233.652344 C 353.847656 233.886719 350.179688 234.253906 346.527344 234.75 C 342.871094 235.246094 339.238281 235.875 335.628906 236.632812 C 332.019531 237.390625 328.441406 238.277344 324.894531 239.292969 C 321.351562 240.308594 317.84375 241.449219 314.378906 242.714844 C 310.917969 243.980469 307.503906 245.371094 304.136719 246.878906 C 300.773438 248.390625 297.46875 250.023438 294.222656 251.769531 C 290.972656 253.519531 287.792969 255.382812 284.679688 257.359375 C 281.566406 259.335938 278.527344 261.421875 275.566406 263.617188 C 272.601562 265.808594 269.722656 268.109375 266.921875 270.511719 C 264.125 272.910156 261.414062 275.410156 258.796875 278.007812 C 256.179688 280.601562 253.65625 283.289062 251.230469 286.066406 C 248.804688 288.84375 246.484375 291.703125 244.261719 294.644531 C 242.042969 297.589844 239.929688 300.609375 237.925781 303.703125 C 235.925781 306.800781 234.035156 309.960938 232.257812 313.191406 C 230.484375 316.421875 228.824219 319.714844 227.285156 323.0625 C 225.746094 326.414062 224.332031 329.8125 223.035156 333.265625 C 221.742188 336.714844 220.570312 340.210938 219.527344 343.746094 C 218.484375 347.28125 217.566406 350.847656 216.78125 354.449219 C 215.992188 358.050781 215.335938 361.675781 214.808594 365.324219 C 214.28125 368.96875 213.886719 372.632812 213.621094 376.308594 C 213.359375 379.984375 213.226562 383.667969 213.226562 387.351562 C 213.195312 398.90625 214.460938 410.320312 217.023438 421.585938 C 219.589844 432.855469 223.382812 443.691406 228.410156 454.09375 Z M 480.332031 275.539062 L 484.054688 294.246094 L 465.332031 290.472656 Z M 480.332031 275.539062 " fill-opacity="1" fill-rule="nonzero"/></g><path fill="#000000" d="M 433.332031 477.664062 C 433.578125 477.664062 433.832031 477.664062 434.070312 477.664062 C 435.265625 477.664062 436.453125 477.574219 437.632812 477.390625 C 438.816406 477.210938 439.976562 476.941406 441.117188 476.585938 C 442.257812 476.230469 443.363281 475.789062 444.4375 475.265625 C 445.511719 474.742188 446.539062 474.140625 447.523438 473.464844 C 448.507812 472.785156 449.433594 472.035156 450.304688 471.214844 C 451.171875 470.398438 451.976562 469.515625 452.710938 468.578125 C 453.449219 467.636719 454.109375 466.644531 454.695312 465.605469 C 455.285156 464.566406 455.789062 463.488281 456.210938 462.371094 C 456.636719 461.253906 456.972656 460.109375 457.222656 458.945312 C 457.472656 457.777344 457.632812 456.597656 457.707031 455.402344 C 457.777344 454.210938 457.757812 453.019531 457.652344 451.832031 C 457.542969 450.644531 457.34375 449.46875 457.058594 448.308594 C 456.773438 447.148438 456.402344 446.019531 455.941406 444.914062 C 455.484375 443.8125 454.949219 442.75 454.328125 441.726562 C 453.710938 440.707031 453.019531 439.734375 452.253906 438.820312 C 451.488281 437.902344 450.660156 437.046875 449.765625 436.253906 L 404.863281 396.464844 C 405.324219 394.726562 405.660156 392.964844 405.878906 391.179688 C 406.097656 389.394531 406.195312 387.605469 406.171875 385.804688 C 406.144531 384.007812 406 382.21875 405.730469 380.441406 C 405.464844 378.664062 405.074219 376.914062 404.570312 375.1875 C 404.0625 373.460938 403.441406 371.777344 402.707031 370.136719 C 401.96875 368.496094 401.128906 366.914062 400.175781 365.386719 C 399.226562 363.859375 398.175781 362.40625 397.027344 361.023438 C 395.878906 359.636719 394.640625 358.339844 393.3125 357.125 C 391.988281 355.90625 390.585938 354.789062 389.109375 353.761719 C 387.628906 352.738281 386.089844 351.816406 384.484375 351 C 382.882812 350.183594 381.230469 349.480469 379.53125 348.890625 C 377.832031 348.296875 376.101562 347.824219 374.339844 347.46875 C 372.574219 347.113281 370.792969 346.875 369 346.761719 C 367.203125 346.648438 365.410156 346.65625 363.613281 346.785156 C 361.820312 346.914062 360.042969 347.164062 358.28125 347.535156 C 356.519531 347.90625 354.792969 348.394531 353.097656 349 C 352.902344 349.070312 352.710938 349.152344 352.523438 349.246094 C 352.335938 349.339844 352.15625 349.445312 351.984375 349.5625 C 351.8125 349.679688 351.644531 349.804688 351.488281 349.941406 C 351.332031 350.082031 351.183594 350.226562 351.046875 350.382812 C 350.90625 350.539062 350.777344 350.703125 350.660156 350.875 C 350.542969 351.046875 350.4375 351.226562 350.339844 351.414062 C 350.246094 351.597656 350.164062 351.789062 350.089844 351.984375 C 350.019531 352.183594 349.960938 352.382812 349.914062 352.585938 C 349.871094 352.789062 349.835938 352.996094 349.816406 353.203125 C 349.796875 353.410156 349.789062 353.617188 349.796875 353.828125 C 349.800781 354.035156 349.820312 354.242188 349.855469 354.449219 C 349.886719 354.65625 349.933594 354.859375 349.988281 355.058594 C 350.046875 355.261719 350.117188 355.457031 350.203125 355.648438 C 350.285156 355.839844 350.378906 356.027344 350.484375 356.207031 C 350.589844 356.386719 350.707031 356.558594 350.835938 356.722656 C 350.964844 356.886719 351.101562 357.042969 351.25 357.191406 L 362.90625 368.847656 L 348.847656 382.898438 L 337.1875 371.246094 C 337.042969 371.097656 336.886719 370.960938 336.71875 370.832031 C 336.554688 370.703125 336.382812 370.585938 336.203125 370.480469 C 336.023438 370.375 335.835938 370.28125 335.644531 370.195312 C 335.453125 370.113281 335.257812 370.042969 335.054688 369.984375 C 334.855469 369.925781 334.652344 369.882812 334.445312 369.847656 C 334.238281 369.816406 334.03125 369.796875 333.820312 369.789062 C 333.613281 369.785156 333.402344 369.792969 333.195312 369.8125 C 332.988281 369.832031 332.78125 369.863281 332.578125 369.910156 C 332.375 369.957031 332.171875 370.015625 331.976562 370.085938 C 331.78125 370.15625 331.589844 370.238281 331.402344 370.335938 C 331.214844 370.429688 331.039062 370.539062 330.863281 370.65625 C 330.691406 370.773438 330.527344 370.902344 330.371094 371.039062 C 330.214844 371.179688 330.066406 371.328125 329.929688 371.484375 C 329.792969 371.640625 329.664062 371.804688 329.546875 371.980469 C 329.429688 372.152344 329.324219 372.332031 329.230469 372.519531 C 329.136719 372.707031 329.054688 372.898438 328.984375 373.09375 C 328.378906 374.789062 327.890625 376.511719 327.519531 378.273438 C 327.148438 380.03125 326.898438 381.808594 326.769531 383.601562 C 326.640625 385.394531 326.632812 387.1875 326.746094 388.984375 C 326.863281 390.777344 327.097656 392.554688 327.453125 394.320312 C 327.8125 396.082031 328.285156 397.8125 328.878906 399.507812 C 329.46875 401.207031 330.171875 402.855469 330.988281 404.460938 C 331.804688 406.0625 332.726562 407.601562 333.753906 409.078125 C 334.78125 410.554688 335.902344 411.957031 337.117188 413.28125 C 338.332031 414.605469 339.632812 415.84375 341.019531 416.992188 C 342.402344 418.140625 343.859375 419.1875 345.386719 420.136719 C 346.914062 421.089844 348.5 421.933594 350.140625 422.667969 C 351.78125 423.402344 353.46875 424.023438 355.195312 424.527344 C 356.917969 425.035156 358.671875 425.421875 360.453125 425.691406 C 362.230469 425.960938 364.019531 426.105469 365.820312 426.132812 C 367.617188 426.15625 369.410156 426.058594 371.195312 425.84375 C 372.984375 425.625 374.746094 425.285156 376.484375 424.828125 L 416.308594 469.691406 C 417.378906 470.90625 418.558594 471.996094 419.851562 472.96875 C 421.144531 473.941406 422.523438 474.769531 423.988281 475.453125 C 425.453125 476.140625 426.972656 476.667969 428.546875 477.042969 C 430.121094 477.414062 431.714844 477.621094 433.332031 477.664062 Z M 378.085938 414.179688 C 377.515625 414.183594 376.960938 414.277344 376.421875 414.464844 C 375.847656 414.671875 375.265625 414.859375 374.679688 415.03125 C 374.089844 415.199219 373.5 415.351562 372.902344 415.488281 C 372.308594 415.621094 371.707031 415.738281 371.101562 415.835938 C 370.5 415.933594 369.894531 416.011719 369.285156 416.070312 C 368.675781 416.128906 368.066406 416.171875 367.457031 416.195312 C 366.847656 416.214844 366.234375 416.21875 365.625 416.203125 C 365.011719 416.1875 364.402344 416.15625 363.792969 416.101562 C 363.183594 416.050781 362.578125 415.976562 361.972656 415.886719 C 361.371094 415.796875 360.769531 415.6875 360.171875 415.5625 C 359.574219 415.433594 358.980469 415.289062 358.390625 415.125 C 357.800781 414.960938 357.21875 414.777344 356.640625 414.578125 C 356.0625 414.378906 355.492188 414.160156 354.929688 413.925781 C 354.363281 413.691406 353.808594 413.4375 353.257812 413.167969 C 352.710938 412.898438 352.171875 412.613281 351.640625 412.3125 C 351.109375 412.007812 350.585938 411.691406 350.074219 411.355469 C 349.566406 411.019531 349.0625 410.671875 348.574219 410.304688 C 348.085938 409.9375 347.605469 409.558594 347.140625 409.164062 C 346.675781 408.769531 346.21875 408.359375 345.78125 407.9375 C 345.339844 407.515625 344.910156 407.078125 344.496094 406.628906 C 344.082031 406.179688 343.683594 405.71875 343.296875 405.242188 C 342.914062 404.769531 342.542969 404.285156 342.1875 403.785156 C 341.832031 403.289062 341.492188 402.78125 341.167969 402.265625 C 340.84375 401.746094 340.535156 401.21875 340.242188 400.683594 C 339.949219 400.144531 339.675781 399.601562 339.417969 399.046875 C 339.160156 398.492188 338.917969 397.933594 338.695312 397.363281 C 338.472656 396.796875 338.265625 396.21875 338.078125 395.640625 C 337.890625 395.058594 337.71875 394.472656 337.570312 393.878906 C 337.417969 393.289062 337.285156 392.691406 337.167969 392.09375 C 337.054688 391.492188 336.957031 390.890625 336.878906 390.285156 C 336.800781 389.679688 336.742188 389.070312 336.703125 388.460938 C 336.664062 387.851562 336.640625 387.242188 336.636719 386.628906 C 336.636719 386.019531 336.652344 385.410156 336.6875 384.800781 L 345.332031 393.445312 C 345.566406 393.667969 345.824219 393.863281 346.09375 394.039062 C 346.367188 394.210938 346.65625 394.359375 346.957031 394.480469 C 347.257812 394.597656 347.566406 394.6875 347.886719 394.75 C 348.203125 394.8125 348.523438 394.839844 348.847656 394.839844 C 349.171875 394.839844 349.492188 394.8125 349.8125 394.75 C 350.128906 394.6875 350.4375 394.597656 350.738281 394.480469 C 351.039062 394.359375 351.328125 394.210938 351.601562 394.039062 C 351.875 393.863281 352.128906 393.667969 352.363281 393.445312 L 373.457031 372.363281 C 373.6875 372.132812 373.894531 371.882812 374.078125 371.609375 C 374.257812 371.339844 374.410156 371.054688 374.535156 370.753906 C 374.660156 370.449219 374.753906 370.140625 374.816406 369.820312 C 374.882812 369.5 374.914062 369.175781 374.914062 368.851562 C 374.914062 368.523438 374.882812 368.203125 374.816406 367.882812 C 374.753906 367.5625 374.660156 367.25 374.535156 366.949219 C 374.410156 366.648438 374.257812 366.363281 374.078125 366.089844 C 373.894531 365.820312 373.6875 365.570312 373.457031 365.339844 L 364.808594 356.699219 C 365.417969 356.664062 366.027344 356.648438 366.640625 356.652344 C 367.25 356.652344 367.863281 356.675781 368.472656 356.714844 C 369.082031 356.753906 369.6875 356.8125 370.296875 356.890625 C 370.902344 356.96875 371.503906 357.066406 372.105469 357.179688 C 372.707031 357.296875 373.300781 357.429688 373.894531 357.582031 C 374.488281 357.730469 375.074219 357.902344 375.65625 358.089844 C 376.238281 358.277344 376.8125 358.484375 377.382812 358.707031 C 377.949219 358.929688 378.511719 359.171875 379.066406 359.429688 C 379.621094 359.6875 380.164062 359.960938 380.703125 360.253906 C 381.238281 360.542969 381.765625 360.851562 382.285156 361.175781 C 382.804688 361.5 383.3125 361.839844 383.808594 362.195312 C 384.304688 362.550781 384.792969 362.921875 385.265625 363.304688 C 385.742188 363.691406 386.203125 364.089844 386.652344 364.503906 C 387.101562 364.917969 387.539062 365.34375 387.960938 365.785156 C 388.382812 366.226562 388.792969 366.679688 389.1875 367.144531 C 389.585938 367.609375 389.964844 368.089844 390.332031 368.578125 C 390.695312 369.066406 391.046875 369.566406 391.382812 370.078125 C 391.71875 370.589844 392.035156 371.109375 392.339844 371.640625 C 392.640625 372.171875 392.929688 372.710938 393.199219 373.257812 C 393.46875 373.808594 393.71875 374.363281 393.953125 374.925781 C 394.191406 375.492188 394.40625 376.0625 394.609375 376.636719 C 394.808594 377.214844 394.988281 377.796875 395.152344 378.386719 C 395.316406 378.976562 395.464844 379.566406 395.589844 380.164062 C 395.71875 380.761719 395.828125 381.363281 395.917969 381.96875 C 396.007812 382.570312 396.078125 383.179688 396.132812 383.785156 C 396.1875 384.394531 396.21875 385.003906 396.234375 385.617188 C 396.25 386.226562 396.246094 386.835938 396.226562 387.445312 C 396.203125 388.058594 396.160156 388.667969 396.101562 389.273438 C 396.042969 389.882812 395.960938 390.488281 395.867188 391.089844 C 395.769531 391.695312 395.652344 392.292969 395.519531 392.890625 C 395.382812 393.484375 395.230469 394.078125 395.058594 394.664062 C 394.890625 395.25 394.699219 395.832031 394.492188 396.40625 C 394.328125 396.871094 394.234375 397.351562 394.210938 397.847656 C 394.191406 398.339844 394.242188 398.828125 394.363281 399.308594 C 394.488281 399.785156 394.679688 400.238281 394.9375 400.660156 C 395.195312 401.082031 395.511719 401.457031 395.878906 401.785156 L 443.171875 443.691406 C 443.523438 444.003906 443.855469 444.328125 444.171875 444.671875 C 444.488281 445.019531 444.789062 445.378906 445.066406 445.753906 C 445.347656 446.125 445.609375 446.515625 445.847656 446.914062 C 446.089844 447.316406 446.308594 447.730469 446.507812 448.152344 C 446.703125 448.578125 446.882812 449.007812 447.035156 449.449219 C 447.1875 449.890625 447.320312 450.339844 447.429688 450.796875 C 447.539062 451.25 447.621094 451.710938 447.683594 452.171875 C 447.746094 452.636719 447.78125 453.101562 447.796875 453.570312 C 447.8125 454.035156 447.800781 454.503906 447.765625 454.96875 C 447.734375 455.4375 447.675781 455.898438 447.59375 456.359375 C 447.515625 456.820312 447.410156 457.277344 447.28125 457.726562 C 447.15625 458.175781 447.003906 458.617188 446.832031 459.050781 C 446.660156 459.488281 446.464844 459.910156 446.25 460.328125 C 446.03125 460.742188 445.796875 461.144531 445.539062 461.535156 C 445.28125 461.925781 445.003906 462.300781 444.710938 462.664062 C 444.414062 463.027344 444.101562 463.375 443.769531 463.703125 C 442.4375 465.058594 440.890625 466.085938 439.121094 466.785156 C 437.355469 467.484375 435.523438 467.796875 433.625 467.722656 C 431.730469 467.675781 429.921875 467.246094 428.203125 466.445312 C 426.484375 465.640625 425 464.527344 423.746094 463.101562 L 381.804688 415.851562 C 381.332031 415.320312 380.773438 414.910156 380.125 414.617188 C 379.476562 414.328125 378.796875 414.179688 378.085938 414.179688 Z M 378.085938 414.179688 " fill-opacity="1" fill-rule="nonzero"/><path fill="#000000" d="M 437.578125 412.195312 C 438.050781 410.871094 438.484375 409.539062 438.882812 408.195312 C 439.277344 406.847656 439.636719 405.492188 439.957031 404.128906 C 440.277344 402.761719 440.558594 401.386719 440.800781 400.007812 C 441.042969 398.625 441.25 397.238281 441.414062 395.84375 C 441.578125 394.453125 441.703125 393.054688 441.789062 391.65625 C 441.875 390.253906 441.921875 388.855469 441.929688 387.453125 C 441.9375 386.050781 441.90625 384.648438 441.835938 383.246094 C 441.761719 381.84375 441.652344 380.449219 441.5 379.054688 C 441.351562 377.660156 441.164062 376.269531 440.933594 374.886719 C 440.707031 373.5 440.4375 372.125 440.132812 370.757812 C 439.828125 369.386719 439.484375 368.027344 439.101562 366.679688 C 438.71875 365.328125 438.296875 363.992188 437.839844 362.664062 C 437.382812 361.339844 436.886719 360.027344 436.355469 358.726562 C 435.824219 357.429688 435.257812 356.148438 434.65625 354.882812 C 434.050781 353.613281 433.410156 352.367188 432.738281 351.136719 C 432.0625 349.90625 431.355469 348.695312 430.613281 347.503906 C 429.871094 346.3125 429.097656 345.144531 428.289062 344 C 427.480469 342.851562 426.640625 341.726562 425.769531 340.628906 C 424.898438 339.527344 424 338.453125 423.066406 337.402344 C 422.136719 336.355469 421.175781 335.332031 420.1875 334.335938 C 419.199219 333.339844 418.179688 332.375 417.136719 331.4375 C 416.09375 330.5 415.027344 329.589844 413.929688 328.710938 C 412.835938 327.835938 411.71875 326.988281 410.574219 326.171875 C 409.433594 325.355469 408.269531 324.574219 407.082031 323.824219 C 405.898438 323.074219 404.691406 322.359375 403.464844 321.675781 C 402.238281 320.996094 400.992188 320.347656 399.730469 319.734375 C 398.464844 319.125 397.1875 318.546875 395.890625 318.007812 C 394.597656 317.46875 393.289062 316.964844 391.964844 316.496094 C 390.640625 316.03125 389.304688 315.601562 387.957031 315.210938 C 386.609375 314.816406 385.25 314.464844 383.882812 314.148438 C 382.515625 313.835938 381.140625 313.558594 379.757812 313.320312 C 378.371094 313.082031 376.984375 312.882812 375.589844 312.722656 C 374.195312 312.5625 372.796875 312.441406 371.394531 312.363281 C 369.996094 312.28125 368.589844 312.238281 367.1875 312.234375 C 365.785156 312.234375 364.382812 312.269531 362.980469 312.347656 C 361.578125 312.421875 360.179688 312.539062 358.785156 312.695312 C 357.390625 312.847656 356 313.042969 354.617188 313.277344 C 353.230469 313.507812 351.855469 313.78125 350.488281 314.089844 C 349.117188 314.402344 347.757812 314.75 346.410156 315.136719 C 345.058594 315.523438 343.722656 315.949219 342.398438 316.410156 C 341.074219 316.871094 339.761719 317.371094 338.464844 317.90625 C 337.167969 318.441406 335.886719 319.011719 334.621094 319.621094 C 333.355469 320.230469 332.109375 320.871094 330.878906 321.550781 C 329.648438 322.226562 328.441406 322.9375 327.253906 323.683594 C 326.0625 324.429688 324.894531 325.207031 323.75 326.019531 C 322.605469 326.832031 321.484375 327.671875 320.386719 328.546875 C 319.289062 329.421875 318.21875 330.328125 317.171875 331.261719 C 316.125 332.195312 315.105469 333.160156 314.113281 334.152344 C 313.121094 335.140625 312.15625 336.160156 311.21875 337.207031 C 310.285156 338.253906 309.378906 339.324219 308.503906 340.421875 C 307.628906 341.519531 306.785156 342.640625 305.976562 343.78125 C 305.164062 344.925781 304.382812 346.09375 303.636719 347.28125 C 302.890625 348.46875 302.179688 349.675781 301.5 350.90625 C 300.824219 352.132812 300.179688 353.378906 299.570312 354.644531 C 298.964844 355.910156 298.390625 357.1875 297.855469 358.484375 C 297.320312 359.78125 296.820312 361.089844 296.359375 362.414062 C 295.894531 363.742188 295.472656 365.078125 295.085938 366.425781 C 294.695312 367.773438 294.347656 369.132812 294.039062 370.5 C 293.726562 371.867188 293.457031 373.242188 293.222656 374.625 C 292.988281 376.007812 292.792969 377.398438 292.640625 378.792969 C 292.484375 380.1875 292.367188 381.582031 292.292969 382.984375 C 292.214844 384.382812 292.179688 385.785156 292.179688 387.1875 C 292.183594 388.589844 292.226562 389.992188 292.308594 391.394531 C 292.386719 392.792969 292.507812 394.191406 292.667969 395.582031 C 292.828125 396.976562 293.027344 398.363281 293.265625 399.746094 C 293.503906 401.128906 293.78125 402.503906 294.097656 403.871094 C 294.410156 405.238281 294.765625 406.59375 295.15625 407.941406 C 295.550781 409.289062 295.980469 410.621094 296.445312 411.945312 C 296.914062 413.269531 297.417969 414.578125 297.957031 415.871094 C 298.496094 417.167969 299.074219 418.445312 299.6875 419.707031 C 300.300781 420.96875 300.945312 422.210938 301.628906 423.4375 C 302.3125 424.664062 303.027344 425.871094 303.777344 427.054688 C 304.527344 428.238281 305.3125 429.402344 306.128906 430.542969 C 306.945312 431.6875 307.789062 432.804688 308.667969 433.898438 C 309.546875 434.992188 310.457031 436.058594 311.394531 437.101562 C 312.335938 438.144531 313.300781 439.160156 314.296875 440.148438 C 315.292969 441.136719 316.316406 442.097656 317.367188 443.027344 C 318.417969 443.957031 319.492188 444.859375 320.59375 445.730469 C 321.695312 446.601562 322.820312 447.4375 323.964844 448.246094 C 325.113281 449.054688 326.285156 449.828125 327.476562 450.570312 C 328.667969 451.308594 329.878906 452.019531 331.109375 452.691406 C 332.339844 453.363281 333.589844 454.003906 334.859375 454.605469 C 336.125 455.210938 337.410156 455.777344 338.707031 456.308594 C 340.007812 456.839844 341.320312 457.332031 342.648438 457.789062 C 343.972656 458.246094 345.3125 458.667969 346.664062 459.046875 C 348.011719 459.429688 349.375 459.773438 350.742188 460.082031 C 352.113281 460.386719 353.492188 460.652344 354.875 460.878906 C 356.261719 461.109375 357.652344 461.296875 359.046875 461.449219 C 360.441406 461.597656 361.839844 461.707031 363.242188 461.78125 C 364.644531 461.851562 366.046875 461.882812 367.453125 461.875 C 368.855469 461.867188 370.257812 461.820312 371.660156 461.734375 C 373.058594 461.648438 374.457031 461.523438 375.851562 461.359375 C 377.246094 461.195312 378.632812 460.992188 380.015625 460.75 C 381.398438 460.503906 382.773438 460.222656 384.140625 459.902344 C 385.503906 459.585938 386.863281 459.226562 388.207031 458.828125 C 389.554688 458.433594 390.890625 458 392.210938 457.527344 L 385.023438 449.425781 C 383.882812 449.753906 382.730469 450.046875 381.574219 450.3125 C 380.417969 450.578125 379.253906 450.808594 378.082031 451.007812 C 376.910156 451.210938 375.738281 451.378906 374.558594 451.511719 C 373.378906 451.648438 372.195312 451.753906 371.011719 451.824219 C 369.824219 451.894531 368.640625 451.933594 367.453125 451.9375 C 366.265625 451.945312 365.078125 451.917969 363.890625 451.859375 C 362.707031 451.796875 361.523438 451.707031 360.339844 451.582031 C 359.160156 451.457031 357.984375 451.300781 356.8125 451.113281 C 355.640625 450.925781 354.472656 450.703125 353.3125 450.449219 C 352.152344 450.199219 351 449.914062 349.855469 449.597656 C 348.710938 449.28125 347.578125 448.933594 346.453125 448.554688 C 345.328125 448.175781 344.210938 447.769531 343.109375 447.328125 C 342.007812 446.890625 340.917969 446.417969 339.839844 445.921875 C 338.761719 445.421875 337.699219 444.890625 336.652344 444.335938 C 335.601562 443.777344 334.570312 443.191406 333.554688 442.578125 C 332.539062 441.960938 331.542969 441.320312 330.5625 440.652344 C 329.582031 439.984375 328.617188 439.289062 327.675781 438.566406 C 326.734375 437.84375 325.8125 437.097656 324.910156 436.324219 C 324.011719 435.550781 323.128906 434.753906 322.273438 433.933594 C 321.414062 433.113281 320.582031 432.269531 319.769531 431.402344 C 318.957031 430.535156 318.171875 429.648438 317.410156 428.738281 C 316.648438 427.828125 315.910156 426.898438 315.199219 425.949219 C 314.488281 425 313.804688 424.03125 313.144531 423.042969 C 312.488281 422.054688 311.855469 421.050781 311.253906 420.027344 C 310.652344 419.003906 310.078125 417.96875 309.53125 416.914062 C 308.984375 415.859375 308.46875 414.792969 307.984375 413.710938 C 307.496094 412.628906 307.039062 411.53125 306.613281 410.425781 C 306.183594 409.320312 305.789062 408.199219 305.425781 407.070312 C 305.058594 405.941406 304.726562 404.804688 304.421875 403.65625 C 304.117188 402.511719 303.847656 401.355469 303.609375 400.191406 C 303.371094 399.03125 303.160156 397.863281 302.988281 396.691406 C 302.8125 395.515625 302.667969 394.339844 302.558594 393.15625 C 302.449219 391.976562 302.371094 390.792969 302.324219 389.605469 C 302.28125 388.421875 302.265625 387.234375 302.285156 386.050781 C 302.304688 384.863281 302.359375 383.675781 302.445312 382.496094 C 302.527344 381.3125 302.644531 380.128906 302.796875 378.953125 C 302.945312 377.777344 303.128906 376.605469 303.339844 375.4375 C 303.554688 374.269531 303.800781 373.109375 304.078125 371.957031 C 304.359375 370.804688 304.667969 369.65625 305.007812 368.519531 C 305.347656 367.382812 305.722656 366.257812 306.125 365.140625 C 306.527344 364.027344 306.960938 362.921875 307.421875 361.828125 C 307.886719 360.738281 308.378906 359.660156 308.902344 358.59375 C 309.425781 357.527344 309.976562 356.476562 310.558594 355.441406 C 311.136719 354.40625 311.746094 353.390625 312.382812 352.386719 C 313.019531 351.386719 313.683594 350.402344 314.375 349.4375 C 315.0625 348.472656 315.78125 347.527344 316.523438 346.601562 C 317.265625 345.675781 318.035156 344.769531 318.824219 343.886719 C 319.617188 343.003906 320.433594 342.140625 321.273438 341.300781 C 322.113281 340.464844 322.976562 339.648438 323.859375 338.855469 C 324.742188 338.0625 325.648438 337.296875 326.574219 336.554688 C 327.503906 335.8125 328.449219 335.097656 329.414062 334.40625 C 330.378906 333.71875 331.363281 333.054688 332.367188 332.417969 C 333.371094 331.78125 334.386719 331.175781 335.425781 330.59375 C 336.460938 330.015625 337.511719 329.460938 338.578125 328.941406 C 339.644531 328.417969 340.722656 327.925781 341.816406 327.460938 C 342.910156 327 344.015625 326.566406 345.132812 326.164062 C 346.246094 325.761719 347.375 325.390625 348.511719 325.046875 C 349.648438 324.707031 350.796875 324.398438 351.949219 324.121094 C 353.105469 323.84375 354.265625 323.597656 355.433594 323.382812 C 356.601562 323.167969 357.773438 322.988281 358.953125 322.835938 C 360.128906 322.6875 361.3125 322.570312 362.496094 322.484375 C 363.679688 322.402344 364.867188 322.347656 366.054688 322.328125 C 367.238281 322.308594 368.425781 322.320312 369.613281 322.367188 C 370.800781 322.414062 371.984375 322.488281 373.167969 322.601562 C 374.347656 322.710938 375.527344 322.855469 376.703125 323.027344 C 377.875 323.203125 379.042969 323.410156 380.207031 323.648438 C 381.371094 323.890625 382.527344 324.160156 383.675781 324.460938 C 384.824219 324.765625 385.960938 325.097656 387.089844 325.464844 C 388.222656 325.828125 389.339844 326.226562 390.449219 326.652344 C 391.554688 327.078125 392.652344 327.535156 393.734375 328.019531 C 394.816406 328.507812 395.886719 329.023438 396.941406 329.570312 C 397.996094 330.113281 399.035156 330.6875 400.054688 331.289062 C 401.078125 331.894531 402.085938 332.523438 403.074219 333.179688 C 404.0625 333.835938 405.03125 334.523438 405.984375 335.230469 C 406.933594 335.941406 407.863281 336.679688 408.773438 337.441406 C 409.683594 338.203125 410.574219 338.988281 411.441406 339.800781 C 412.308594 340.609375 413.152344 341.445312 413.972656 342.300781 C 414.792969 343.15625 415.589844 344.035156 416.363281 344.9375 C 417.136719 345.835938 417.886719 346.757812 418.609375 347.699219 C 419.328125 348.640625 420.027344 349.601562 420.695312 350.582031 C 421.363281 351.5625 422.007812 352.558594 422.621094 353.574219 C 423.238281 354.589844 423.824219 355.621094 424.382812 356.667969 C 424.9375 357.714844 425.46875 358.777344 425.96875 359.855469 C 426.46875 360.929688 426.9375 362.019531 427.378906 363.121094 C 427.816406 364.222656 428.226562 365.335938 428.605469 366.460938 C 428.984375 367.585938 429.332031 368.71875 429.648438 369.863281 C 429.964844 371.007812 430.25 372.160156 430.5 373.320312 C 430.753906 374.476562 430.976562 375.644531 431.164062 376.816406 C 431.351562 377.984375 431.511719 379.160156 431.632812 380.339844 C 431.757812 381.523438 431.851562 382.703125 431.910156 383.890625 C 431.96875 385.074219 431.996094 386.261719 431.988281 387.445312 C 431.984375 388.632812 431.945312 389.820312 431.875 391.003906 C 431.804688 392.1875 431.699219 393.367188 431.566406 394.546875 C 431.429688 395.726562 431.261719 396.898438 431.058594 398.070312 C 430.859375 399.238281 430.628906 400.402344 430.363281 401.558594 C 430.097656 402.714844 429.800781 403.863281 429.476562 405.003906 Z M 437.578125 412.195312 " fill-opacity="1" fill-rule="nonzero"/><path fill="#000000" d="M 436.738281 456.6875 C 436.96875 456.457031 437.175781 456.207031 437.355469 455.9375 C 437.539062 455.664062 437.691406 455.378906 437.816406 455.078125 C 437.941406 454.777344 438.035156 454.464844 438.097656 454.144531 C 438.160156 453.824219 438.191406 453.503906 438.191406 453.175781 C 438.191406 452.851562 438.160156 452.527344 438.097656 452.207031 C 438.035156 451.886719 437.9375 451.578125 437.8125 451.273438 C 437.6875 450.972656 437.535156 450.6875 437.355469 450.417969 C 437.171875 450.144531 436.96875 449.894531 436.734375 449.664062 C 436.503906 449.433594 436.253906 449.226562 435.984375 449.046875 C 435.710938 448.867188 435.425781 448.710938 435.125 448.585938 C 434.820312 448.460938 434.511719 448.367188 434.191406 448.304688 C 433.871094 448.242188 433.546875 448.210938 433.222656 448.210938 C 432.894531 448.210938 432.570312 448.242188 432.25 448.304688 C 431.929688 448.367188 431.621094 448.460938 431.320312 448.585938 C 431.019531 448.710938 430.730469 448.867188 430.460938 449.046875 C 430.1875 449.226562 429.9375 449.433594 429.707031 449.664062 C 429.476562 449.894531 429.269531 450.144531 429.089844 450.417969 C 428.90625 450.6875 428.753906 450.972656 428.628906 451.273438 C 428.503906 451.578125 428.410156 451.886719 428.34375 452.207031 C 428.28125 452.527344 428.25 452.851562 428.25 453.175781 C 428.25 453.503906 428.28125 453.824219 428.34375 454.144531 C 428.410156 454.464844 428.503906 454.777344 428.628906 455.078125 C 428.75 455.378906 428.90625 455.664062 429.085938 455.9375 C 429.265625 456.207031 429.472656 456.457031 429.703125 456.6875 C 429.933594 456.917969 430.1875 457.125 430.457031 457.308594 C 430.730469 457.488281 431.015625 457.640625 431.316406 457.765625 C 431.621094 457.890625 431.929688 457.988281 432.25 458.050781 C 432.570312 458.113281 432.894531 458.144531 433.222656 458.144531 C 433.546875 458.144531 433.871094 458.113281 434.191406 458.050781 C 434.511719 457.988281 434.824219 457.890625 435.125 457.765625 C 435.425781 457.640625 435.714844 457.488281 435.984375 457.308594 C 436.257812 457.125 436.507812 456.917969 436.738281 456.6875 Z M 436.738281 456.6875 " fill-opacity="1" fill-rule="nonzero"/><path fill="#000000" d="M 462.121094 412.195312 C 463.078125 412.191406 464.027344 412.097656 464.96875 411.910156 C 465.910156 411.722656 466.824219 411.445312 467.710938 411.078125 C 468.59375 410.710938 469.4375 410.257812 470.234375 409.726562 C 471.03125 409.191406 471.769531 408.585938 472.449219 407.910156 C 473.125 407.230469 473.730469 406.496094 474.265625 405.695312 C 474.796875 404.898438 475.25 404.058594 475.617188 403.171875 C 475.984375 402.289062 476.261719 401.375 476.449219 400.433594 C 476.636719 399.496094 476.730469 398.546875 476.730469 397.585938 L 476.730469 377.117188 C 476.730469 376.160156 476.636719 375.210938 476.449219 374.269531 C 476.261719 373.332031 475.984375 372.417969 475.617188 371.53125 C 475.25 370.648438 474.796875 369.804688 474.265625 369.007812 C 473.730469 368.210938 473.125 367.472656 472.449219 366.796875 C 471.769531 366.117188 471.03125 365.511719 470.234375 364.980469 C 469.4375 364.445312 468.59375 363.996094 467.710938 363.628906 C 466.824219 363.261719 465.910156 362.984375 464.96875 362.796875 C 464.027344 362.609375 463.078125 362.511719 462.121094 362.511719 C 461.609375 362.519531 461.109375 362.449219 460.625 362.296875 C 460.136719 362.148438 459.683594 361.925781 459.265625 361.632812 C 458.847656 361.335938 458.488281 360.988281 458.183594 360.578125 C 457.875 360.171875 457.640625 359.726562 457.476562 359.242188 C 455.78125 353.828125 453.609375 348.609375 450.96875 343.589844 C 450.742188 343.128906 450.589844 342.648438 450.515625 342.140625 C 450.441406 341.636719 450.449219 341.128906 450.535156 340.625 C 450.621094 340.121094 450.78125 339.644531 451.019531 339.191406 C 451.257812 338.738281 451.5625 338.332031 451.925781 337.972656 L 452.027344 337.871094 C 452.695312 337.1875 453.289062 336.449219 453.8125 335.652344 C 454.335938 334.855469 454.777344 334.015625 455.136719 333.132812 C 455.496094 332.246094 455.765625 331.339844 455.945312 330.402344 C 456.128906 329.464844 456.214844 328.519531 456.210938 327.566406 C 456.207031 326.613281 456.109375 325.671875 455.921875 324.734375 C 455.734375 323.800781 455.457031 322.894531 455.089844 322.011719 C 454.722656 321.132812 454.273438 320.296875 453.742188 319.503906 C 453.214844 318.710938 452.613281 317.976562 451.9375 317.300781 L 437.453125 302.824219 C 436.765625 302.164062 436.019531 301.578125 435.214844 301.0625 C 434.414062 300.542969 433.570312 300.109375 432.683594 299.753906 C 431.796875 299.398438 430.886719 299.132812 429.949219 298.949219 C 429.011719 298.769531 428.066406 298.679688 427.109375 298.679688 C 426.15625 298.679688 425.210938 298.769531 424.273438 298.949219 C 423.335938 299.132812 422.425781 299.398438 421.539062 299.753906 C 420.652344 300.109375 419.808594 300.542969 419.007812 301.0625 C 418.203125 301.578125 417.457031 302.164062 416.765625 302.824219 C 416.410156 303.191406 416.003906 303.492188 415.550781 303.730469 C 415.097656 303.964844 414.621094 304.128906 414.117188 304.214844 C 413.613281 304.300781 413.105469 304.304688 412.601562 304.230469 C 412.09375 304.15625 411.613281 304.003906 411.152344 303.777344 C 406.125 301.136719 400.898438 298.96875 395.472656 297.273438 C 394.992188 297.109375 394.550781 296.875 394.144531 296.570312 C 393.738281 296.265625 393.390625 295.90625 393.097656 295.492188 C 392.804688 295.078125 392.582031 294.628906 392.429688 294.144531 C 392.28125 293.664062 392.207031 293.167969 392.210938 292.660156 C 392.210938 291.699219 392.117188 290.75 391.929688 289.8125 C 391.742188 288.871094 391.464844 287.957031 391.09375 287.074219 C 390.726562 286.1875 390.277344 285.347656 389.746094 284.550781 C 389.210938 283.753906 388.605469 283.015625 387.929688 282.335938 C 387.25 281.660156 386.511719 281.054688 385.714844 280.519531 C 384.917969 279.988281 384.074219 279.539062 383.191406 279.171875 C 382.304688 278.804688 381.390625 278.523438 380.449219 278.335938 C 379.507812 278.148438 378.558594 278.054688 377.601562 278.054688 L 357.105469 278.054688 C 356.140625 278.058594 355.179688 278.15625 354.234375 278.347656 C 353.285156 278.542969 352.367188 278.828125 351.476562 279.203125 C 350.585938 279.578125 349.738281 280.035156 348.9375 280.578125 C 348.136719 281.121094 347.398438 281.734375 346.71875 282.421875 C 346.039062 283.109375 345.433594 283.859375 344.902344 284.667969 C 344.371094 285.472656 343.925781 286.324219 343.5625 287.222656 C 343.199219 288.117188 342.929688 289.039062 342.75 289.988281 C 342.570312 290.9375 342.484375 291.898438 342.492188 292.863281 C 342.503906 293.339844 342.4375 293.808594 342.296875 294.265625 C 342.15625 294.726562 341.949219 295.148438 341.675781 295.542969 C 341.402344 295.933594 341.074219 296.273438 340.691406 296.5625 C 340.3125 296.851562 339.894531 297.074219 339.441406 297.230469 C 333.945312 298.933594 328.648438 301.121094 323.554688 303.796875 C 323.09375 304.023438 322.609375 304.171875 322.101562 304.246094 C 321.589844 304.316406 321.085938 304.308594 320.578125 304.21875 C 320.070312 304.128906 319.589844 303.964844 319.136719 303.722656 C 318.683594 303.480469 318.28125 303.175781 317.921875 302.804688 C 317.234375 302.144531 316.488281 301.558594 315.6875 301.042969 C 314.882812 300.527344 314.039062 300.09375 313.15625 299.738281 C 312.269531 299.382812 311.359375 299.117188 310.421875 298.933594 C 309.484375 298.753906 308.539062 298.664062 307.585938 298.664062 C 306.632812 298.664062 305.6875 298.753906 304.75 298.933594 C 303.816406 299.117188 302.90625 299.382812 302.019531 299.738281 C 301.132812 300.09375 300.289062 300.527344 299.488281 301.042969 C 298.6875 301.558594 297.941406 302.144531 297.25 302.804688 L 282.769531 317.300781 C 282.09375 317.976562 281.492188 318.710938 280.964844 319.503906 C 280.433594 320.296875 279.984375 321.132812 279.617188 322.011719 C 279.253906 322.890625 278.976562 323.796875 278.785156 324.734375 C 278.597656 325.667969 278.5 326.609375 278.496094 327.5625 C 278.492188 328.515625 278.578125 329.460938 278.761719 330.398438 C 278.941406 331.332031 279.210938 332.242188 279.566406 333.125 C 279.925781 334.007812 280.367188 334.851562 280.890625 335.648438 C 281.410156 336.445312 282.007812 337.183594 282.671875 337.863281 L 282.777344 337.972656 C 283.144531 338.332031 283.445312 338.734375 283.683594 339.1875 C 283.921875 339.640625 284.085938 340.117188 284.171875 340.621094 C 284.257812 341.125 284.265625 341.632812 284.191406 342.136719 C 284.117188 342.644531 283.96875 343.125 283.742188 343.582031 C 281.097656 348.609375 278.925781 353.828125 277.222656 359.246094 C 277.058594 359.730469 276.824219 360.175781 276.519531 360.582031 C 276.214844 360.988281 275.851562 361.339844 275.4375 361.632812 C 275.019531 361.925781 274.566406 362.148438 274.082031 362.296875 C 273.59375 362.449219 273.09375 362.519531 272.585938 362.511719 C 271.625 362.511719 270.675781 362.609375 269.734375 362.796875 C 268.796875 362.984375 267.882812 363.261719 266.996094 363.628906 C 266.109375 363.996094 265.269531 364.445312 264.472656 364.980469 C 263.671875 365.511719 262.9375 366.117188 262.257812 366.796875 C 261.578125 367.472656 260.972656 368.210938 260.441406 369.007812 C 259.90625 369.804688 259.457031 370.648438 259.089844 371.53125 C 258.722656 372.417969 258.445312 373.332031 258.257812 374.269531 C 258.070312 375.210938 257.976562 376.160156 257.972656 377.117188 L 257.972656 397.585938 C 257.976562 398.546875 258.070312 399.496094 258.257812 400.433594 C 258.445312 401.375 258.722656 402.289062 259.089844 403.171875 C 259.457031 404.058594 259.90625 404.898438 260.441406 405.695312 C 260.972656 406.496094 261.578125 407.230469 262.257812 407.910156 C 262.9375 408.585938 263.671875 409.191406 264.472656 409.726562 C 265.269531 410.257812 266.109375 410.710938 266.996094 411.078125 C 267.882812 411.445312 268.796875 411.722656 269.734375 411.910156 C 270.675781 412.097656 271.625 412.191406 272.585938 412.195312 C 273.097656 412.1875 273.59375 412.257812 274.082031 412.410156 C 274.570312 412.558594 275.023438 412.78125 275.4375 413.074219 C 275.855469 413.367188 276.21875 413.71875 276.523438 414.128906 C 276.828125 414.535156 277.066406 414.980469 277.230469 415.460938 C 278.925781 420.878906 281.09375 426.097656 283.738281 431.117188 C 283.964844 431.574219 284.113281 432.058594 284.1875 432.566406 C 284.261719 433.070312 284.257812 433.578125 284.171875 434.082031 C 284.085938 434.585938 283.921875 435.0625 283.683594 435.515625 C 283.445312 435.96875 283.144531 436.375 282.777344 436.730469 L 282.679688 436.835938 C 282.011719 437.515625 281.414062 438.257812 280.890625 439.054688 C 280.367188 439.851562 279.925781 440.691406 279.570312 441.574219 C 279.210938 442.457031 278.941406 443.367188 278.757812 444.304688 C 278.578125 445.238281 278.488281 446.183594 278.492188 447.136719 C 278.5 448.09375 278.59375 449.035156 278.785156 449.96875 C 278.972656 450.90625 279.25 451.8125 279.617188 452.691406 C 279.984375 453.574219 280.433594 454.410156 280.960938 455.203125 C 281.492188 455.996094 282.09375 456.730469 282.769531 457.402344 L 297.25 471.882812 C 297.941406 472.539062 298.6875 473.128906 299.488281 473.644531 C 300.292969 474.160156 301.136719 474.597656 302.023438 474.953125 C 302.90625 475.308594 303.820312 475.574219 304.757812 475.753906 C 305.695312 475.9375 306.640625 476.027344 307.59375 476.027344 C 308.550781 476.027344 309.496094 475.9375 310.433594 475.753906 C 311.371094 475.574219 312.28125 475.308594 313.167969 474.953125 C 314.054688 474.597656 314.898438 474.160156 315.699219 473.644531 C 316.503906 473.128906 317.25 472.539062 317.9375 471.882812 C 318.296875 471.515625 318.703125 471.214844 319.15625 470.980469 C 319.609375 470.742188 320.085938 470.582031 320.589844 470.496094 C 321.09375 470.410156 321.597656 470.402344 322.105469 470.476562 C 322.609375 470.550781 323.09375 470.703125 323.550781 470.925781 C 328.582031 473.570312 333.808594 475.738281 339.234375 477.429688 C 339.710938 477.597656 340.15625 477.832031 340.5625 478.132812 C 340.96875 478.4375 341.316406 478.796875 341.609375 479.210938 C 341.902344 479.625 342.125 480.074219 342.273438 480.558594 C 342.425781 481.042969 342.5 481.539062 342.492188 482.046875 C 342.496094 483.003906 342.589844 483.953125 342.777344 484.894531 C 342.964844 485.835938 343.242188 486.746094 343.609375 487.632812 C 343.976562 488.519531 344.429688 489.359375 344.960938 490.15625 C 345.492188 490.953125 346.097656 491.691406 346.777344 492.367188 C 347.457031 493.046875 348.195312 493.652344 348.992188 494.183594 C 349.789062 494.71875 350.628906 495.167969 351.515625 495.535156 C 352.402344 495.902344 353.316406 496.179688 354.257812 496.367188 C 355.195312 496.558594 356.148438 496.652344 357.105469 496.652344 L 377.601562 496.652344 C 378.558594 496.652344 379.507812 496.558594 380.449219 496.367188 C 381.390625 496.179688 382.304688 495.902344 383.191406 495.535156 C 384.074219 495.167969 384.917969 494.71875 385.714844 494.183594 C 386.511719 493.652344 387.25 493.046875 387.929688 492.367188 C 388.605469 491.691406 389.210938 490.953125 389.746094 490.15625 C 390.277344 489.359375 390.726562 488.519531 391.09375 487.632812 C 391.464844 486.746094 391.742188 485.835938 391.929688 484.894531 C 392.117188 483.953125 392.210938 483.003906 392.210938 482.046875 C 392.203125 481.539062 392.277344 481.039062 392.425781 480.554688 C 392.578125 480.066406 392.796875 479.617188 393.089844 479.199219 C 393.382812 478.785156 393.734375 478.421875 394.140625 478.117188 C 394.546875 477.8125 394.992188 477.578125 395.472656 477.410156 C 399.121094 476.238281 402.683594 474.851562 406.164062 473.246094 L 399.261719 465.476562 C 397.042969 466.386719 394.785156 467.214844 392.515625 467.925781 C 391.769531 468.160156 391.050781 468.453125 390.351562 468.804688 C 389.65625 469.15625 388.988281 469.558594 388.355469 470.015625 C 387.722656 470.46875 387.128906 470.972656 386.578125 471.523438 C 386.023438 472.074219 385.519531 472.667969 385.0625 473.296875 C 384.601562 473.929688 384.199219 474.59375 383.84375 475.289062 C 383.492188 475.984375 383.199219 476.703125 382.960938 477.449219 C 382.722656 478.191406 382.546875 478.949219 382.429688 479.71875 C 382.316406 480.492188 382.261719 481.265625 382.269531 482.046875 C 382.269531 482.351562 382.238281 482.65625 382.175781 482.957031 C 382.117188 483.257812 382.027344 483.546875 381.910156 483.832031 C 381.792969 484.113281 381.648438 484.382812 381.480469 484.636719 C 381.308594 484.894531 381.117188 485.128906 380.898438 485.34375 C 380.683594 485.5625 380.445312 485.753906 380.191406 485.925781 C 379.9375 486.097656 379.667969 486.242188 379.386719 486.359375 C 379.101562 486.476562 378.8125 486.566406 378.511719 486.625 C 378.210938 486.683594 377.90625 486.714844 377.601562 486.714844 L 357.105469 486.714844 C 356.800781 486.714844 356.496094 486.683594 356.195312 486.625 C 355.894531 486.566406 355.601562 486.476562 355.320312 486.359375 C 355.035156 486.242188 354.769531 486.097656 354.511719 485.925781 C 354.257812 485.753906 354.023438 485.5625 353.804688 485.34375 C 353.589844 485.128906 353.394531 484.894531 353.226562 484.636719 C 353.054688 484.382812 352.910156 484.113281 352.792969 483.832031 C 352.675781 483.546875 352.589844 483.257812 352.527344 482.957031 C 352.46875 482.65625 352.4375 482.351562 352.4375 482.046875 C 352.445312 481.265625 352.390625 480.492188 352.273438 479.71875 C 352.160156 478.949219 351.980469 478.191406 351.746094 477.449219 C 351.507812 476.703125 351.210938 475.984375 350.859375 475.289062 C 350.507812 474.59375 350.101562 473.929688 349.644531 473.296875 C 349.1875 472.667969 348.679688 472.074219 348.128906 471.523438 C 347.574219 470.972656 346.984375 470.46875 346.347656 470.015625 C 345.714844 469.558594 345.050781 469.15625 344.351562 468.804688 C 343.65625 468.453125 342.933594 468.160156 342.191406 467.925781 C 337.34375 466.410156 332.675781 464.472656 328.179688 462.113281 C 326.066406 460.996094 323.8125 460.4375 321.417969 460.441406 C 319.441406 460.445312 317.539062 460.832031 315.714844 461.597656 C 313.890625 462.359375 312.285156 463.445312 310.894531 464.851562 C 310.671875 465.0625 310.433594 465.25 310.175781 465.414062 C 309.921875 465.578125 309.652344 465.71875 309.367188 465.832031 C 309.085938 465.945312 308.792969 466.03125 308.492188 466.085938 C 308.195312 466.144531 307.890625 466.171875 307.585938 466.171875 C 307.28125 466.171875 306.980469 466.144531 306.679688 466.085938 C 306.382812 466.03125 306.089844 465.945312 305.804688 465.832031 C 305.523438 465.71875 305.253906 465.578125 304.996094 465.414062 C 304.742188 465.25 304.5 465.0625 304.28125 464.851562 L 289.792969 450.378906 C 289.578125 450.160156 289.382812 449.925781 289.214844 449.671875 C 289.042969 449.414062 288.898438 449.144531 288.785156 448.863281 C 288.667969 448.578125 288.578125 448.285156 288.519531 447.984375 C 288.457031 447.683594 288.429688 447.382812 288.429688 447.074219 C 288.429688 446.769531 288.457031 446.464844 288.519531 446.164062 C 288.578125 445.863281 288.667969 445.570312 288.785156 445.289062 C 288.898438 445.003906 289.042969 444.734375 289.214844 444.480469 C 289.382812 444.226562 289.578125 443.988281 289.792969 443.773438 C 289.828125 443.742188 289.863281 443.707031 289.890625 443.667969 C 290.441406 443.117188 290.945312 442.53125 291.402344 441.902344 C 291.859375 441.273438 292.265625 440.613281 292.617188 439.921875 C 292.96875 439.226562 293.261719 438.511719 293.5 437.773438 C 293.738281 437.035156 293.914062 436.28125 294.035156 435.511719 C 294.152344 434.746094 294.207031 433.972656 294.203125 433.195312 C 294.199219 432.417969 294.132812 431.648438 294.003906 430.882812 C 293.878906 430.117188 293.691406 429.367188 293.441406 428.628906 C 293.195312 427.890625 292.894531 427.179688 292.53125 426.492188 C 290.167969 422.003906 288.230469 417.339844 286.714844 412.496094 C 286.480469 411.753906 286.1875 411.03125 285.835938 410.335938 C 285.488281 409.636719 285.082031 408.972656 284.628906 408.339844 C 284.171875 407.707031 283.667969 407.117188 283.117188 406.5625 C 282.5625 406.011719 281.972656 405.507812 281.339844 405.046875 C 280.707031 404.589844 280.042969 404.183594 279.347656 403.832031 C 278.652344 403.480469 277.929688 403.1875 277.1875 402.949219 C 276.445312 402.714844 275.6875 402.535156 274.914062 402.421875 C 274.140625 402.304688 273.367188 402.25 272.585938 402.257812 C 272.277344 402.257812 271.976562 402.226562 271.675781 402.167969 C 271.375 402.105469 271.082031 402.015625 270.800781 401.898438 C 270.515625 401.78125 270.246094 401.636719 269.992188 401.46875 C 269.738281 401.296875 269.503906 401.101562 269.285156 400.886719 C 269.070312 400.667969 268.875 400.433594 268.707031 400.179688 C 268.535156 399.925781 268.390625 399.65625 268.273438 399.371094 C 268.15625 399.089844 268.066406 398.796875 268.007812 398.496094 C 267.949219 398.195312 267.917969 397.894531 267.917969 397.585938 L 267.917969 377.117188 C 267.917969 376.8125 267.949219 376.507812 268.007812 376.207031 C 268.066406 375.90625 268.15625 375.617188 268.273438 375.332031 C 268.390625 375.050781 268.535156 374.78125 268.707031 374.527344 C 268.875 374.273438 269.070312 374.035156 269.285156 373.820312 C 269.503906 373.601562 269.738281 373.410156 269.992188 373.238281 C 270.246094 373.066406 270.515625 372.925781 270.800781 372.808594 C 271.082031 372.6875 271.375 372.601562 271.675781 372.539062 C 271.976562 372.480469 272.277344 372.449219 272.585938 372.449219 C 273.367188 372.457031 274.140625 372.402344 274.914062 372.285156 C 275.6875 372.171875 276.445312 371.996094 277.1875 371.757812 C 277.929688 371.519531 278.652344 371.226562 279.347656 370.875 C 280.042969 370.523438 280.707031 370.117188 281.339844 369.660156 C 281.972656 369.203125 282.5625 368.699219 283.113281 368.144531 C 283.667969 367.59375 284.171875 367 284.625 366.367188 C 285.082031 365.738281 285.488281 365.070312 285.835938 364.375 C 286.1875 363.679688 286.480469 362.957031 286.714844 362.214844 C 288.234375 357.371094 290.175781 352.699219 292.542969 348.207031 C 292.902344 347.519531 293.203125 346.808594 293.449219 346.074219 C 293.695312 345.335938 293.882812 344.585938 294.011719 343.820312 C 294.136719 343.054688 294.203125 342.285156 294.207031 341.507812 C 294.210938 340.734375 294.15625 339.960938 294.039062 339.195312 C 293.921875 338.429688 293.742188 337.675781 293.507812 336.9375 C 293.269531 336.199219 292.976562 335.480469 292.625 334.789062 C 292.273438 334.097656 291.871094 333.4375 291.414062 332.808594 C 290.957031 332.179688 290.457031 331.59375 289.90625 331.042969 L 289.796875 330.933594 C 289.582031 330.71875 289.386719 330.480469 289.21875 330.226562 C 289.046875 329.96875 288.90625 329.699219 288.789062 329.417969 C 288.671875 329.132812 288.582031 328.84375 288.523438 328.542969 C 288.464844 328.242188 288.433594 327.9375 288.433594 327.628906 C 288.433594 327.324219 288.464844 327.019531 288.523438 326.71875 C 288.582031 326.417969 288.671875 326.125 288.789062 325.84375 C 288.90625 325.558594 289.046875 325.289062 289.21875 325.035156 C 289.386719 324.78125 289.582031 324.542969 289.796875 324.328125 L 304.28125 309.847656 C 304.5 309.636719 304.738281 309.449219 304.996094 309.28125 C 305.253906 309.117188 305.523438 308.976562 305.808594 308.859375 C 306.089844 308.746094 306.382812 308.660156 306.683594 308.601562 C 306.984375 308.542969 307.285156 308.515625 307.59375 308.515625 C 307.898438 308.515625 308.199219 308.542969 308.5 308.601562 C 308.800781 308.660156 309.09375 308.746094 309.378906 308.859375 C 309.660156 308.976562 309.929688 309.117188 310.1875 309.28125 C 310.445312 309.449219 310.683594 309.636719 310.902344 309.847656 C 311.453125 310.40625 312.042969 310.917969 312.671875 311.378906 C 313.300781 311.84375 313.964844 312.253906 314.660156 312.613281 C 315.355469 312.96875 316.074219 313.269531 316.820312 313.511719 C 317.5625 313.753906 318.320312 313.9375 319.09375 314.058594 C 319.867188 314.179688 320.644531 314.242188 321.429688 314.238281 C 322.210938 314.234375 322.988281 314.171875 323.757812 314.046875 C 324.53125 313.917969 325.289062 313.730469 326.03125 313.484375 C 326.773438 313.238281 327.492188 312.933594 328.183594 312.570312 C 332.738281 310.179688 337.472656 308.222656 342.382812 306.699219 C 343.121094 306.464844 343.835938 306.175781 344.527344 305.824219 C 345.214844 305.476562 345.875 305.074219 346.5 304.621094 C 347.125 304.167969 347.710938 303.664062 348.257812 303.117188 C 348.800781 302.566406 349.296875 301.980469 349.75 301.351562 C 350.199219 300.722656 350.59375 300.0625 350.9375 299.371094 C 351.28125 298.675781 351.570312 297.960938 351.796875 297.222656 C 352.027344 296.484375 352.195312 295.730469 352.300781 294.96875 C 352.410156 294.203125 352.453125 293.433594 352.4375 292.660156 C 352.4375 292.351562 352.46875 292.050781 352.527344 291.75 C 352.589844 291.449219 352.675781 291.15625 352.792969 290.875 C 352.910156 290.589844 353.054688 290.324219 353.226562 290.066406 C 353.394531 289.8125 353.589844 289.578125 353.804688 289.359375 C 354.023438 289.144531 354.257812 288.949219 354.511719 288.78125 C 354.769531 288.609375 355.035156 288.464844 355.320312 288.347656 C 355.601562 288.230469 355.894531 288.140625 356.195312 288.082031 C 356.496094 288.019531 356.800781 287.988281 357.105469 287.988281 L 377.601562 287.988281 C 377.90625 287.988281 378.210938 288.019531 378.511719 288.082031 C 378.8125 288.140625 379.101562 288.230469 379.386719 288.347656 C 379.667969 288.464844 379.9375 288.609375 380.191406 288.78125 C 380.445312 288.949219 380.683594 289.144531 380.898438 289.359375 C 381.117188 289.578125 381.308594 289.8125 381.480469 290.066406 C 381.648438 290.324219 381.792969 290.589844 381.910156 290.875 C 382.027344 291.15625 382.117188 291.449219 382.175781 291.75 C 382.238281 292.050781 382.269531 292.351562 382.269531 292.660156 C 382.261719 293.441406 382.316406 294.214844 382.429688 294.988281 C 382.546875 295.757812 382.722656 296.515625 382.960938 297.257812 C 383.199219 298 383.492188 298.722656 383.84375 299.417969 C 384.199219 300.113281 384.601562 300.777344 385.0625 301.410156 C 385.519531 302.039062 386.023438 302.632812 386.578125 303.183594 C 387.128906 303.734375 387.722656 304.234375 388.355469 304.691406 C 388.988281 305.148438 389.65625 305.550781 390.351562 305.902344 C 391.050781 306.25 391.769531 306.542969 392.515625 306.777344 C 397.359375 308.292969 402.03125 310.230469 406.527344 312.59375 C 407.21875 312.953125 407.9375 313.257812 408.679688 313.503906 C 409.421875 313.753906 410.179688 313.9375 410.953125 314.066406 C 411.726562 314.191406 412.503906 314.253906 413.289062 314.257812 C 414.070312 314.257812 414.847656 314.199219 415.621094 314.078125 C 416.394531 313.953125 417.152344 313.769531 417.898438 313.527344 C 418.640625 313.285156 419.359375 312.980469 420.058594 312.625 C 420.753906 312.265625 421.414062 311.855469 422.046875 311.390625 C 422.675781 310.925781 423.265625 310.414062 423.8125 309.855469 C 424.03125 309.644531 424.273438 309.457031 424.527344 309.292969 C 424.785156 309.128906 425.054688 308.988281 425.339844 308.875 C 425.621094 308.761719 425.914062 308.675781 426.210938 308.617188 C 426.511719 308.5625 426.8125 308.53125 427.117188 308.53125 C 427.421875 308.53125 427.726562 308.5625 428.023438 308.617188 C 428.324219 308.675781 428.617188 308.761719 428.898438 308.875 C 429.183594 308.988281 429.453125 309.128906 429.707031 309.292969 C 429.964844 309.457031 430.203125 309.644531 430.425781 309.855469 L 444.914062 324.328125 C 445.128906 324.542969 445.320312 324.78125 445.492188 325.035156 C 445.660156 325.289062 445.804688 325.558594 445.921875 325.84375 C 446.039062 326.125 446.128906 326.417969 446.1875 326.71875 C 446.246094 327.019531 446.277344 327.324219 446.277344 327.628906 C 446.277344 327.9375 446.246094 328.242188 446.1875 328.542969 C 446.128906 328.84375 446.039062 329.132812 445.921875 329.417969 C 445.804688 329.699219 445.660156 329.96875 445.492188 330.226562 C 445.320312 330.480469 445.128906 330.71875 444.914062 330.933594 C 444.875 330.964844 444.84375 331 444.8125 331.039062 C 444.261719 331.585938 443.757812 332.175781 443.300781 332.804688 C 442.847656 333.433594 442.441406 334.09375 442.089844 334.785156 C 441.738281 335.476562 441.445312 336.195312 441.207031 336.933594 C 440.96875 337.671875 440.789062 338.425781 440.671875 339.191406 C 440.554688 339.960938 440.496094 340.734375 440.503906 341.507812 C 440.507812 342.285156 440.574219 343.058594 440.699219 343.824219 C 440.828125 344.589844 441.015625 345.339844 441.261719 346.078125 C 441.507812 346.8125 441.8125 347.527344 442.171875 348.214844 C 444.535156 352.703125 446.476562 357.367188 447.988281 362.210938 C 448.226562 362.953125 448.519531 363.671875 448.867188 364.371094 C 449.21875 365.066406 449.621094 365.730469 450.078125 366.363281 C 450.535156 366.996094 451.039062 367.589844 451.589844 368.140625 C 452.140625 368.695312 452.734375 369.199219 453.363281 369.65625 C 453.996094 370.117188 454.660156 370.519531 455.359375 370.871094 C 456.054688 371.222656 456.773438 371.519531 457.519531 371.757812 C 458.261719 371.992188 459.019531 372.167969 459.792969 372.285156 C 460.5625 372.402344 461.339844 372.457031 462.121094 372.449219 C 462.425781 372.449219 462.730469 372.480469 463.03125 372.539062 C 463.332031 372.601562 463.621094 372.6875 463.90625 372.808594 C 464.1875 372.925781 464.457031 373.066406 464.710938 373.238281 C 464.96875 373.410156 465.203125 373.601562 465.417969 373.820312 C 465.636719 374.035156 465.828125 374.273438 466 374.527344 C 466.171875 374.78125 466.3125 375.050781 466.433594 375.332031 C 466.550781 375.617188 466.636719 375.90625 466.699219 376.207031 C 466.757812 376.507812 466.789062 376.8125 466.789062 377.117188 L 466.789062 397.585938 C 466.785156 397.902344 466.75 398.210938 466.683594 398.519531 C 466.621094 398.828125 466.523438 399.125 466.398438 399.414062 C 466.273438 399.703125 466.121094 399.976562 465.941406 400.234375 C 465.761719 400.492188 465.558594 400.730469 465.332031 400.945312 C 465.105469 401.164062 464.859375 401.355469 464.59375 401.523438 C 464.328125 401.695312 464.046875 401.835938 463.753906 401.945312 C 463.460938 402.058594 463.15625 402.140625 462.847656 402.195312 C 462.539062 402.246094 462.226562 402.265625 461.910156 402.257812 C 461.144531 402.257812 460.386719 402.316406 459.628906 402.433594 C 458.875 402.550781 458.132812 402.726562 457.40625 402.964844 C 456.675781 403.199219 455.972656 403.488281 455.289062 403.835938 C 454.609375 404.179688 453.957031 404.578125 453.339844 405.027344 C 452.71875 405.476562 452.140625 405.96875 451.597656 406.511719 C 451.058594 407.050781 450.5625 407.628906 450.113281 408.246094 C 449.660156 408.867188 449.261719 409.515625 448.914062 410.195312 C 448.566406 410.878906 448.277344 411.582031 448.039062 412.308594 C 447.320312 414.648438 446.472656 416.957031 445.554688 419.238281 L 453.304688 426.105469 C 454.945312 422.570312 456.359375 418.945312 457.539062 415.230469 C 457.710938 414.765625 457.945312 414.335938 458.25 413.949219 C 458.558594 413.558594 458.917969 413.230469 459.328125 412.957031 C 459.742188 412.683594 460.1875 412.480469 460.664062 412.351562 C 461.140625 412.21875 461.625 412.167969 462.121094 412.195312 Z M 462.121094 412.195312 " fill-opacity="1" fill-rule="nonzero"/></svg>