<svg xmlns="http://www.w3.org/2000/svg" xmlns:xlink="http://www.w3.org/1999/xlink" width="1000" zoomAndPan="magnify" viewBox="0 0 750 749.999995" height="1000" preserveAspectRatio="xMidYMid meet" version="1.0"><defs><clipPath id="456d94e22c"><path d="M 35.15625 0 L 60 0 L 60 750 L 35.15625 750 Z M 35.15625 0 " clip-rule="nonzero"/></clipPath><clipPath id="286c275bed"><path d="M 47 0 L 714.65625 0 L 714.65625 25 L 47 25 Z M 47 0 " clip-rule="nonzero"/></clipPath></defs><g clip-path="url(#456d94e22c)"><path fill="#ff7300" d="M 59.5 0 L 47.40625 750.011719 L 35.3125 0 Z M 59.5 0 " fill-opacity="1" fill-rule="nonzero"/></g><g clip-path="url(#286c275bed)"><path fill="#ff7300" d="M 47.527344 0.0117188 L 714.691406 12.105469 L 47.527344 24.199219 Z M 47.527344 0.0117188 " fill-opacity="1" fill-rule="nonzero"/></g><path fill="#ff7300" d="M 100.265625 38.464844 L 88.171875 666.109375 L 76.078125 38.464844 Z M 100.265625 38.464844 " fill-opacity="1" fill-rule="nonzero"/><path fill="#ff7300" d="M 82.933594 38.332031 L 641.246094 50.425781 L 82.933594 62.519531 Z M 82.933594 38.332031 " fill-opacity="1" fill-rule="nonzero"/><path fill="#ff7300" d="M 141.414062 74.988281 L 129.320312 481.65625 L 117.226562 74.988281 Z M 141.414062 74.988281 " fill-opacity="1" fill-rule="nonzero"/><path fill="#ff7300" d="M 129.320312 74.800781 L 491.066406 86.894531 L 129.320312 98.988281 Z M 129.320312 74.800781 " fill-opacity="1" fill-rule="nonzero"/></svg>