<svg xmlns="http://www.w3.org/2000/svg" xmlns:xlink="http://www.w3.org/1999/xlink" width="1000" zoomAndPan="magnify" viewBox="0 0 750 749.999995" height="1000" preserveAspectRatio="xMidYMid meet" version="1.0"><defs><clipPath id="bd597fe376"><path d="M 228.75 271 L 310 271 L 310 366 L 228.75 366 Z M 228.75 271 " clip-rule="nonzero"/></clipPath><clipPath id="508674cd31"><path d="M 312 275 L 521.25 275 L 521.25 431 L 312 431 Z M 312 275 " clip-rule="nonzero"/></clipPath><clipPath id="60f1624b32"><path d="M 228.75 382 L 309 382 L 309 474 L 228.75 474 Z M 228.75 382 " clip-rule="nonzero"/></clipPath></defs><path fill="#fd6916" d="M 495.074219 435.34375 C 491.527344 431.796875 487.394531 429.007812 482.796875 427.066406 C 482.3125 426.863281 481.824219 426.667969 481.332031 426.480469 C 482.105469 425.886719 482.851562 425.234375 483.554688 424.53125 C 487.777344 420.308594 490.101562 414.703125 490.101562 408.726562 C 490.101562 402.75 487.777344 397.144531 483.554688 392.921875 C 479.335938 388.699219 473.726562 386.375 467.75 386.375 C 466.992188 386.375 466.242188 386.414062 465.496094 386.484375 C 465.511719 386.351562 465.527344 386.21875 465.542969 386.085938 L 458.535156 385.324219 C 458.417969 386.390625 458.285156 387.472656 458.128906 388.535156 C 455.863281 389.617188 453.773438 391.089844 451.949219 392.914062 C 447.726562 397.136719 445.402344 402.742188 445.402344 408.71875 C 445.402344 412.523438 446.347656 416.183594 448.125 419.433594 L 447.867188 419.289062 C 446.945312 420.984375 445.949219 422.667969 444.914062 424.289062 L 450.71875 427.96875 C 448.683594 428.96875 446.746094 430.136719 444.929688 431.476562 L 441.65625 429.097656 C 440.523438 430.652344 439.324219 432.195312 438.101562 433.683594 L 440.285156 435.496094 C 438.871094 436.925781 437.578125 438.453125 436.410156 440.058594 L 434.257812 438.039062 C 432.933594 439.441406 431.554688 440.828125 430.144531 442.144531 L 433.183594 445.378906 C 432.816406 446.113281 432.472656 446.859375 432.148438 447.625 C 430.136719 452.394531 429.113281 457.453125 429.113281 462.667969 L 429.113281 470.40625 C 429.113281 472.355469 430.6875 473.929688 432.636719 473.929688 L 502.875 473.929688 C 504.824219 473.929688 506.398438 472.355469 506.398438 470.40625 L 506.398438 462.667969 C 506.398438 457.453125 505.375 452.394531 503.363281 447.625 C 501.410156 443.027344 498.625 438.894531 495.074219 435.34375 Z M 467.75 393.429688 C 476.1875 393.429688 483.046875 400.292969 483.046875 408.726562 C 483.046875 417.160156 476.1875 424.019531 467.75 424.019531 C 459.316406 424.019531 452.457031 417.160156 452.457031 408.726562 C 452.457031 400.292969 459.316406 393.429688 467.75 393.429688 Z M 452.636719 425.1875 C 453.136719 425.640625 453.648438 426.082031 454.179688 426.488281 C 453.6875 426.675781 453.199219 426.863281 452.714844 427.074219 C 452.144531 427.316406 451.585938 427.570312 451.03125 427.835938 C 451.570312 426.957031 452.113281 426.074219 452.636719 425.1875 Z M 452.636719 425.1875 " fill-opacity="1" fill-rule="nonzero"/><path fill="#fd6916" d="M 394.933594 486.421875 C 391.386719 482.875 387.253906 480.085938 382.65625 478.144531 C 382.167969 477.941406 381.683594 477.746094 381.191406 477.558594 C 381.964844 476.960938 382.710938 476.3125 383.414062 475.605469 C 387.636719 471.386719 389.960938 465.777344 389.960938 459.804688 C 389.960938 453.828125 387.636719 448.21875 383.414062 444 C 383.34375 443.929688 383.265625 443.859375 383.195312 443.789062 L 383.03125 443.050781 C 382.867188 443.089844 382.703125 443.128906 382.539062 443.160156 C 378.433594 439.472656 373.179688 437.453125 367.617188 437.453125 C 362.058594 437.453125 356.804688 439.472656 352.691406 443.167969 C 351.398438 442.886719 350.117188 442.566406 348.847656 442.207031 L 346.9375 448.988281 C 347.257812 449.082031 347.578125 449.167969 347.898438 449.253906 C 346.175781 452.457031 345.269531 456.058594 345.269531 459.804688 C 345.269531 461.308594 345.417969 462.785156 345.707031 464.226562 C 345.078125 464.070312 344.453125 463.914062 343.835938 463.75 L 342.011719 470.554688 C 344.015625 471.097656 346.066406 471.574219 348.101562 471.980469 L 348.289062 471.035156 C 349.253906 472.679688 350.429688 474.214844 351.816406 475.597656 C 352.519531 476.304688 353.265625 476.953125 354.039062 477.550781 C 353.546875 477.738281 353.058594 477.925781 352.574219 478.136719 C 347.96875 480.085938 343.84375 482.867188 340.292969 486.414062 C 336.746094 489.960938 333.960938 494.097656 332.015625 498.695312 C 330.003906 503.464844 328.976562 508.523438 328.976562 513.738281 L 328.976562 521.476562 C 328.976562 523.425781 330.550781 525 332.503906 525 L 402.742188 525 C 404.691406 525 406.265625 523.425781 406.265625 521.476562 L 406.265625 513.738281 C 406.265625 508.523438 405.242188 503.464844 403.226562 498.695312 C 401.269531 494.105469 398.484375 489.976562 394.933594 486.421875 Z M 367.609375 444.507812 C 376.046875 444.507812 382.90625 451.367188 382.90625 459.804688 C 382.90625 468.238281 376.046875 475.097656 367.609375 475.097656 C 359.175781 475.097656 352.316406 468.238281 352.316406 459.804688 C 352.316406 451.367188 359.175781 444.507812 367.609375 444.507812 Z M 367.609375 444.507812 " fill-opacity="1" fill-rule="nonzero"/><g clip-path="url(#bd597fe376)"><path fill="#fd6916" d="M 232.308594 358.832031 L 270.46875 358.832031 C 270.140625 360.796875 269.859375 362.792969 269.648438 364.777344 L 276.65625 365.527344 C 276.859375 363.609375 277.132812 361.675781 277.457031 359.78125 L 271.941406 358.832031 L 302.53125 358.832031 C 304.480469 358.832031 306.054688 357.257812 306.054688 355.308594 L 306.054688 347.570312 C 306.054688 345.785156 305.9375 344.015625 305.695312 342.277344 L 306.808594 342.878906 C 307.714844 341.203125 308.703125 339.550781 309.746094 337.953125 L 303.847656 334.09375 C 303.800781 334.164062 303.761719 334.234375 303.714844 334.304688 C 303.496094 333.707031 303.261719 333.113281 303.015625 332.535156 C 301.066406 327.929688 298.285156 323.800781 294.738281 320.253906 C 294.714844 320.230469 294.691406 320.207031 294.667969 320.191406 C 294.886719 319.902344 295.105469 319.613281 295.335938 319.328125 L 289.765625 315.007812 C 289.585938 315.234375 289.414062 315.460938 289.242188 315.6875 C 287.121094 314.230469 284.847656 312.996094 282.460938 311.976562 C 281.972656 311.773438 281.488281 311.578125 280.996094 311.390625 C 281.769531 310.792969 282.515625 310.144531 283.21875 309.4375 C 287.441406 305.21875 289.765625 299.609375 289.765625 293.636719 C 289.765625 287.660156 287.441406 282.042969 283.226562 277.824219 C 279.003906 273.601562 273.398438 271.277344 267.421875 271.277344 C 261.449219 271.277344 255.839844 273.601562 251.621094 277.824219 C 247.398438 282.042969 245.070312 287.652344 245.070312 293.628906 C 245.070312 299.601562 247.398438 305.210938 251.621094 309.429688 C 252.324219 310.136719 253.066406 310.785156 253.84375 311.382812 C 253.351562 311.570312 252.863281 311.757812 252.378906 311.96875 C 247.773438 313.917969 243.648438 316.699219 240.097656 320.246094 C 236.550781 323.792969 233.761719 327.929688 231.820312 332.527344 C 229.808594 337.296875 228.78125 342.355469 228.78125 347.570312 L 228.78125 355.308594 C 228.78125 357.25 230.355469 358.832031 232.308594 358.832031 Z M 267.421875 278.324219 C 275.859375 278.324219 282.71875 285.183594 282.71875 293.621094 C 282.71875 302.054688 275.859375 308.914062 267.421875 308.914062 C 258.988281 308.914062 252.128906 302.054688 252.128906 293.621094 C 252.121094 285.183594 258.988281 278.324219 267.421875 278.324219 Z M 267.421875 278.324219 " fill-opacity="1" fill-rule="nonzero"/></g><g clip-path="url(#508674cd31)"><path fill="#fd6916" d="M 521.125 322.925781 C 521.023438 321.539062 520.121094 320.347656 518.820312 319.871094 L 489.914062 309.304688 L 496.980469 279.359375 C 497.300781 278.011719 496.792969 276.59375 495.695312 275.753906 C 494.589844 274.910156 493.101562 274.792969 491.878906 275.449219 L 452.253906 296.808594 C 451.367188 297.285156 450.726562 298.121094 450.5 299.101562 L 444.9375 322.691406 L 443.191406 323.878906 L 443.277344 324.003906 L 444.882812 322.910156 L 443.082031 330.550781 L 414.285156 346.074219 C 411.546875 341.703125 408.203125 337.757812 404.308594 334.28125 C 398.96875 329.511719 392.851562 325.878906 386.140625 323.472656 C 379.1875 320.984375 371.894531 319.941406 364.460938 320.363281 C 357.03125 320.785156 349.902344 322.652344 343.277344 325.910156 C 336.878906 329.058594 331.21875 333.355469 326.449219 338.695312 C 321.679688 344.039062 318.046875 350.15625 315.640625 356.867188 C 313.152344 363.820312 312.109375 371.113281 312.53125 378.542969 C 312.957031 385.976562 314.820312 393.101562 318.078125 399.726562 C 321.226562 406.125 325.523438 411.789062 330.867188 416.558594 C 336.207031 421.328125 342.324219 424.960938 349.035156 427.363281 C 354.988281 429.496094 361.1875 430.566406 367.515625 430.566406 C 368.582031 430.566406 369.648438 430.535156 370.710938 430.472656 C 378.144531 430.050781 385.269531 428.1875 391.894531 424.929688 C 398.292969 421.78125 403.957031 417.480469 408.726562 412.140625 C 413.496094 406.800781 417.128906 400.691406 419.535156 393.972656 C 422.023438 387.015625 423.066406 379.726562 422.644531 372.292969 C 422.242188 365.292969 420.566406 358.566406 417.652344 352.269531 L 429.839844 345.699219 C 430.355469 346.761719 430.84375 347.84375 431.296875 348.925781 L 437.789062 346.191406 C 437.25 344.898438 436.660156 343.617188 436.042969 342.355469 L 446.425781 336.753906 L 453.3125 339.269531 L 451.917969 339.855469 C 452.667969 341.632812 453.367188 343.449219 454 345.277344 L 460.65625 342.957031 C 460.523438 342.574219 460.382812 342.191406 460.25 341.804688 L 476.789062 347.851562 C 477.179688 347.992188 477.589844 348.0625 477.996094 348.0625 C 478.574219 348.0625 479.148438 347.921875 479.671875 347.640625 L 519.289062 326.277344 C 520.503906 325.625 521.226562 324.3125 521.125 322.925781 Z M 415.59375 372.695312 C 415.960938 379.179688 415.046875 385.539062 412.882812 391.597656 C 410.792969 397.457031 407.621094 402.78125 403.457031 407.441406 C 399.296875 412.101562 394.355469 415.851562 388.78125 418.601562 C 383.007812 421.4375 376.789062 423.066406 370.304688 423.433594 C 363.820312 423.800781 357.460938 422.886719 351.398438 420.722656 C 345.542969 418.632812 340.214844 415.460938 335.558594 411.296875 C 330.898438 407.128906 327.144531 402.195312 324.398438 396.617188 C 321.5625 390.847656 319.933594 384.628906 319.566406 378.144531 C 319.195312 371.660156 320.113281 365.300781 322.273438 359.238281 C 324.367188 353.382812 327.539062 348.054688 331.703125 343.394531 C 335.863281 338.738281 340.804688 334.984375 346.378906 332.234375 C 352.152344 329.402344 358.371094 327.773438 364.855469 327.402344 C 365.785156 327.347656 366.71875 327.324219 367.640625 327.324219 C 373.15625 327.324219 378.566406 328.257812 383.75 330.113281 C 389.609375 332.203125 394.933594 335.375 399.59375 339.542969 C 402.875 342.472656 405.703125 345.785156 408.050781 349.433594 L 397.582031 355.082031 C 395.914062 352.628906 393.957031 350.382812 391.707031 348.386719 C 388.199219 345.253906 384.183594 342.863281 379.765625 341.28125 C 375.191406 339.644531 370.398438 338.957031 365.519531 339.238281 C 360.632812 339.511719 355.949219 340.742188 351.59375 342.878906 C 347.390625 344.945312 343.671875 347.773438 340.539062 351.28125 C 337.40625 354.789062 335.015625 358.808594 333.433594 363.226562 C 331.796875 367.800781 331.109375 372.59375 331.390625 377.472656 C 331.664062 382.359375 332.894531 387.039062 335.03125 391.394531 C 337.101562 395.601562 339.925781 399.320312 343.433594 402.453125 C 346.945312 405.585938 350.960938 407.972656 355.378906 409.554688 C 359.292969 410.957031 363.367188 411.664062 367.523438 411.664062 C 368.222656 411.664062 368.917969 411.640625 369.625 411.601562 C 374.511719 411.328125 379.195312 410.097656 383.546875 407.957031 C 387.753906 405.890625 391.472656 403.0625 394.605469 399.554688 C 397.738281 396.046875 400.128906 392.03125 401.710938 387.613281 C 403.347656 383.039062 404.035156 378.246094 403.753906 373.367188 C 403.519531 369.160156 402.570312 365.097656 400.941406 361.265625 L 411.40625 355.628906 C 413.855469 361 415.257812 366.734375 415.59375 372.695312 Z M 396.734375 373.765625 C 397.175781 381.550781 394.558594 389.046875 389.367188 394.863281 C 384.175781 400.683594 377.023438 404.128906 369.238281 404.574219 C 368.675781 404.605469 368.113281 404.621094 367.546875 404.621094 C 360.375 404.621094 353.539062 402.023438 348.140625 397.207031 C 342.324219 392.015625 338.878906 384.863281 338.429688 377.078125 C 337.992188 369.292969 340.609375 361.800781 345.800781 355.980469 C 350.992188 350.164062 358.144531 346.714844 365.925781 346.269531 C 366.492188 346.238281 367.054688 346.222656 367.617188 346.222656 C 374.792969 346.222656 381.628906 348.824219 387.023438 353.640625 C 388.660156 355.097656 390.101562 356.710938 391.347656 358.449219 L 380.777344 364.148438 C 380.273438 363.5625 379.726562 363.007812 379.140625 362.480469 C 375.675781 359.394531 371.230469 357.835938 366.601562 358.105469 C 361.972656 358.371094 357.726562 360.414062 354.640625 363.875 C 351.554688 367.335938 349.996094 371.785156 350.265625 376.414062 C 350.53125 381.042969 352.574219 385.285156 356.035156 388.371094 C 359.238281 391.238281 363.304688 392.78125 367.570312 392.78125 C 367.910156 392.78125 368.238281 392.773438 368.574219 392.75 C 373.203125 392.484375 377.449219 390.441406 380.53125 386.976562 C 383.617188 383.515625 385.175781 379.070312 384.910156 374.441406 C 384.832031 373.023438 384.582031 371.644531 384.175781 370.320312 L 394.730469 364.628906 C 395.867188 367.507812 396.554688 370.585938 396.734375 373.765625 Z M 364.515625 376.914062 C 365.152344 378.097656 366.367188 378.769531 367.617188 378.769531 C 368.183594 378.769531 368.753906 378.636719 369.285156 378.347656 L 377.753906 373.78125 C 377.808594 374.125 377.847656 374.480469 377.871094 374.839844 C 378.027344 377.589844 377.101562 380.226562 375.269531 382.289062 C 373.4375 384.347656 370.914062 385.5625 368.167969 385.710938 C 365.417969 385.867188 362.777344 384.941406 360.71875 383.109375 C 358.667969 381.277344 357.445312 378.753906 357.296875 376.007812 C 356.976562 370.335938 361.332031 365.457031 367 365.136719 C 367.195312 365.128906 367.398438 365.121094 367.59375 365.121094 C 370.070312 365.121094 372.433594 365.996094 374.324219 367.625 L 365.949219 372.136719 C 364.234375 373.0625 363.59375 375.199219 364.515625 376.914062 Z M 364.515625 376.914062 " fill-opacity="1" fill-rule="nonzero"/></g><path fill="#fd6916" d="M 407.863281 440.324219 L 404.128906 434.351562 C 402.515625 435.359375 400.832031 436.316406 399.140625 437.1875 L 402.367188 443.449219 C 404.238281 442.488281 406.085938 441.4375 407.863281 440.324219 Z M 407.863281 440.324219 " fill-opacity="1" fill-rule="nonzero"/><path fill="#fd6916" d="M 388.558594 441.554688 L 390.699219 448.273438 C 392.695312 447.640625 394.691406 446.914062 396.632812 446.105469 L 393.949219 439.589844 C 392.1875 440.316406 390.371094 440.976562 388.558594 441.554688 Z M 388.558594 441.554688 " fill-opacity="1" fill-rule="nonzero"/><path fill="#fd6916" d="M 417.457031 423.519531 L 422.546875 428.398438 C 423.996094 426.886719 425.40625 425.289062 426.730469 423.660156 L 421.257812 419.21875 C 420.050781 420.699219 418.773438 422.148438 417.457031 423.519531 Z M 417.457031 423.519531 " fill-opacity="1" fill-rule="nonzero"/><path fill="#fd6916" d="M 408.867188 431.117188 L 413.082031 436.761719 C 414.765625 435.511719 416.410156 434.171875 417.984375 432.777344 L 413.316406 427.5 C 411.890625 428.757812 410.394531 429.972656 408.867188 431.117188 Z M 408.867188 431.117188 " fill-opacity="1" fill-rule="nonzero"/><path fill="#fd6916" d="M 419.0625 329.644531 L 424.3125 324.9375 C 422.910156 323.371094 421.429688 321.851562 419.902344 320.410156 L 415.054688 325.53125 C 416.449219 326.839844 417.796875 328.226562 419.0625 329.644531 Z M 419.0625 329.644531 " fill-opacity="1" fill-rule="nonzero"/><path fill="#fd6916" d="M 406.117188 318.367188 C 407.699219 319.433594 409.25 320.574219 410.738281 321.765625 L 415.148438 316.261719 C 413.511719 314.945312 411.796875 313.691406 410.058594 312.515625 Z M 406.117188 318.367188 " fill-opacity="1" fill-rule="nonzero"/><path fill="#fd6916" d="M 424.6875 414.625 L 430.503906 418.601562 C 431.6875 416.871094 432.816406 415.0625 433.847656 413.238281 L 427.71875 409.761719 C 426.777344 411.414062 425.757812 413.050781 424.6875 414.625 Z M 424.6875 414.625 " fill-opacity="1" fill-rule="nonzero"/><path fill="#fd6916" d="M 431.929688 335.007812 C 430.8125 333.238281 429.597656 331.492188 428.328125 329.816406 L 422.707031 334.070312 C 423.855469 335.589844 424.953125 337.171875 425.972656 338.785156 Z M 431.929688 335.007812 " fill-opacity="1" fill-rule="nonzero"/><path fill="#fd6916" d="M 430.339844 404.652344 L 436.738281 407.613281 C 437.617188 405.710938 438.429688 403.738281 439.152344 401.773438 L 432.527344 399.359375 C 431.875 401.144531 431.140625 402.921875 430.339844 404.652344 Z M 430.339844 404.652344 " fill-opacity="1" fill-rule="nonzero"/><path fill="#fd6916" d="M 434.257812 393.894531 L 441.054688 395.742188 C 441.601562 393.714844 442.082031 391.644531 442.457031 389.578125 L 435.527344 388.300781 C 435.1875 390.171875 434.757812 392.054688 434.257812 393.894531 Z M 434.257812 393.894531 " fill-opacity="1" fill-rule="nonzero"/><path fill="#fd6916" d="M 435.917969 365.457031 C 436.199219 367.335938 436.402344 369.253906 436.527344 371.160156 L 443.5625 370.703125 C 443.425781 368.605469 443.199219 366.492188 442.886719 364.421875 Z M 435.917969 365.457031 " fill-opacity="1" fill-rule="nonzero"/><path fill="#fd6916" d="M 443.710938 377.015625 L 436.660156 376.898438 C 436.628906 378.808594 436.519531 380.738281 436.332031 382.625 L 443.347656 383.320312 C 443.550781 381.238281 443.679688 379.117188 443.710938 377.015625 Z M 443.710938 377.015625 " fill-opacity="1" fill-rule="nonzero"/><path fill="#fd6916" d="M 433.292969 354.304688 C 433.878906 356.113281 434.40625 357.96875 434.835938 359.828125 L 441.695312 358.214844 C 441.21875 356.167969 440.640625 354.117188 439.988281 352.128906 Z M 433.292969 354.304688 " fill-opacity="1" fill-rule="nonzero"/><path fill="#fd6916" d="M 307.535156 328.945312 L 313.097656 333.277344 C 314.269531 331.773438 315.515625 330.300781 316.808594 328.898438 L 311.625 324.121094 C 310.207031 325.664062 308.828125 327.285156 307.535156 328.945312 Z M 307.535156 328.945312 " fill-opacity="1" fill-rule="nonzero"/><path fill="#fd6916" d="M 325.25 321.148438 L 320.925781 315.578125 C 319.273438 316.863281 317.644531 318.242188 316.101562 319.660156 L 320.871094 324.851562 C 322.273438 323.558594 323.746094 322.3125 325.25 321.148438 Z M 325.25 321.148438 " fill-opacity="1" fill-rule="nonzero"/><path fill="#fd6916" d="M 323.628906 428.984375 C 322.164062 427.773438 320.722656 426.480469 319.363281 425.148438 L 314.433594 430.191406 C 315.9375 431.65625 317.519531 433.082031 319.132812 434.414062 Z M 323.628906 428.984375 " fill-opacity="1" fill-rule="nonzero"/><path fill="#fd6916" d="M 299.875 362.066406 L 292.960938 360.679688 C 292.546875 362.738281 292.21875 364.839844 291.984375 366.921875 L 298.984375 367.726562 C 299.203125 365.839844 299.5 363.929688 299.875 362.066406 Z M 299.875 362.066406 " fill-opacity="1" fill-rule="nonzero"/><path fill="#fd6916" d="M 291.480469 375.714844 C 291.480469 376.992188 291.511719 378.277344 291.574219 379.546875 L 298.617188 379.195312 C 298.5625 378.042969 298.53125 376.867188 298.53125 375.714844 C 298.53125 374.964844 298.546875 374.207031 298.570312 373.453125 L 291.519531 373.226562 C 291.488281 374.054688 291.480469 374.886719 291.480469 375.714844 Z M 291.480469 375.714844 " fill-opacity="1" fill-rule="nonzero"/><path fill="#fd6916" d="M 306.15625 420.660156 C 307.394531 422.351562 308.726562 424.011719 310.097656 425.601562 L 315.421875 420.984375 C 314.167969 419.542969 312.972656 418.039062 311.84375 416.503906 Z M 306.15625 420.660156 " fill-opacity="1" fill-rule="nonzero"/><path fill="#fd6916" d="M 303.503906 401.496094 C 302.789062 399.734375 302.148438 397.910156 301.582031 396.09375 L 294.847656 398.167969 C 295.46875 400.175781 296.179688 402.179688 296.964844 404.128906 Z M 303.503906 401.496094 " fill-opacity="1" fill-rule="nonzero"/><path fill="#fd6916" d="M 300.128906 390.558594 C 299.71875 388.699219 299.382812 386.796875 299.132812 384.910156 L 292.148438 385.84375 C 292.421875 387.925781 292.789062 390.015625 293.242188 392.070312 Z M 300.128906 390.558594 " fill-opacity="1" fill-rule="nonzero"/><path fill="#fd6916" d="M 308.648438 411.734375 C 307.652344 410.105469 306.714844 408.421875 305.859375 406.722656 L 299.5625 409.894531 C 300.503906 411.765625 301.535156 413.621094 302.632812 415.414062 Z M 308.648438 411.734375 " fill-opacity="1" fill-rule="nonzero"/><path fill="#fd6916" d="M 324.167969 438.242188 C 325.894531 439.441406 327.6875 440.585938 329.503906 441.632812 L 333.035156 435.535156 C 331.390625 434.578125 329.761719 433.542969 328.195312 432.457031 Z M 324.167969 438.242188 " fill-opacity="1" fill-rule="nonzero"/><path fill="#fd6916" d="M 343.394531 440.429688 C 341.609375 439.761719 339.839844 439.011719 338.117188 438.195312 L 335.101562 444.570312 C 336.996094 445.472656 338.964844 446.292969 340.929688 447.03125 Z M 343.394531 440.429688 " fill-opacity="1" fill-rule="nonzero"/><g clip-path="url(#60f1624b32)"><path fill="#fd6916" d="M 303.886719 441.039062 L 301.417969 443.585938 C 300.449219 441.789062 299.335938 440.074219 298.097656 438.460938 L 299.851562 436.863281 C 298.5625 435.4375 297.292969 433.953125 296.085938 432.449219 L 294.113281 434.03125 C 292.609375 432.589844 291.003906 431.289062 289.304688 430.113281 L 292.609375 427.796875 C 291.503906 426.214844 290.433594 424.585938 289.429688 422.941406 L 283.40625 426.605469 C 283.453125 426.683594 283.507812 426.769531 283.554688 426.847656 C 283.195312 426.683594 282.828125 426.519531 282.460938 426.363281 C 281.972656 426.160156 281.488281 425.964844 280.996094 425.773438 C 281.769531 425.179688 282.515625 424.53125 283.21875 423.824219 C 287.441406 419.605469 289.765625 413.996094 289.765625 408.019531 C 289.765625 402.046875 287.441406 396.4375 283.21875 392.21875 C 281.371094 390.371094 279.257812 388.882812 276.960938 387.800781 C 276.742188 386.1875 276.5625 384.550781 276.429688 382.921875 L 269.40625 383.492188 C 269.46875 384.253906 269.539062 385.019531 269.617188 385.78125 C 268.886719 385.710938 268.160156 385.671875 267.414062 385.671875 C 261.449219 385.671875 255.832031 387.996094 251.609375 392.21875 C 247.390625 396.4375 245.0625 402.046875 245.0625 408.019531 C 245.0625 413.996094 247.390625 419.605469 251.609375 423.824219 C 252.316406 424.53125 253.058594 425.179688 253.835938 425.773438 C 253.34375 425.964844 252.855469 426.152344 252.371094 426.363281 C 247.765625 428.3125 243.640625 431.09375 240.089844 434.640625 C 236.542969 438.1875 233.753906 442.324219 231.8125 446.921875 C 229.800781 451.691406 228.773438 456.75 228.773438 461.964844 L 228.773438 469.703125 C 228.773438 471.652344 230.347656 473.226562 232.300781 473.226562 L 302.539062 473.226562 C 304.488281 473.226562 306.0625 471.652344 306.0625 469.703125 L 306.0625 461.964844 C 306.0625 457.757812 305.398438 453.65625 304.089844 449.730469 L 308.179688 444.945312 C 306.714844 443.695312 305.273438 442.378906 303.886719 441.039062 Z M 267.421875 392.726562 C 275.859375 392.726562 282.71875 399.585938 282.71875 408.019531 C 282.71875 416.457031 275.859375 423.316406 267.421875 423.316406 C 258.988281 423.316406 252.128906 416.457031 252.128906 408.019531 C 252.128906 399.585938 258.988281 392.726562 267.421875 392.726562 Z M 267.421875 392.726562 " fill-opacity="1" fill-rule="nonzero"/></g><path fill="#fd6916" d="M 308.476562 454.21875 C 310.136719 455.464844 311.859375 456.679688 313.589844 457.8125 L 317.457031 451.925781 C 315.84375 450.867188 314.246094 449.746094 312.703125 448.589844 Z M 308.476562 454.21875 " fill-opacity="1" fill-rule="nonzero"/><path fill="#fd6916" d="M 330.160156 466.5625 C 332.078125 467.351562 334.054688 468.089844 336.019531 468.753906 L 338.273438 462.074219 C 336.449219 461.457031 334.617188 460.773438 332.839844 460.039062 Z M 330.160156 466.5625 " fill-opacity="1" fill-rule="nonzero"/><path fill="#fd6916" d="M 318.921875 461.078125 C 320.722656 462.105469 322.589844 463.09375 324.453125 464 L 327.546875 457.664062 C 325.816406 456.820312 324.082031 455.910156 322.40625 454.957031 Z M 318.921875 461.078125 " fill-opacity="1" fill-rule="nonzero"/><path fill="#fd6916" d="M 400.878906 460.632812 L 403.449219 467.195312 C 405.382812 466.445312 407.316406 465.613281 409.195312 464.738281 L 406.21875 458.347656 C 404.464844 459.167969 402.671875 459.9375 400.878906 460.632812 Z M 400.878906 460.632812 " fill-opacity="1" fill-rule="nonzero"/><path fill="#fd6916" d="M 411.390625 455.730469 L 414.773438 461.917969 C 416.589844 460.921875 418.40625 459.859375 420.160156 458.746094 L 416.394531 452.785156 C 414.765625 453.820312 413.082031 454.804688 411.390625 455.730469 Z M 411.390625 455.730469 " fill-opacity="1" fill-rule="nonzero"/><path fill="#fd6916" d="M 425.789062 445.980469 C 424.304688 447.210938 422.761719 448.402344 421.203125 449.535156 L 425.335938 455.246094 C 427.019531 454.03125 428.679688 452.738281 430.277344 451.421875 Z M 425.789062 445.980469 " fill-opacity="1" fill-rule="nonzero"/><path fill="#fd6916" d="M 391.535156 470.996094 C 393.546875 470.492188 395.578125 469.914062 397.550781 469.285156 L 395.414062 462.566406 C 393.582031 463.15625 391.699219 463.6875 389.828125 464.148438 Z M 391.535156 470.996094 " fill-opacity="1" fill-rule="nonzero"/><path fill="#fd6916" d="M 458.121094 362.167969 C 458.394531 364.070312 458.613281 366.011719 458.769531 367.941406 L 465.792969 367.375 C 465.628906 365.308594 465.394531 363.21875 465.097656 361.164062 Z M 458.121094 362.167969 " fill-opacity="1" fill-rule="nonzero"/><path fill="#fd6916" d="M 455.730469 350.820312 C 456.246094 352.675781 456.710938 354.570312 457.109375 356.460938 L 464.007812 355.011719 C 463.578125 352.972656 463.085938 350.929688 462.527344 348.933594 Z M 455.730469 350.820312 " fill-opacity="1" fill-rule="nonzero"/><path fill="#fd6916" d="M 466.019531 379.859375 C 466.082031 378.378906 466.121094 376.882812 466.121094 375.402344 C 466.121094 374.808594 466.113281 374.207031 466.105469 373.609375 L 459.058594 373.734375 C 459.066406 374.285156 459.074219 374.847656 459.074219 375.402344 C 459.074219 376.78125 459.042969 378.175781 458.980469 379.546875 Z M 466.019531 379.859375 " fill-opacity="1" fill-rule="nonzero"/><path fill="#fd6916" d="M 417.261719 290.296875 C 415.46875 289.25 413.621094 288.246094 411.765625 287.316406 L 408.601562 293.613281 C 410.324219 294.472656 412.039062 295.40625 413.707031 296.382812 Z M 417.261719 290.296875 " fill-opacity="1" fill-rule="nonzero"/><path fill="#fd6916" d="M 427.632812 297.277344 C 425.988281 296.007812 424.28125 294.777344 422.554688 293.621094 L 418.617188 299.46875 C 420.214844 300.542969 421.796875 301.6875 423.332031 302.859375 Z M 427.632812 297.277344 " fill-opacity="1" fill-rule="nonzero"/><path fill="#fd6916" d="M 439.769531 319.1875 L 445.332031 314.851562 C 444.054688 313.214844 442.707031 311.601562 441.328125 310.042969 L 436.058594 314.71875 C 437.335938 316.175781 438.578125 317.667969 439.769531 319.1875 Z M 439.769531 319.1875 " fill-opacity="1" fill-rule="nonzero"/><path fill="#fd6916" d="M 437.027344 305.507812 C 435.558594 304.042969 434.023438 302.609375 432.457031 301.246094 L 427.8125 306.550781 C 429.261719 307.816406 430.695312 309.148438 432.054688 310.511719 Z M 437.027344 305.507812 " fill-opacity="1" fill-rule="nonzero"/><path fill="#fd6916" d="M 311.75 302.953125 L 307.441406 297.378906 C 305.796875 298.648438 304.175781 299.984375 302.617188 301.355469 L 307.269531 306.652344 C 308.71875 305.375 310.230469 304.128906 311.75 302.953125 Z M 311.75 302.953125 " fill-opacity="1" fill-rule="nonzero"/><path fill="#fd6916" d="M 303.03125 310.613281 L 298.058594 305.625 C 296.585938 307.089844 295.144531 308.625 293.777344 310.175781 L 299.054688 314.84375 C 300.324219 313.394531 301.664062 311.976562 303.03125 310.613281 Z M 303.03125 310.613281 " fill-opacity="1" fill-rule="nonzero"/><path fill="#fd6916" d="M 330.105469 291.945312 C 329.347656 294.980469 328.96875 298.105469 328.96875 301.292969 L 328.96875 309.03125 C 328.96875 309.375 329.015625 309.714844 329.113281 310.027344 C 328.078125 310.628906 327.058594 311.261719 326.066406 311.90625 L 329.917969 317.8125 C 331.515625 316.769531 333.175781 315.78125 334.851562 314.882812 L 333.597656 312.554688 L 396.210938 312.554688 L 396.109375 312.773438 C 397.839844 313.558594 399.5625 314.425781 401.230469 315.359375 L 402.796875 312.554688 C 404.714844 312.523438 406.257812 310.957031 406.257812 309.03125 L 406.257812 301.292969 C 406.257812 297.066406 405.585938 292.9375 404.261719 288.992188 L 406.09375 284.683594 C 404.621094 284.058594 403.125 283.46875 401.621094 282.914062 C 399.851562 279.632812 397.613281 276.640625 394.941406 273.96875 C 391.394531 270.421875 387.261719 267.632812 382.664062 265.691406 C 382.175781 265.488281 381.691406 265.292969 381.199219 265.105469 C 381.972656 264.507812 382.71875 263.859375 383.421875 263.15625 C 387.644531 258.933594 389.96875 253.328125 389.96875 247.351562 C 389.96875 241.375 387.644531 235.769531 383.421875 231.546875 C 379.203125 227.324219 373.59375 225 367.617188 225 C 361.644531 225 356.035156 227.324219 351.816406 231.546875 C 347.59375 235.769531 345.269531 241.375 345.269531 247.351562 C 345.269531 253.328125 347.59375 258.933594 351.816406 263.15625 C 352.519531 263.859375 353.265625 264.507812 354.039062 265.105469 C 353.546875 265.292969 353.058594 265.480469 352.574219 265.691406 C 347.96875 267.640625 343.84375 270.421875 340.292969 273.96875 C 336.746094 277.519531 333.960938 281.652344 332.015625 286.25 C 331.601562 287.238281 331.226562 288.238281 330.890625 289.257812 L 328.960938 284.746094 C 327.050781 285.5625 325.148438 286.445312 323.292969 287.386719 L 326.464844 293.683594 C 327.664062 293.078125 328.882812 292.5 330.105469 291.945312 Z M 367.609375 232.054688 C 376.046875 232.054688 382.90625 238.917969 382.90625 247.351562 C 382.90625 255.785156 376.046875 262.644531 367.609375 262.644531 C 359.175781 262.644531 352.316406 255.785156 352.316406 247.351562 C 352.316406 238.917969 359.175781 232.054688 367.609375 232.054688 Z M 367.609375 232.054688 " fill-opacity="1" fill-rule="nonzero"/><path fill="#fd6916" d="M 321.367188 296.453125 L 317.796875 290.378906 C 316.007812 291.425781 314.222656 292.546875 312.507812 293.714844 L 316.457031 299.554688 C 318.054688 298.476562 319.707031 297.433594 321.367188 296.453125 Z M 321.367188 296.453125 " fill-opacity="1" fill-rule="nonzero"/><path fill="#fd6916" d="M 269.175781 371.011719 C 269.113281 372.464844 269.082031 373.945312 269.082031 375.402344 C 269.082031 376.023438 269.089844 376.640625 269.097656 377.257812 L 276.148438 377.125 C 276.140625 376.554688 276.132812 375.976562 276.132812 375.402344 C 276.132812 374.046875 276.164062 372.671875 276.21875 371.316406 Z M 269.175781 371.011719 " fill-opacity="1" fill-rule="nonzero"/></svg>