<svg xmlns="http://www.w3.org/2000/svg" xmlns:xlink="http://www.w3.org/1999/xlink" width="1000" zoomAndPan="magnify" viewBox="0 0 750 749.999995" height="1000" preserveAspectRatio="xMidYMid meet" version="1.0"><path fill="#fd6916" d="M 360.164062 350.457031 C 356.984375 340.503906 349.730469 332.027344 340.746094 327.773438 C 323.378906 319.539062 305.277344 320.644531 289.660156 322.320312 C 287.667969 322.539062 285.917969 323.769531 285.050781 325.578125 C 284.175781 327.390625 284.3125 329.523438 285.394531 331.222656 C 287.332031 334.253906 290.167969 338.890625 291.535156 341.390625 C 295.011719 347.726562 296.640625 355.039062 297.902344 361.394531 C 300.953125 376.773438 316.03125 391.449219 336.132812 391.449219 C 338.234375 391.449219 340.394531 391.285156 342.597656 390.949219 C 345.769531 390.464844 347.949219 387.503906 347.464844 384.335938 C 346.976562 381.164062 343.980469 378.972656 340.84375 379.472656 C 324.851562 381.90625 311.628906 370.925781 309.289062 359.132812 C 307.863281 351.925781 305.984375 343.585938 301.714844 335.800781 C 301.285156 335.011719 300.742188 334.074219 300.144531 333.050781 C 313.496094 332.210938 325.015625 333.160156 335.769531 338.265625 C 341.898438 341.167969 346.882812 347.042969 349.101562 353.984375 C 350.121094 357.183594 350.820312 361.527344 349.925781 366.492188 C 344.695312 360.683594 338.410156 354.46875 330.652344 347.800781 C 328.222656 345.707031 324.554688 345.988281 322.46875 348.417969 C 320.375 350.847656 320.65625 354.511719 323.089844 356.609375 C 333.382812 365.457031 340.953125 373.363281 346.621094 380.402344 C 346.980469 381.183594 347.515625 381.875 348.199219 382.4375 C 359.03125 396.476562 362.214844 406.890625 364.394531 414.113281 C 364.6875 415.101562 364.972656 416.023438 365.246094 416.890625 C 359.394531 429.207031 355.839844 440.777344 354.242188 449.53125 C 353.664062 452.683594 355.75 455.707031 358.902344 456.285156 C 359.261719 456.355469 359.609375 456.378906 359.957031 456.378906 C 362.707031 456.378906 365.152344 454.417969 365.664062 451.621094 C 367.207031 443.160156 370.714844 431.84375 376.617188 419.875 C 376.695312 419.726562 376.765625 419.582031 376.832031 419.425781 C 380.464844 412.128906 385.03125 404.613281 390.574219 397.339844 C 391.039062 397.269531 391.507812 397.167969 391.964844 396.980469 C 405.035156 391.609375 420.164062 395.019531 420.3125 395.050781 C 423.429688 395.777344 426.550781 393.839844 427.285156 390.722656 C 428.019531 387.605469 426.082031 384.480469 422.964844 383.742188 C 422.457031 383.621094 414.15625 381.738281 403.746094 382.550781 C 411.9375 374.773438 421.582031 367.796875 432.910156 362.441406 C 435.808594 361.074219 437.042969 357.613281 435.675781 354.710938 C 434.304688 351.8125 430.84375 350.578125 427.945312 351.945312 C 421.382812 355.046875 415.375 358.667969 409.800781 362.625 L 410.054688 361.746094 C 410.933594 358.664062 409.152344 355.449219 406.078125 354.5625 C 402.988281 353.679688 399.78125 355.460938 398.894531 358.542969 L 394.027344 375.484375 C 393.980469 375.664062 393.964844 375.84375 393.9375 376.019531 C 386.390625 383.503906 379.976562 391.582031 374.71875 399.761719 C 371.933594 390.1875 373.195312 381.761719 375.085938 375.824219 C 378.582031 364.878906 386.464844 355.597656 396.171875 350.996094 C 413.769531 342.675781 432.511719 341.609375 454.539062 343.386719 C 452.816406 346.210938 451.140625 349.0625 449.976562 351.1875 C 443.871094 362.332031 441.160156 374.382812 439.097656 384.800781 C 436.917969 395.785156 430.855469 405.242188 422.460938 410.738281 C 413.355469 416.691406 401.859375 418.210938 388.316406 415.234375 C 385.179688 414.5625 382.085938 416.53125 381.402344 419.664062 C 380.71875 422.792969 382.699219 425.894531 385.832031 426.578125 C 391.058594 427.726562 396.117188 428.296875 400.976562 428.296875 C 411.410156 428.296875 420.863281 425.65625 428.8125 420.457031 C 439.960938 413.160156 447.664062 401.300781 450.484375 387.054688 C 452.378906 377.488281 454.839844 366.46875 460.164062 356.765625 C 462.160156 353.109375 466.367188 346.226562 469.300781 341.617188 C 470.378906 339.921875 470.511719 337.792969 469.636719 335.980469 C 468.769531 334.167969 467.023438 332.9375 465.027344 332.726562 C 442.410156 330.296875 416.183594 328.691406 391.207031 340.507812 C 378.644531 346.457031 368.476562 358.347656 364.023438 372.296875 C 363.035156 375.398438 362.386719 378.558594 361.984375 381.722656 C 360.984375 380.242188 359.898438 378.71875 358.734375 377.160156 C 362.457031 368.625 362.984375 359.285156 360.164062 350.457031 Z M 360.164062 350.457031 " fill-opacity="1" fill-rule="nonzero"/><path fill="#fd6916" d="M 326.410156 489.277344 C 327.15625 489.59375 327.917969 489.742188 328.679688 489.742188 C 330.9375 489.742188 333.085938 488.417969 334.027344 486.210938 C 335.285156 483.261719 333.910156 479.851562 330.957031 478.597656 C 285.210938 459.101562 258.050781 412.757812 263.378906 363.261719 C 269.476562 306.652344 316.863281 264.359375 372.347656 263.070312 L 358.015625 274.613281 C 355.519531 276.625 355.125 280.28125 357.132812 282.777344 C 358.285156 284.203125 359.960938 284.941406 361.660156 284.941406 C 362.9375 284.941406 364.226562 284.523438 365.296875 283.660156 L 391.691406 262.402344 C 394.1875 260.390625 394.582031 256.738281 392.574219 254.238281 L 371.320312 227.851562 C 369.308594 225.355469 365.65625 224.957031 363.15625 226.972656 C 360.660156 228.984375 360.265625 232.636719 362.273438 235.136719 L 375.371094 251.394531 C 312.773438 251.148438 258.6875 298.429688 251.835938 362.015625 C 245.957031 416.628906 275.925781 467.769531 326.410156 489.277344 Z M 326.410156 489.277344 " fill-opacity="1" fill-rule="nonzero"/><path fill="#fd6916" d="M 417.988281 271.523438 C 463.714844 290.4375 491.949219 338.054688 486.648438 387.320312 C 480.546875 443.929688 433.144531 486.246094 377.65625 487.507812 L 391.996094 475.964844 C 394.488281 473.949219 394.886719 470.292969 392.875 467.800781 C 390.859375 465.300781 387.207031 464.902344 384.710938 466.917969 L 358.316406 488.175781 C 357.121094 489.140625 356.355469 490.542969 356.1875 492.074219 C 356.027344 493.601562 356.476562 495.136719 357.4375 496.339844 L 378.699219 522.726562 C 379.847656 524.148438 381.527344 524.890625 383.21875 524.890625 C 384.503906 524.890625 385.785156 524.464844 386.863281 523.605469 C 389.355469 521.589844 389.753906 517.9375 387.742188 515.441406 L 374.632812 499.171875 C 374.785156 499.171875 374.941406 499.1875 375.097656 499.1875 C 437.507812 499.179688 491.355469 451.988281 498.1875 388.566406 C 504.042969 334.210938 472.886719 281.667969 422.421875 260.796875 C 419.460938 259.574219 416.0625 260.984375 414.835938 263.945312 C 413.609375 266.898438 415.023438 270.296875 417.988281 271.523438 Z M 417.988281 271.523438 " fill-opacity="1" fill-rule="nonzero"/></svg>